<?xml version="1.0" encoding="utf-8"?>
<svg xmlns="http://www.w3.org/2000/svg" xmlns:xlink="http://www.w3.org/1999/xlink" width="960" height="480" viewBox="0 0 3840 1920">
<defs>
  <clipPath id="clip880">
    <rect x="0" y="0" width="3840" height="1920"/>
  </clipPath>
</defs>
<path clip-path="url(#clip880)" d="
M0 1920 L3840 1920 L3840 0 L0 0  Z
  " fill="#ffffff" fill-rule="evenodd" fill-opacity="1"/>
<defs>
  <clipPath id="clip881">
    <rect x="768" y="0" width="2689" height="1920"/>
  </clipPath>
</defs>
<path clip-path="url(#clip880)" d="
M200.674 1811.89 L3792.76 1811.89 L3792.76 47.2441 L200.674 47.2441  Z
  " fill="#ffffff" fill-rule="evenodd" fill-opacity="1"/>
<defs>
  <clipPath id="clip882">
    <rect x="200" y="47" width="3593" height="1766"/>
  </clipPath>
</defs>
<polyline clip-path="url(#clip882)" style="stroke:#000000; stroke-linecap:butt; stroke-linejoin:round; stroke-width:2; stroke-opacity:0.1; fill:none" points="
  302.337,1811.89 302.337,47.2441 
  "/>
<polyline clip-path="url(#clip882)" style="stroke:#000000; stroke-linecap:butt; stroke-linejoin:round; stroke-width:2; stroke-opacity:0.1; fill:none" points="
  867.129,1811.89 867.129,47.2441 
  "/>
<polyline clip-path="url(#clip882)" style="stroke:#000000; stroke-linecap:butt; stroke-linejoin:round; stroke-width:2; stroke-opacity:0.1; fill:none" points="
  1431.92,1811.89 1431.92,47.2441 
  "/>
<polyline clip-path="url(#clip882)" style="stroke:#000000; stroke-linecap:butt; stroke-linejoin:round; stroke-width:2; stroke-opacity:0.1; fill:none" points="
  1996.71,1811.89 1996.71,47.2441 
  "/>
<polyline clip-path="url(#clip882)" style="stroke:#000000; stroke-linecap:butt; stroke-linejoin:round; stroke-width:2; stroke-opacity:0.1; fill:none" points="
  2561.51,1811.89 2561.51,47.2441 
  "/>
<polyline clip-path="url(#clip882)" style="stroke:#000000; stroke-linecap:butt; stroke-linejoin:round; stroke-width:2; stroke-opacity:0.1; fill:none" points="
  3126.3,1811.89 3126.3,47.2441 
  "/>
<polyline clip-path="url(#clip882)" style="stroke:#000000; stroke-linecap:butt; stroke-linejoin:round; stroke-width:2; stroke-opacity:0.1; fill:none" points="
  3691.09,1811.89 3691.09,47.2441 
  "/>
<polyline clip-path="url(#clip880)" style="stroke:#000000; stroke-linecap:butt; stroke-linejoin:round; stroke-width:4; stroke-opacity:1; fill:none" points="
  200.674,1811.89 3792.76,1811.89 
  "/>
<polyline clip-path="url(#clip880)" style="stroke:#000000; stroke-linecap:butt; stroke-linejoin:round; stroke-width:4; stroke-opacity:1; fill:none" points="
  302.337,1811.89 302.337,1792.99 
  "/>
<polyline clip-path="url(#clip880)" style="stroke:#000000; stroke-linecap:butt; stroke-linejoin:round; stroke-width:4; stroke-opacity:1; fill:none" points="
  867.129,1811.89 867.129,1792.99 
  "/>
<polyline clip-path="url(#clip880)" style="stroke:#000000; stroke-linecap:butt; stroke-linejoin:round; stroke-width:4; stroke-opacity:1; fill:none" points="
  1431.92,1811.89 1431.92,1792.99 
  "/>
<polyline clip-path="url(#clip880)" style="stroke:#000000; stroke-linecap:butt; stroke-linejoin:round; stroke-width:4; stroke-opacity:1; fill:none" points="
  1996.71,1811.89 1996.71,1792.99 
  "/>
<polyline clip-path="url(#clip880)" style="stroke:#000000; stroke-linecap:butt; stroke-linejoin:round; stroke-width:4; stroke-opacity:1; fill:none" points="
  2561.51,1811.89 2561.51,1792.99 
  "/>
<polyline clip-path="url(#clip880)" style="stroke:#000000; stroke-linecap:butt; stroke-linejoin:round; stroke-width:4; stroke-opacity:1; fill:none" points="
  3126.3,1811.89 3126.3,1792.99 
  "/>
<polyline clip-path="url(#clip880)" style="stroke:#000000; stroke-linecap:butt; stroke-linejoin:round; stroke-width:4; stroke-opacity:1; fill:none" points="
  3691.09,1811.89 3691.09,1792.99 
  "/>
<path clip-path="url(#clip880)" d="M271.804 1868.98 L301.48 1868.98 L301.48 1872.91 L271.804 1872.91 L271.804 1868.98 Z" fill="#000000" fill-rule="evenodd" fill-opacity="1" /><path clip-path="url(#clip880)" d="M325.739 1867.17 Q329.096 1867.89 330.971 1870.16 Q332.869 1872.43 332.869 1875.76 Q332.869 1880.88 329.35 1883.68 Q325.832 1886.48 319.35 1886.48 Q317.175 1886.48 314.86 1886.04 Q312.568 1885.62 310.114 1884.77 L310.114 1880.25 Q312.059 1881.39 314.374 1881.97 Q316.688 1882.54 319.212 1882.54 Q323.61 1882.54 325.901 1880.81 Q328.216 1879.07 328.216 1875.76 Q328.216 1872.71 326.063 1870.99 Q323.934 1869.26 320.114 1869.26 L316.087 1869.26 L316.087 1865.41 L320.3 1865.41 Q323.749 1865.41 325.577 1864.05 Q327.406 1862.66 327.406 1860.07 Q327.406 1857.41 325.508 1855.99 Q323.633 1854.56 320.114 1854.56 Q318.193 1854.56 315.994 1854.97 Q313.795 1855.39 311.156 1856.27 L311.156 1852.1 Q313.818 1851.36 316.133 1850.99 Q318.471 1850.62 320.531 1850.62 Q325.855 1850.62 328.957 1853.05 Q332.059 1855.46 332.059 1859.58 Q332.059 1862.45 330.415 1864.44 Q328.772 1866.41 325.739 1867.17 Z" fill="#000000" fill-rule="evenodd" fill-opacity="1" /><path clip-path="url(#clip880)" d="M837.072 1868.98 L866.748 1868.98 L866.748 1872.91 L837.072 1872.91 L837.072 1868.98 Z" fill="#000000" fill-rule="evenodd" fill-opacity="1" /><path clip-path="url(#clip880)" d="M880.868 1881.87 L897.187 1881.87 L897.187 1885.81 L875.243 1885.81 L875.243 1881.87 Q877.905 1879.12 882.488 1874.49 Q887.095 1869.84 888.275 1868.49 Q890.521 1865.97 891.4 1864.23 Q892.303 1862.47 892.303 1860.78 Q892.303 1858.03 890.358 1856.29 Q888.437 1854.56 885.335 1854.56 Q883.136 1854.56 880.683 1855.32 Q878.252 1856.09 875.474 1857.64 L875.474 1852.91 Q878.298 1851.78 880.752 1851.2 Q883.206 1850.62 885.243 1850.62 Q890.613 1850.62 893.808 1853.31 Q897.002 1855.99 897.002 1860.48 Q897.002 1862.61 896.192 1864.53 Q895.405 1866.43 893.298 1869.03 Q892.72 1869.7 889.618 1872.91 Q886.516 1876.11 880.868 1881.87 Z" fill="#000000" fill-rule="evenodd" fill-opacity="1" /><path clip-path="url(#clip880)" d="M1401.68 1868.98 L1431.36 1868.98 L1431.36 1872.91 L1401.68 1872.91 L1401.68 1868.98 Z" fill="#000000" fill-rule="evenodd" fill-opacity="1" /><path clip-path="url(#clip880)" d="M1442.26 1881.87 L1449.9 1881.87 L1449.9 1855.51 L1441.59 1857.17 L1441.59 1852.91 L1449.85 1851.25 L1454.53 1851.25 L1454.53 1881.87 L1462.17 1881.87 L1462.17 1885.81 L1442.26 1885.81 L1442.26 1881.87 Z" fill="#000000" fill-rule="evenodd" fill-opacity="1" /><path clip-path="url(#clip880)" d="M1996.71 1854.33 Q1993.1 1854.33 1991.28 1857.89 Q1989.47 1861.43 1989.47 1868.56 Q1989.47 1875.67 1991.28 1879.23 Q1993.1 1882.78 1996.71 1882.78 Q2000.35 1882.78 2002.15 1879.23 Q2003.98 1875.67 2003.98 1868.56 Q2003.98 1861.43 2002.15 1857.89 Q2000.35 1854.33 1996.71 1854.33 M1996.71 1850.62 Q2002.53 1850.62 2005.58 1855.23 Q2008.66 1859.81 2008.66 1868.56 Q2008.66 1877.29 2005.58 1881.9 Q2002.53 1886.48 1996.71 1886.48 Q1990.9 1886.48 1987.83 1881.9 Q1984.77 1877.29 1984.77 1868.56 Q1984.77 1859.81 1987.83 1855.23 Q1990.9 1850.62 1996.71 1850.62 Z" fill="#000000" fill-rule="evenodd" fill-opacity="1" /><path clip-path="url(#clip880)" d="M2551.89 1881.87 L2559.53 1881.87 L2559.53 1855.51 L2551.22 1857.17 L2551.22 1852.91 L2559.48 1851.25 L2564.16 1851.25 L2564.16 1881.87 L2571.8 1881.87 L2571.8 1885.81 L2551.89 1885.81 L2551.89 1881.87 Z" fill="#000000" fill-rule="evenodd" fill-opacity="1" /><path clip-path="url(#clip880)" d="M3120.95 1881.87 L3137.27 1881.87 L3137.27 1885.81 L3115.33 1885.81 L3115.33 1881.87 Q3117.99 1879.12 3122.57 1874.49 Q3127.18 1869.84 3128.36 1868.49 Q3130.61 1865.97 3131.49 1864.23 Q3132.39 1862.47 3132.39 1860.78 Q3132.39 1858.03 3130.44 1856.29 Q3128.52 1854.56 3125.42 1854.56 Q3123.22 1854.56 3120.77 1855.32 Q3118.34 1856.09 3115.56 1857.64 L3115.56 1852.91 Q3118.38 1851.78 3120.84 1851.2 Q3123.29 1850.62 3125.33 1850.62 Q3130.7 1850.62 3133.89 1853.31 Q3137.09 1855.99 3137.09 1860.48 Q3137.09 1862.61 3136.28 1864.53 Q3135.49 1866.43 3133.38 1869.03 Q3132.81 1869.7 3129.7 1872.91 Q3126.6 1876.11 3120.95 1881.87 Z" fill="#000000" fill-rule="evenodd" fill-opacity="1" /><path clip-path="url(#clip880)" d="M3695.34 1867.17 Q3698.7 1867.89 3700.57 1870.16 Q3702.47 1872.43 3702.47 1875.76 Q3702.47 1880.88 3698.95 1883.68 Q3695.43 1886.48 3688.95 1886.48 Q3686.78 1886.48 3684.46 1886.04 Q3682.17 1885.62 3679.72 1884.77 L3679.72 1880.25 Q3681.66 1881.39 3683.98 1881.97 Q3686.29 1882.54 3688.81 1882.54 Q3693.21 1882.54 3695.5 1880.81 Q3697.82 1879.07 3697.82 1875.76 Q3697.82 1872.71 3695.66 1870.99 Q3693.54 1869.26 3689.72 1869.26 L3685.69 1869.26 L3685.69 1865.41 L3689.9 1865.41 Q3693.35 1865.41 3695.18 1864.05 Q3697.01 1862.66 3697.01 1860.07 Q3697.01 1857.41 3695.11 1855.99 Q3693.23 1854.56 3689.72 1854.56 Q3687.79 1854.56 3685.6 1854.97 Q3683.4 1855.39 3680.76 1856.27 L3680.76 1852.1 Q3683.42 1851.36 3685.73 1850.99 Q3688.07 1850.62 3690.13 1850.62 Q3695.46 1850.62 3698.56 1853.05 Q3701.66 1855.46 3701.66 1859.58 Q3701.66 1862.45 3700.02 1864.44 Q3698.37 1866.41 3695.34 1867.17 Z" fill="#000000" fill-rule="evenodd" fill-opacity="1" /><polyline clip-path="url(#clip882)" style="stroke:#000000; stroke-linecap:butt; stroke-linejoin:round; stroke-width:2; stroke-opacity:0.1; fill:none" points="
  200.674,1780.65 3792.76,1780.65 
  "/>
<polyline clip-path="url(#clip882)" style="stroke:#000000; stroke-linecap:butt; stroke-linejoin:round; stroke-width:2; stroke-opacity:0.1; fill:none" points="
  200.674,1359.74 3792.76,1359.74 
  "/>
<polyline clip-path="url(#clip882)" style="stroke:#000000; stroke-linecap:butt; stroke-linejoin:round; stroke-width:2; stroke-opacity:0.1; fill:none" points="
  200.674,938.826 3792.76,938.826 
  "/>
<polyline clip-path="url(#clip882)" style="stroke:#000000; stroke-linecap:butt; stroke-linejoin:round; stroke-width:2; stroke-opacity:0.1; fill:none" points="
  200.674,517.914 3792.76,517.914 
  "/>
<polyline clip-path="url(#clip882)" style="stroke:#000000; stroke-linecap:butt; stroke-linejoin:round; stroke-width:2; stroke-opacity:0.1; fill:none" points="
  200.674,97.0023 3792.76,97.0023 
  "/>
<polyline clip-path="url(#clip880)" style="stroke:#000000; stroke-linecap:butt; stroke-linejoin:round; stroke-width:4; stroke-opacity:1; fill:none" points="
  200.674,1811.89 200.674,47.2441 
  "/>
<polyline clip-path="url(#clip880)" style="stroke:#000000; stroke-linecap:butt; stroke-linejoin:round; stroke-width:4; stroke-opacity:1; fill:none" points="
  200.674,1780.65 219.572,1780.65 
  "/>
<polyline clip-path="url(#clip880)" style="stroke:#000000; stroke-linecap:butt; stroke-linejoin:round; stroke-width:4; stroke-opacity:1; fill:none" points="
  200.674,1359.74 219.572,1359.74 
  "/>
<polyline clip-path="url(#clip880)" style="stroke:#000000; stroke-linecap:butt; stroke-linejoin:round; stroke-width:4; stroke-opacity:1; fill:none" points="
  200.674,938.826 219.572,938.826 
  "/>
<polyline clip-path="url(#clip880)" style="stroke:#000000; stroke-linecap:butt; stroke-linejoin:round; stroke-width:4; stroke-opacity:1; fill:none" points="
  200.674,517.914 219.572,517.914 
  "/>
<polyline clip-path="url(#clip880)" style="stroke:#000000; stroke-linecap:butt; stroke-linejoin:round; stroke-width:4; stroke-opacity:1; fill:none" points="
  200.674,97.0023 219.572,97.0023 
  "/>
<path clip-path="url(#clip880)" d="M55.7365 1766.45 Q52.1254 1766.45 50.2967 1770.01 Q48.4912 1773.55 48.4912 1780.68 Q48.4912 1787.79 50.2967 1791.35 Q52.1254 1794.9 55.7365 1794.9 Q59.3707 1794.9 61.1763 1791.35 Q63.005 1787.79 63.005 1780.68 Q63.005 1773.55 61.1763 1770.01 Q59.3707 1766.45 55.7365 1766.45 M55.7365 1762.74 Q61.5467 1762.74 64.6022 1767.35 Q67.6809 1771.93 67.6809 1780.68 Q67.6809 1789.41 64.6022 1794.02 Q61.5467 1798.6 55.7365 1798.6 Q49.9264 1798.6 46.8477 1794.02 Q43.7921 1789.41 43.7921 1780.68 Q43.7921 1771.93 46.8477 1767.35 Q49.9264 1762.74 55.7365 1762.74 Z" fill="#000000" fill-rule="evenodd" fill-opacity="1" /><path clip-path="url(#clip880)" d="M75.8984 1792.05 L80.7827 1792.05 L80.7827 1797.93 L75.8984 1797.93 L75.8984 1792.05 Z" fill="#000000" fill-rule="evenodd" fill-opacity="1" /><path clip-path="url(#clip880)" d="M100.968 1766.45 Q97.3567 1766.45 95.528 1770.01 Q93.7224 1773.55 93.7224 1780.68 Q93.7224 1787.79 95.528 1791.35 Q97.3567 1794.9 100.968 1794.9 Q104.602 1794.9 106.408 1791.35 Q108.236 1787.79 108.236 1780.68 Q108.236 1773.55 106.408 1770.01 Q104.602 1766.45 100.968 1766.45 M100.968 1762.74 Q106.778 1762.74 109.833 1767.35 Q112.912 1771.93 112.912 1780.68 Q112.912 1789.41 109.833 1794.02 Q106.778 1798.6 100.968 1798.6 Q95.1576 1798.6 92.0789 1794.02 Q89.0234 1789.41 89.0234 1780.68 Q89.0234 1771.93 92.0789 1767.35 Q95.1576 1762.74 100.968 1762.74 Z" fill="#000000" fill-rule="evenodd" fill-opacity="1" /><path clip-path="url(#clip880)" d="M131.13 1766.45 Q127.519 1766.45 125.69 1770.01 Q123.884 1773.55 123.884 1780.68 Q123.884 1787.79 125.69 1791.35 Q127.519 1794.9 131.13 1794.9 Q134.764 1794.9 136.569 1791.35 Q138.398 1787.79 138.398 1780.68 Q138.398 1773.55 136.569 1770.01 Q134.764 1766.45 131.13 1766.45 M131.13 1762.74 Q136.94 1762.74 139.995 1767.35 Q143.074 1771.93 143.074 1780.68 Q143.074 1789.41 139.995 1794.02 Q136.94 1798.6 131.13 1798.6 Q125.319 1798.6 122.241 1794.02 Q119.185 1789.41 119.185 1780.68 Q119.185 1771.93 122.241 1767.35 Q125.319 1762.74 131.13 1762.74 Z" fill="#000000" fill-rule="evenodd" fill-opacity="1" /><path clip-path="url(#clip880)" d="M56.7319 1345.54 Q53.1208 1345.54 51.2921 1349.1 Q49.4865 1352.64 49.4865 1359.77 Q49.4865 1366.88 51.2921 1370.44 Q53.1208 1373.98 56.7319 1373.98 Q60.3661 1373.98 62.1717 1370.44 Q64.0004 1366.88 64.0004 1359.77 Q64.0004 1352.64 62.1717 1349.1 Q60.3661 1345.54 56.7319 1345.54 M56.7319 1341.83 Q62.542 1341.83 65.5976 1346.44 Q68.6763 1351.02 68.6763 1359.77 Q68.6763 1368.5 65.5976 1373.11 Q62.542 1377.69 56.7319 1377.69 Q50.9217 1377.69 47.843 1373.11 Q44.7875 1368.5 44.7875 1359.77 Q44.7875 1351.02 47.843 1346.44 Q50.9217 1341.83 56.7319 1341.83 Z" fill="#000000" fill-rule="evenodd" fill-opacity="1" /><path clip-path="url(#clip880)" d="M76.8938 1371.14 L81.778 1371.14 L81.778 1377.02 L76.8938 1377.02 L76.8938 1371.14 Z" fill="#000000" fill-rule="evenodd" fill-opacity="1" /><path clip-path="url(#clip880)" d="M95.9909 1373.08 L112.31 1373.08 L112.31 1377.02 L90.366 1377.02 L90.366 1373.08 Q93.028 1370.33 97.6113 1365.7 Q102.218 1361.05 103.398 1359.7 Q105.644 1357.18 106.523 1355.44 Q107.426 1353.68 107.426 1351.99 Q107.426 1349.24 105.482 1347.5 Q103.56 1345.77 100.458 1345.77 Q98.2594 1345.77 95.8057 1346.53 Q93.3752 1347.3 90.5974 1348.85 L90.5974 1344.12 Q93.4215 1342.99 95.8752 1342.41 Q98.3289 1341.83 100.366 1341.83 Q105.736 1341.83 108.931 1344.52 Q112.125 1347.2 112.125 1351.69 Q112.125 1353.82 111.315 1355.74 Q110.528 1357.64 108.421 1360.23 Q107.843 1360.91 104.741 1364.12 Q101.639 1367.32 95.9909 1373.08 Z" fill="#000000" fill-rule="evenodd" fill-opacity="1" /><path clip-path="url(#clip880)" d="M122.171 1342.46 L140.528 1342.46 L140.528 1346.39 L126.454 1346.39 L126.454 1354.86 Q127.472 1354.52 128.491 1354.36 Q129.509 1354.17 130.528 1354.17 Q136.315 1354.17 139.694 1357.34 Q143.074 1360.51 143.074 1365.93 Q143.074 1371.51 139.602 1374.61 Q136.13 1377.69 129.81 1377.69 Q127.634 1377.69 125.366 1377.32 Q123.12 1376.95 120.713 1376.21 L120.713 1371.51 Q122.796 1372.64 125.019 1373.2 Q127.241 1373.75 129.718 1373.75 Q133.722 1373.75 136.06 1371.65 Q138.398 1369.54 138.398 1365.93 Q138.398 1362.32 136.06 1360.21 Q133.722 1358.11 129.718 1358.11 Q127.843 1358.11 125.968 1358.52 Q124.116 1358.94 122.171 1359.82 L122.171 1342.46 Z" fill="#000000" fill-rule="evenodd" fill-opacity="1" /><path clip-path="url(#clip880)" d="M55.7365 924.624 Q52.1254 924.624 50.2967 928.189 Q48.4912 931.731 48.4912 938.86 Q48.4912 945.967 50.2967 949.531 Q52.1254 953.073 55.7365 953.073 Q59.3707 953.073 61.1763 949.531 Q63.005 945.967 63.005 938.86 Q63.005 931.731 61.1763 928.189 Q59.3707 924.624 55.7365 924.624 M55.7365 920.921 Q61.5467 920.921 64.6022 925.527 Q67.6809 930.11 67.6809 938.86 Q67.6809 947.587 64.6022 952.194 Q61.5467 956.777 55.7365 956.777 Q49.9264 956.777 46.8477 952.194 Q43.7921 947.587 43.7921 938.86 Q43.7921 930.11 46.8477 925.527 Q49.9264 920.921 55.7365 920.921 Z" fill="#000000" fill-rule="evenodd" fill-opacity="1" /><path clip-path="url(#clip880)" d="M75.8984 950.226 L80.7827 950.226 L80.7827 956.106 L75.8984 956.106 L75.8984 950.226 Z" fill="#000000" fill-rule="evenodd" fill-opacity="1" /><path clip-path="url(#clip880)" d="M91.0141 921.546 L109.37 921.546 L109.37 925.481 L95.2965 925.481 L95.2965 933.953 Q96.315 933.606 97.3335 933.444 Q98.352 933.258 99.3705 933.258 Q105.158 933.258 108.537 936.43 Q111.917 939.601 111.917 945.018 Q111.917 950.596 108.445 953.698 Q104.972 956.777 98.6529 956.777 Q96.477 956.777 94.2085 956.406 Q91.9632 956.036 89.5558 955.295 L89.5558 950.596 Q91.6391 951.731 93.8613 952.286 Q96.0835 952.842 98.5604 952.842 Q102.565 952.842 104.903 950.735 Q107.241 948.629 107.241 945.018 Q107.241 941.407 104.903 939.3 Q102.565 937.194 98.5604 937.194 Q96.6854 937.194 94.8104 937.61 Q92.9585 938.027 91.0141 938.907 L91.0141 921.546 Z" fill="#000000" fill-rule="evenodd" fill-opacity="1" /><path clip-path="url(#clip880)" d="M131.13 924.624 Q127.519 924.624 125.69 928.189 Q123.884 931.731 123.884 938.86 Q123.884 945.967 125.69 949.531 Q127.519 953.073 131.13 953.073 Q134.764 953.073 136.569 949.531 Q138.398 945.967 138.398 938.86 Q138.398 931.731 136.569 928.189 Q134.764 924.624 131.13 924.624 M131.13 920.921 Q136.94 920.921 139.995 925.527 Q143.074 930.11 143.074 938.86 Q143.074 947.587 139.995 952.194 Q136.94 956.777 131.13 956.777 Q125.319 956.777 122.241 952.194 Q119.185 947.587 119.185 938.86 Q119.185 930.11 122.241 925.527 Q125.319 920.921 131.13 920.921 Z" fill="#000000" fill-rule="evenodd" fill-opacity="1" /><path clip-path="url(#clip880)" d="M56.7319 503.713 Q53.1208 503.713 51.2921 507.277 Q49.4865 510.819 49.4865 517.949 Q49.4865 525.055 51.2921 528.62 Q53.1208 532.162 56.7319 532.162 Q60.3661 532.162 62.1717 528.62 Q64.0004 525.055 64.0004 517.949 Q64.0004 510.819 62.1717 507.277 Q60.3661 503.713 56.7319 503.713 M56.7319 500.009 Q62.542 500.009 65.5976 504.615 Q68.6763 509.199 68.6763 517.949 Q68.6763 526.675 65.5976 531.282 Q62.542 535.865 56.7319 535.865 Q50.9217 535.865 47.843 531.282 Q44.7875 526.675 44.7875 517.949 Q44.7875 509.199 47.843 504.615 Q50.9217 500.009 56.7319 500.009 Z" fill="#000000" fill-rule="evenodd" fill-opacity="1" /><path clip-path="url(#clip880)" d="M76.8938 529.314 L81.778 529.314 L81.778 535.194 L76.8938 535.194 L76.8938 529.314 Z" fill="#000000" fill-rule="evenodd" fill-opacity="1" /><path clip-path="url(#clip880)" d="M90.7826 500.634 L113.005 500.634 L113.005 502.625 L100.458 535.194 L95.5743 535.194 L107.38 504.569 L90.7826 504.569 L90.7826 500.634 Z" fill="#000000" fill-rule="evenodd" fill-opacity="1" /><path clip-path="url(#clip880)" d="M122.171 500.634 L140.528 500.634 L140.528 504.569 L126.454 504.569 L126.454 513.041 Q127.472 512.694 128.491 512.532 Q129.509 512.347 130.528 512.347 Q136.315 512.347 139.694 515.518 Q143.074 518.689 143.074 524.106 Q143.074 529.685 139.602 532.787 Q136.13 535.865 129.81 535.865 Q127.634 535.865 125.366 535.495 Q123.12 535.124 120.713 534.384 L120.713 529.685 Q122.796 530.819 125.019 531.374 Q127.241 531.93 129.718 531.93 Q133.722 531.93 136.06 529.824 Q138.398 527.717 138.398 524.106 Q138.398 520.495 136.06 518.388 Q133.722 516.282 129.718 516.282 Q127.843 516.282 125.968 516.699 Q124.116 517.115 122.171 517.995 L122.171 500.634 Z" fill="#000000" fill-rule="evenodd" fill-opacity="1" /><path clip-path="url(#clip880)" d="M46.5467 110.347 L54.1856 110.347 L54.1856 83.9815 L45.8754 85.6482 L45.8754 81.389 L54.1393 79.7223 L58.8152 79.7223 L58.8152 110.347 L66.454 110.347 L66.454 114.282 L46.5467 114.282 L46.5467 110.347 Z" fill="#000000" fill-rule="evenodd" fill-opacity="1" /><path clip-path="url(#clip880)" d="M75.8984 108.403 L80.7827 108.403 L80.7827 114.282 L75.8984 114.282 L75.8984 108.403 Z" fill="#000000" fill-rule="evenodd" fill-opacity="1" /><path clip-path="url(#clip880)" d="M100.968 82.801 Q97.3567 82.801 95.528 86.3658 Q93.7224 89.9074 93.7224 97.037 Q93.7224 104.143 95.528 107.708 Q97.3567 111.25 100.968 111.25 Q104.602 111.25 106.408 107.708 Q108.236 104.143 108.236 97.037 Q108.236 89.9074 106.408 86.3658 Q104.602 82.801 100.968 82.801 M100.968 79.0973 Q106.778 79.0973 109.833 83.7038 Q112.912 88.2871 112.912 97.037 Q112.912 105.764 109.833 110.37 Q106.778 114.954 100.968 114.954 Q95.1576 114.954 92.0789 110.37 Q89.0234 105.764 89.0234 97.037 Q89.0234 88.2871 92.0789 83.7038 Q95.1576 79.0973 100.968 79.0973 Z" fill="#000000" fill-rule="evenodd" fill-opacity="1" /><path clip-path="url(#clip880)" d="M131.13 82.801 Q127.519 82.801 125.69 86.3658 Q123.884 89.9074 123.884 97.037 Q123.884 104.143 125.69 107.708 Q127.519 111.25 131.13 111.25 Q134.764 111.25 136.569 107.708 Q138.398 104.143 138.398 97.037 Q138.398 89.9074 136.569 86.3658 Q134.764 82.801 131.13 82.801 M131.13 79.0973 Q136.94 79.0973 139.995 83.7038 Q143.074 88.2871 143.074 97.037 Q143.074 105.764 139.995 110.37 Q136.94 114.954 131.13 114.954 Q125.319 114.954 122.241 110.37 Q119.185 105.764 119.185 97.037 Q119.185 88.2871 122.241 83.7038 Q125.319 79.0973 131.13 79.0973 Z" fill="#000000" fill-rule="evenodd" fill-opacity="1" /><polyline clip-path="url(#clip882)" style="stroke:#009af9; stroke-linecap:butt; stroke-linejoin:round; stroke-width:4; stroke-opacity:1; fill:none" points="
  302.337,1761.95 318.884,1760.24 335.431,1758.39 488.432,1733.05 641.432,1686.05 687.406,1666.02 733.379,1642.68 779.353,1615.67 825.327,1584.68 903.067,1522.39 
  980.807,1446.69 1065.25,1348.5 1149.7,1233.79 1227.56,1114.57 1305.41,984.625 1388.88,837.15 1472.34,686.511 1569.05,516.655 1665.75,362.619 1708.72,302.253 
  1751.69,248.215 1794.66,201.368 1837.63,162.483 1875.31,135.453 1912.99,115.4 1950.67,102.588 1988.35,97.1868 2029.43,99.8252 2070.52,111.315 2111.6,131.475 
  2152.68,159.989 2194.01,196.653 2235.33,240.754 2276.66,291.621 2317.99,348.496 2409.37,491.408 2500.75,650.047 2587.7,806.788 2674.65,961.445 2765.05,1113.25 
  2855.46,1250.68 2931.56,1352.76 3007.66,1441.39 3100.58,1531.32 3193.49,1602.3 3280.83,1653.66 3368.17,1692.37 3508.1,1733.74 3648.03,1757.21 3669.56,1759.69 
  3691.09,1761.95 
  "/>
<path clip-path="url(#clip880)" d="
M3236.59 209.746 L3673.02 209.746 L3673.02 106.066 L3236.59 106.066  Z
  " fill="#ffffff" fill-rule="evenodd" fill-opacity="1"/>
<polyline clip-path="url(#clip880)" style="stroke:#000000; stroke-linecap:butt; stroke-linejoin:round; stroke-width:4; stroke-opacity:1; fill:none" points="
  3236.59,209.746 3673.02,209.746 3673.02,106.066 3236.59,106.066 3236.59,209.746 
  "/>
<polyline clip-path="url(#clip880)" style="stroke:#009af9; stroke-linecap:butt; stroke-linejoin:round; stroke-width:4; stroke-opacity:1; fill:none" points="
  3274.99,157.906 3505.39,157.906 
  "/>
<path clip-path="url(#clip880)" d="M3557.63 177.593 Q3555.83 182.223 3554.11 183.635 Q3552.4 185.047 3549.53 185.047 L3546.13 185.047 L3546.13 181.482 L3548.63 181.482 Q3550.39 181.482 3551.36 180.648 Q3552.33 179.815 3553.51 176.713 L3554.28 174.769 L3543.79 149.26 L3548.3 149.26 L3556.41 169.537 L3564.51 149.26 L3569.02 149.26 L3557.63 177.593 Z" fill="#000000" fill-rule="evenodd" fill-opacity="1" /><path clip-path="url(#clip880)" d="M3576.31 171.25 L3583.95 171.25 L3583.95 144.885 L3575.64 146.551 L3575.64 142.292 L3583.91 140.626 L3588.58 140.626 L3588.58 171.25 L3596.22 171.25 L3596.22 175.186 L3576.31 175.186 L3576.31 171.25 Z" fill="#000000" fill-rule="evenodd" fill-opacity="1" /></svg>
