<?xml version="1.0" encoding="utf-8"?>
<svg xmlns="http://www.w3.org/2000/svg" xmlns:xlink="http://www.w3.org/1999/xlink" width="960" height="480" viewBox="0 0 3840 1920">
<defs>
  <clipPath id="clip040">
    <rect x="0" y="0" width="3840" height="1920"/>
  </clipPath>
</defs>
<path clip-path="url(#clip040)" d="
M0 1920 L3840 1920 L3840 0 L0 0  Z
  " fill="#ffffff" fill-rule="evenodd" fill-opacity="1"/>
<defs>
  <clipPath id="clip041">
    <rect x="768" y="0" width="2689" height="1920"/>
  </clipPath>
</defs>
<path clip-path="url(#clip040)" d="
M193.267 1811.89 L3792.76 1811.89 L3792.76 47.2441 L193.267 47.2441  Z
  " fill="#ffffff" fill-rule="evenodd" fill-opacity="1"/>
<defs>
  <clipPath id="clip042">
    <rect x="193" y="47" width="3600" height="1766"/>
  </clipPath>
</defs>
<polyline clip-path="url(#clip042)" style="stroke:#000000; stroke-linecap:butt; stroke-linejoin:round; stroke-width:2; stroke-opacity:0.1; fill:none" points="
  295.139,1811.89 295.139,47.2441 
  "/>
<polyline clip-path="url(#clip042)" style="stroke:#000000; stroke-linecap:butt; stroke-linejoin:round; stroke-width:2; stroke-opacity:0.1; fill:none" points="
  1144.08,1811.89 1144.08,47.2441 
  "/>
<polyline clip-path="url(#clip042)" style="stroke:#000000; stroke-linecap:butt; stroke-linejoin:round; stroke-width:2; stroke-opacity:0.1; fill:none" points="
  1993.01,1811.89 1993.01,47.2441 
  "/>
<polyline clip-path="url(#clip042)" style="stroke:#000000; stroke-linecap:butt; stroke-linejoin:round; stroke-width:2; stroke-opacity:0.1; fill:none" points="
  2841.95,1811.89 2841.95,47.2441 
  "/>
<polyline clip-path="url(#clip042)" style="stroke:#000000; stroke-linecap:butt; stroke-linejoin:round; stroke-width:2; stroke-opacity:0.1; fill:none" points="
  3690.88,1811.89 3690.88,47.2441 
  "/>
<polyline clip-path="url(#clip040)" style="stroke:#000000; stroke-linecap:butt; stroke-linejoin:round; stroke-width:4; stroke-opacity:1; fill:none" points="
  193.267,1811.89 3792.76,1811.89 
  "/>
<polyline clip-path="url(#clip040)" style="stroke:#000000; stroke-linecap:butt; stroke-linejoin:round; stroke-width:4; stroke-opacity:1; fill:none" points="
  295.139,1811.89 295.139,1792.99 
  "/>
<polyline clip-path="url(#clip040)" style="stroke:#000000; stroke-linecap:butt; stroke-linejoin:round; stroke-width:4; stroke-opacity:1; fill:none" points="
  1144.08,1811.89 1144.08,1792.99 
  "/>
<polyline clip-path="url(#clip040)" style="stroke:#000000; stroke-linecap:butt; stroke-linejoin:round; stroke-width:4; stroke-opacity:1; fill:none" points="
  1993.01,1811.89 1993.01,1792.99 
  "/>
<polyline clip-path="url(#clip040)" style="stroke:#000000; stroke-linecap:butt; stroke-linejoin:round; stroke-width:4; stroke-opacity:1; fill:none" points="
  2841.95,1811.89 2841.95,1792.99 
  "/>
<polyline clip-path="url(#clip040)" style="stroke:#000000; stroke-linecap:butt; stroke-linejoin:round; stroke-width:4; stroke-opacity:1; fill:none" points="
  3690.88,1811.89 3690.88,1792.99 
  "/>
<path clip-path="url(#clip040)" d="M241.667 1868.98 L271.343 1868.98 L271.343 1872.91 L241.667 1872.91 L241.667 1868.98 Z" fill="#000000" fill-rule="evenodd" fill-opacity="1" /><path clip-path="url(#clip040)" d="M282.246 1881.87 L289.884 1881.87 L289.884 1855.51 L281.574 1857.17 L281.574 1852.91 L289.838 1851.25 L294.514 1851.25 L294.514 1881.87 L302.153 1881.87 L302.153 1885.81 L282.246 1885.81 L282.246 1881.87 Z" fill="#000000" fill-rule="evenodd" fill-opacity="1" /><path clip-path="url(#clip040)" d="M311.597 1879.93 L316.481 1879.93 L316.481 1885.81 L311.597 1885.81 L311.597 1879.93 Z" fill="#000000" fill-rule="evenodd" fill-opacity="1" /><path clip-path="url(#clip040)" d="M336.667 1854.33 Q333.055 1854.33 331.227 1857.89 Q329.421 1861.43 329.421 1868.56 Q329.421 1875.67 331.227 1879.23 Q333.055 1882.78 336.667 1882.78 Q340.301 1882.78 342.106 1879.23 Q343.935 1875.67 343.935 1868.56 Q343.935 1861.43 342.106 1857.89 Q340.301 1854.33 336.667 1854.33 M336.667 1850.62 Q342.477 1850.62 345.532 1855.23 Q348.611 1859.81 348.611 1868.56 Q348.611 1877.29 345.532 1881.9 Q342.477 1886.48 336.667 1886.48 Q330.856 1886.48 327.778 1881.9 Q324.722 1877.29 324.722 1868.56 Q324.722 1859.81 327.778 1855.23 Q330.856 1850.62 336.667 1850.62 Z" fill="#000000" fill-rule="evenodd" fill-opacity="1" /><path clip-path="url(#clip040)" d="M1091.1 1868.98 L1120.78 1868.98 L1120.78 1872.91 L1091.1 1872.91 L1091.1 1868.98 Z" fill="#000000" fill-rule="evenodd" fill-opacity="1" /><path clip-path="url(#clip040)" d="M1140.87 1854.33 Q1137.26 1854.33 1135.43 1857.89 Q1133.62 1861.43 1133.62 1868.56 Q1133.62 1875.67 1135.43 1879.23 Q1137.26 1882.78 1140.87 1882.78 Q1144.5 1882.78 1146.31 1879.23 Q1148.14 1875.67 1148.14 1868.56 Q1148.14 1861.43 1146.31 1857.89 Q1144.5 1854.33 1140.87 1854.33 M1140.87 1850.62 Q1146.68 1850.62 1149.73 1855.23 Q1152.81 1859.81 1152.81 1868.56 Q1152.81 1877.29 1149.73 1881.9 Q1146.68 1886.48 1140.87 1886.48 Q1135.06 1886.48 1131.98 1881.9 Q1128.92 1877.29 1128.92 1868.56 Q1128.92 1859.81 1131.98 1855.23 Q1135.06 1850.62 1140.87 1850.62 Z" fill="#000000" fill-rule="evenodd" fill-opacity="1" /><path clip-path="url(#clip040)" d="M1161.03 1879.93 L1165.92 1879.93 L1165.92 1885.81 L1161.03 1885.81 L1161.03 1879.93 Z" fill="#000000" fill-rule="evenodd" fill-opacity="1" /><path clip-path="url(#clip040)" d="M1176.15 1851.25 L1194.5 1851.25 L1194.5 1855.18 L1180.43 1855.18 L1180.43 1863.66 Q1181.45 1863.31 1182.47 1863.15 Q1183.48 1862.96 1184.5 1862.96 Q1190.29 1862.96 1193.67 1866.13 Q1197.05 1869.3 1197.05 1874.72 Q1197.05 1880.3 1193.58 1883.4 Q1190.1 1886.48 1183.79 1886.48 Q1181.61 1886.48 1179.34 1886.11 Q1177.1 1885.74 1174.69 1885 L1174.69 1880.3 Q1176.77 1881.43 1178.99 1881.99 Q1181.22 1882.54 1183.69 1882.54 Q1187.7 1882.54 1190.04 1880.44 Q1192.37 1878.33 1192.37 1874.72 Q1192.37 1871.11 1190.04 1869 Q1187.7 1866.9 1183.69 1866.9 Q1181.82 1866.9 1179.94 1867.31 Q1178.09 1867.73 1176.15 1868.61 L1176.15 1851.25 Z" fill="#000000" fill-rule="evenodd" fill-opacity="1" /><path clip-path="url(#clip040)" d="M1970.4 1854.33 Q1966.78 1854.33 1964.96 1857.89 Q1963.15 1861.43 1963.15 1868.56 Q1963.15 1875.67 1964.96 1879.23 Q1966.78 1882.78 1970.4 1882.78 Q1974.03 1882.78 1975.84 1879.23 Q1977.66 1875.67 1977.66 1868.56 Q1977.66 1861.43 1975.84 1857.89 Q1974.03 1854.33 1970.4 1854.33 M1970.4 1850.62 Q1976.21 1850.62 1979.26 1855.23 Q1982.34 1859.81 1982.34 1868.56 Q1982.34 1877.29 1979.26 1881.9 Q1976.21 1886.48 1970.4 1886.48 Q1964.59 1886.48 1961.51 1881.9 Q1958.45 1877.29 1958.45 1868.56 Q1958.45 1859.81 1961.51 1855.23 Q1964.59 1850.62 1970.4 1850.62 Z" fill="#000000" fill-rule="evenodd" fill-opacity="1" /><path clip-path="url(#clip040)" d="M1990.56 1879.93 L1995.44 1879.93 L1995.44 1885.81 L1990.56 1885.81 L1990.56 1879.93 Z" fill="#000000" fill-rule="evenodd" fill-opacity="1" /><path clip-path="url(#clip040)" d="M2015.63 1854.33 Q2012.02 1854.33 2010.19 1857.89 Q2008.38 1861.43 2008.38 1868.56 Q2008.38 1875.67 2010.19 1879.23 Q2012.02 1882.78 2015.63 1882.78 Q2019.26 1882.78 2021.07 1879.23 Q2022.9 1875.67 2022.9 1868.56 Q2022.9 1861.43 2021.07 1857.89 Q2019.26 1854.33 2015.63 1854.33 M2015.63 1850.62 Q2021.44 1850.62 2024.49 1855.23 Q2027.57 1859.81 2027.57 1868.56 Q2027.57 1877.29 2024.49 1881.9 Q2021.44 1886.48 2015.63 1886.48 Q2009.82 1886.48 2006.74 1881.9 Q2003.68 1877.29 2003.68 1868.56 Q2003.68 1859.81 2006.74 1855.23 Q2009.82 1850.62 2015.63 1850.62 Z" fill="#000000" fill-rule="evenodd" fill-opacity="1" /><path clip-path="url(#clip040)" d="M2819.83 1854.33 Q2816.22 1854.33 2814.39 1857.89 Q2812.58 1861.43 2812.58 1868.56 Q2812.58 1875.67 2814.39 1879.23 Q2816.22 1882.78 2819.83 1882.78 Q2823.46 1882.78 2825.27 1879.23 Q2827.1 1875.67 2827.1 1868.56 Q2827.1 1861.43 2825.27 1857.89 Q2823.46 1854.33 2819.83 1854.33 M2819.83 1850.62 Q2825.64 1850.62 2828.7 1855.23 Q2831.77 1859.81 2831.77 1868.56 Q2831.77 1877.29 2828.7 1881.9 Q2825.64 1886.48 2819.83 1886.48 Q2814.02 1886.48 2810.94 1881.9 Q2807.89 1877.29 2807.89 1868.56 Q2807.89 1859.81 2810.94 1855.23 Q2814.02 1850.62 2819.83 1850.62 Z" fill="#000000" fill-rule="evenodd" fill-opacity="1" /><path clip-path="url(#clip040)" d="M2839.99 1879.93 L2844.88 1879.93 L2844.88 1885.81 L2839.99 1885.81 L2839.99 1879.93 Z" fill="#000000" fill-rule="evenodd" fill-opacity="1" /><path clip-path="url(#clip040)" d="M2855.11 1851.25 L2873.46 1851.25 L2873.46 1855.18 L2859.39 1855.18 L2859.39 1863.66 Q2860.41 1863.31 2861.43 1863.15 Q2862.44 1862.96 2863.46 1862.96 Q2869.25 1862.96 2872.63 1866.13 Q2876.01 1869.3 2876.01 1874.72 Q2876.01 1880.3 2872.54 1883.4 Q2869.07 1886.48 2862.75 1886.48 Q2860.57 1886.48 2858.3 1886.11 Q2856.06 1885.74 2853.65 1885 L2853.65 1880.3 Q2855.73 1881.43 2857.95 1881.99 Q2860.18 1882.54 2862.65 1882.54 Q2866.66 1882.54 2869 1880.44 Q2871.33 1878.33 2871.33 1874.72 Q2871.33 1871.11 2869 1869 Q2866.66 1866.9 2862.65 1866.9 Q2860.78 1866.9 2858.9 1867.31 Q2857.05 1867.73 2855.11 1868.61 L2855.11 1851.25 Z" fill="#000000" fill-rule="evenodd" fill-opacity="1" /><path clip-path="url(#clip040)" d="M3658.04 1881.87 L3665.68 1881.87 L3665.68 1855.51 L3657.37 1857.17 L3657.37 1852.91 L3665.63 1851.25 L3670.3 1851.25 L3670.3 1881.87 L3677.94 1881.87 L3677.94 1885.81 L3658.04 1885.81 L3658.04 1881.87 Z" fill="#000000" fill-rule="evenodd" fill-opacity="1" /><path clip-path="url(#clip040)" d="M3687.39 1879.93 L3692.27 1879.93 L3692.27 1885.81 L3687.39 1885.81 L3687.39 1879.93 Z" fill="#000000" fill-rule="evenodd" fill-opacity="1" /><path clip-path="url(#clip040)" d="M3712.46 1854.33 Q3708.85 1854.33 3707.02 1857.89 Q3705.21 1861.43 3705.21 1868.56 Q3705.21 1875.67 3707.02 1879.23 Q3708.85 1882.78 3712.46 1882.78 Q3716.09 1882.78 3717.9 1879.23 Q3719.73 1875.67 3719.73 1868.56 Q3719.73 1861.43 3717.9 1857.89 Q3716.09 1854.33 3712.46 1854.33 M3712.46 1850.62 Q3718.27 1850.62 3721.32 1855.23 Q3724.4 1859.81 3724.4 1868.56 Q3724.4 1877.29 3721.32 1881.9 Q3718.27 1886.48 3712.46 1886.48 Q3706.65 1886.48 3703.57 1881.9 Q3700.51 1877.29 3700.51 1868.56 Q3700.51 1859.81 3703.57 1855.23 Q3706.65 1850.62 3712.46 1850.62 Z" fill="#000000" fill-rule="evenodd" fill-opacity="1" /><polyline clip-path="url(#clip042)" style="stroke:#000000; stroke-linecap:butt; stroke-linejoin:round; stroke-width:2; stroke-opacity:0.1; fill:none" points="
  193.267,1763.74 3792.76,1763.74 
  "/>
<polyline clip-path="url(#clip042)" style="stroke:#000000; stroke-linecap:butt; stroke-linejoin:round; stroke-width:2; stroke-opacity:0.1; fill:none" points="
  193.267,1345.54 3792.76,1345.54 
  "/>
<polyline clip-path="url(#clip042)" style="stroke:#000000; stroke-linecap:butt; stroke-linejoin:round; stroke-width:2; stroke-opacity:0.1; fill:none" points="
  193.267,927.342 3792.76,927.342 
  "/>
<polyline clip-path="url(#clip042)" style="stroke:#000000; stroke-linecap:butt; stroke-linejoin:round; stroke-width:2; stroke-opacity:0.1; fill:none" points="
  193.267,509.143 3792.76,509.143 
  "/>
<polyline clip-path="url(#clip042)" style="stroke:#000000; stroke-linecap:butt; stroke-linejoin:round; stroke-width:2; stroke-opacity:0.1; fill:none" points="
  193.267,90.9441 3792.76,90.9441 
  "/>
<polyline clip-path="url(#clip040)" style="stroke:#000000; stroke-linecap:butt; stroke-linejoin:round; stroke-width:4; stroke-opacity:1; fill:none" points="
  193.267,1811.89 193.267,47.2441 
  "/>
<polyline clip-path="url(#clip040)" style="stroke:#000000; stroke-linecap:butt; stroke-linejoin:round; stroke-width:4; stroke-opacity:1; fill:none" points="
  193.267,1763.74 212.164,1763.74 
  "/>
<polyline clip-path="url(#clip040)" style="stroke:#000000; stroke-linecap:butt; stroke-linejoin:round; stroke-width:4; stroke-opacity:1; fill:none" points="
  193.267,1345.54 212.164,1345.54 
  "/>
<polyline clip-path="url(#clip040)" style="stroke:#000000; stroke-linecap:butt; stroke-linejoin:round; stroke-width:4; stroke-opacity:1; fill:none" points="
  193.267,927.342 212.164,927.342 
  "/>
<polyline clip-path="url(#clip040)" style="stroke:#000000; stroke-linecap:butt; stroke-linejoin:round; stroke-width:4; stroke-opacity:1; fill:none" points="
  193.267,509.143 212.164,509.143 
  "/>
<polyline clip-path="url(#clip040)" style="stroke:#000000; stroke-linecap:butt; stroke-linejoin:round; stroke-width:4; stroke-opacity:1; fill:none" points="
  193.267,90.9441 212.164,90.9441 
  "/>
<path clip-path="url(#clip040)" d="M43.7921 1764.19 L73.4679 1764.19 L73.4679 1768.13 L43.7921 1768.13 L43.7921 1764.19 Z" fill="#000000" fill-rule="evenodd" fill-opacity="1" /><path clip-path="url(#clip040)" d="M87.5882 1777.08 L103.908 1777.08 L103.908 1781.02 L81.9632 1781.02 L81.9632 1777.08 Q84.6252 1774.33 89.2085 1769.7 Q93.815 1765.05 94.9956 1763.71 Q97.2409 1761.18 98.1205 1759.45 Q99.0233 1757.69 99.0233 1756 Q99.0233 1753.24 97.0789 1751.51 Q95.1576 1749.77 92.0558 1749.77 Q89.8567 1749.77 87.403 1750.53 Q84.9725 1751.3 82.1947 1752.85 L82.1947 1748.13 Q85.0188 1746.99 87.4724 1746.41 Q89.9261 1745.83 91.9632 1745.83 Q97.3335 1745.83 100.528 1748.52 Q103.722 1751.21 103.722 1755.7 Q103.722 1757.83 102.912 1759.75 Q102.125 1761.64 100.019 1764.24 Q99.44 1764.91 96.3381 1768.13 Q93.2363 1771.32 87.5882 1777.08 Z" fill="#000000" fill-rule="evenodd" fill-opacity="1" /><path clip-path="url(#clip040)" d="M123.722 1749.54 Q120.111 1749.54 118.282 1753.1 Q116.477 1756.64 116.477 1763.77 Q116.477 1770.88 118.282 1774.45 Q120.111 1777.99 123.722 1777.99 Q127.356 1777.99 129.162 1774.45 Q130.991 1770.88 130.991 1763.77 Q130.991 1756.64 129.162 1753.1 Q127.356 1749.54 123.722 1749.54 M123.722 1745.83 Q129.532 1745.83 132.588 1750.44 Q135.667 1755.02 135.667 1763.77 Q135.667 1772.5 132.588 1777.11 Q129.532 1781.69 123.722 1781.69 Q117.912 1781.69 114.833 1777.11 Q111.778 1772.5 111.778 1763.77 Q111.778 1755.02 114.833 1750.44 Q117.912 1745.83 123.722 1745.83 Z" fill="#000000" fill-rule="evenodd" fill-opacity="1" /><path clip-path="url(#clip040)" d="M43.7921 1345.99 L73.4679 1345.99 L73.4679 1349.93 L43.7921 1349.93 L43.7921 1345.99 Z" fill="#000000" fill-rule="evenodd" fill-opacity="1" /><path clip-path="url(#clip040)" d="M84.3706 1358.89 L92.0095 1358.89 L92.0095 1332.52 L83.6993 1334.19 L83.6993 1329.93 L91.9632 1328.26 L96.6391 1328.26 L96.6391 1358.89 L104.278 1358.89 L104.278 1362.82 L84.3706 1362.82 L84.3706 1358.89 Z" fill="#000000" fill-rule="evenodd" fill-opacity="1" /><path clip-path="url(#clip040)" d="M123.722 1331.34 Q120.111 1331.34 118.282 1334.9 Q116.477 1338.45 116.477 1345.58 Q116.477 1352.68 118.282 1356.25 Q120.111 1359.79 123.722 1359.79 Q127.356 1359.79 129.162 1356.25 Q130.991 1352.68 130.991 1345.58 Q130.991 1338.45 129.162 1334.9 Q127.356 1331.34 123.722 1331.34 M123.722 1327.64 Q129.532 1327.64 132.588 1332.24 Q135.667 1336.83 135.667 1345.58 Q135.667 1354.3 132.588 1358.91 Q129.532 1363.49 123.722 1363.49 Q117.912 1363.49 114.833 1358.91 Q111.778 1354.3 111.778 1345.58 Q111.778 1336.83 114.833 1332.24 Q117.912 1327.64 123.722 1327.64 Z" fill="#000000" fill-rule="evenodd" fill-opacity="1" /><path clip-path="url(#clip040)" d="M123.722 913.141 Q120.111 913.141 118.282 916.705 Q116.477 920.247 116.477 927.377 Q116.477 934.483 118.282 938.048 Q120.111 941.59 123.722 941.59 Q127.356 941.59 129.162 938.048 Q130.991 934.483 130.991 927.377 Q130.991 920.247 129.162 916.705 Q127.356 913.141 123.722 913.141 M123.722 909.437 Q129.532 909.437 132.588 914.043 Q135.667 918.627 135.667 927.377 Q135.667 936.103 132.588 940.71 Q129.532 945.293 123.722 945.293 Q117.912 945.293 114.833 940.71 Q111.778 936.103 111.778 927.377 Q111.778 918.627 114.833 914.043 Q117.912 909.437 123.722 909.437 Z" fill="#000000" fill-rule="evenodd" fill-opacity="1" /><path clip-path="url(#clip040)" d="M84.3706 522.488 L92.0095 522.488 L92.0095 496.122 L83.6993 497.789 L83.6993 493.53 L91.9632 491.863 L96.6391 491.863 L96.6391 522.488 L104.278 522.488 L104.278 526.423 L84.3706 526.423 L84.3706 522.488 Z" fill="#000000" fill-rule="evenodd" fill-opacity="1" /><path clip-path="url(#clip040)" d="M123.722 494.942 Q120.111 494.942 118.282 498.507 Q116.477 502.048 116.477 509.178 Q116.477 516.284 118.282 519.849 Q120.111 523.391 123.722 523.391 Q127.356 523.391 129.162 519.849 Q130.991 516.284 130.991 509.178 Q130.991 502.048 129.162 498.507 Q127.356 494.942 123.722 494.942 M123.722 491.238 Q129.532 491.238 132.588 495.844 Q135.667 500.428 135.667 509.178 Q135.667 517.905 132.588 522.511 Q129.532 527.094 123.722 527.094 Q117.912 527.094 114.833 522.511 Q111.778 517.905 111.778 509.178 Q111.778 500.428 114.833 495.844 Q117.912 491.238 123.722 491.238 Z" fill="#000000" fill-rule="evenodd" fill-opacity="1" /><path clip-path="url(#clip040)" d="M87.5882 104.289 L103.908 104.289 L103.908 108.224 L81.9632 108.224 L81.9632 104.289 Q84.6252 101.534 89.2085 96.9047 Q93.815 92.252 94.9956 90.9094 Q97.2409 88.3863 98.1205 86.6502 Q99.0233 84.8909 99.0233 83.2011 Q99.0233 80.4465 97.0789 78.7104 Q95.1576 76.9743 92.0558 76.9743 Q89.8567 76.9743 87.403 77.7382 Q84.9725 78.5021 82.1947 80.053 L82.1947 75.3308 Q85.0188 74.1965 87.4724 73.6178 Q89.9261 73.0391 91.9632 73.0391 Q97.3335 73.0391 100.528 75.7243 Q103.722 78.4095 103.722 82.9002 Q103.722 85.0298 102.912 86.9511 Q102.125 88.8492 100.019 91.4418 Q99.44 92.1131 96.3381 95.3307 Q93.2363 98.5251 87.5882 104.289 Z" fill="#000000" fill-rule="evenodd" fill-opacity="1" /><path clip-path="url(#clip040)" d="M123.722 76.7428 Q120.111 76.7428 118.282 80.3076 Q116.477 83.8492 116.477 90.9788 Q116.477 98.0853 118.282 101.65 Q120.111 105.192 123.722 105.192 Q127.356 105.192 129.162 101.65 Q130.991 98.0853 130.991 90.9788 Q130.991 83.8492 129.162 80.3076 Q127.356 76.7428 123.722 76.7428 M123.722 73.0391 Q129.532 73.0391 132.588 77.6456 Q135.667 82.2289 135.667 90.9788 Q135.667 99.7056 132.588 104.312 Q129.532 108.895 123.722 108.895 Q117.912 108.895 114.833 104.312 Q111.778 99.7056 111.778 90.9788 Q111.778 82.2289 114.833 77.6456 Q117.912 73.0391 123.722 73.0391 Z" fill="#000000" fill-rule="evenodd" fill-opacity="1" /><polyline clip-path="url(#clip042)" style="stroke:#009af9; stroke-linecap:butt; stroke-linejoin:round; stroke-width:4; stroke-opacity:1; fill:none" points="
  295.139,969.162 328.301,969.995 634.934,979.625 819.207,987.833 975.008,997.091 1144.25,1011 1300.28,1029.84 1383.92,1043.92 1467.56,1062.47 1516.01,1076.2 
  1564.46,1093.03 1612.91,1114.15 1661.36,1141.44 1704.42,1173.38 1747.48,1216.53 1769.01,1244.33 1790.54,1278.03 1812.07,1319.76 1833.6,1372.76 1843.04,1400.79 
  1852.48,1432.59 1861.92,1468.97 1871.36,1511 1880.8,1560.1 1890.24,1618.22 1894.96,1651.47 1899.68,1688.09 1902.04,1707.82 1904.4,1728.61 1905.58,1739.42 
  1906.76,1750.53 1907.94,1761.95 
  "/>
<polyline clip-path="url(#clip042)" style="stroke:#009af9; stroke-linecap:butt; stroke-linejoin:round; stroke-width:4; stroke-opacity:1; fill:none" points="
  2078.54,97.1868 2079.83,109.488 2081.12,121.43 2082.4,133.028 2084.98,155.251 2087.55,176.264 2097.84,250.002 2108.13,310.555 2118.42,361.171 2128.72,404.109 
  2139.01,440.993 2149.3,473.019 2170,526.169 2190.71,568.185 2211.42,602.235 2232.12,630.387 2273.53,674.225 2314.94,706.784 2360.73,734.246 2406.52,755.627 
  2452.3,772.745 2498.09,786.759 2585.21,807.442 2672.34,822.82 2853.53,844.828 3006.05,857.251 3192.25,868.134 3367.3,875.675 3647.73,884.431 3690.88,885.522 
  
  "/>
<path clip-path="url(#clip040)" d="
M3236.34 209.746 L3672.77 209.746 L3672.77 106.066 L3236.34 106.066  Z
  " fill="#ffffff" fill-rule="evenodd" fill-opacity="1"/>
<polyline clip-path="url(#clip040)" style="stroke:#000000; stroke-linecap:butt; stroke-linejoin:round; stroke-width:4; stroke-opacity:1; fill:none" points="
  3236.34,209.746 3672.77,209.746 3672.77,106.066 3236.34,106.066 3236.34,209.746 
  "/>
<polyline clip-path="url(#clip040)" style="stroke:#009af9; stroke-linecap:butt; stroke-linejoin:round; stroke-width:4; stroke-opacity:1; fill:none" points="
  3274.74,157.906 3505.14,157.906 
  "/>
<path clip-path="url(#clip040)" d="M3557.39 177.593 Q3555.58 182.223 3553.87 183.635 Q3552.15 185.047 3549.28 185.047 L3545.88 185.047 L3545.88 181.482 L3548.38 181.482 Q3550.14 181.482 3551.11 180.648 Q3552.08 179.815 3553.26 176.713 L3554.03 174.769 L3543.54 149.26 L3548.06 149.26 L3556.16 169.537 L3564.26 149.26 L3568.77 149.26 L3557.39 177.593 Z" fill="#000000" fill-rule="evenodd" fill-opacity="1" /><path clip-path="url(#clip040)" d="M3576.07 171.25 L3583.7 171.25 L3583.7 144.885 L3575.39 146.551 L3575.39 142.292 L3583.66 140.626 L3588.33 140.626 L3588.33 171.25 L3595.97 171.25 L3595.97 175.186 L3576.07 175.186 L3576.07 171.25 Z" fill="#000000" fill-rule="evenodd" fill-opacity="1" /></svg>
