<?xml version="1.0" encoding="utf-8"?>
<svg xmlns="http://www.w3.org/2000/svg" xmlns:xlink="http://www.w3.org/1999/xlink" width="960" height="480" viewBox="0 0 3840 1920">
<defs>
  <clipPath id="clip500">
    <rect x="0" y="0" width="3840" height="1920"/>
  </clipPath>
</defs>
<path clip-path="url(#clip500)" d="
M0 1920 L3840 1920 L3840 0 L0 0  Z
  " fill="#ffffff" fill-rule="evenodd" fill-opacity="1"/>
<defs>
  <clipPath id="clip501">
    <rect x="768" y="0" width="2689" height="1920"/>
  </clipPath>
</defs>
<path clip-path="url(#clip500)" d="
M193.267 1811.89 L3792.76 1811.89 L3792.76 47.2441 L193.267 47.2441  Z
  " fill="#ffffff" fill-rule="evenodd" fill-opacity="1"/>
<defs>
  <clipPath id="clip502">
    <rect x="193" y="47" width="3600" height="1766"/>
  </clipPath>
</defs>
<polyline clip-path="url(#clip502)" style="stroke:#000000; stroke-linecap:butt; stroke-linejoin:round; stroke-width:2; stroke-opacity:0.1; fill:none" points="
  295.139,1811.89 295.139,47.2441 
  "/>
<polyline clip-path="url(#clip502)" style="stroke:#000000; stroke-linecap:butt; stroke-linejoin:round; stroke-width:2; stroke-opacity:0.1; fill:none" points="
  1144.08,1811.89 1144.08,47.2441 
  "/>
<polyline clip-path="url(#clip502)" style="stroke:#000000; stroke-linecap:butt; stroke-linejoin:round; stroke-width:2; stroke-opacity:0.1; fill:none" points="
  1993.01,1811.89 1993.01,47.2441 
  "/>
<polyline clip-path="url(#clip502)" style="stroke:#000000; stroke-linecap:butt; stroke-linejoin:round; stroke-width:2; stroke-opacity:0.1; fill:none" points="
  2841.95,1811.89 2841.95,47.2441 
  "/>
<polyline clip-path="url(#clip502)" style="stroke:#000000; stroke-linecap:butt; stroke-linejoin:round; stroke-width:2; stroke-opacity:0.1; fill:none" points="
  3690.88,1811.89 3690.88,47.2441 
  "/>
<polyline clip-path="url(#clip500)" style="stroke:#000000; stroke-linecap:butt; stroke-linejoin:round; stroke-width:4; stroke-opacity:1; fill:none" points="
  193.267,1811.89 3792.76,1811.89 
  "/>
<polyline clip-path="url(#clip500)" style="stroke:#000000; stroke-linecap:butt; stroke-linejoin:round; stroke-width:4; stroke-opacity:1; fill:none" points="
  295.139,1811.89 295.139,1792.99 
  "/>
<polyline clip-path="url(#clip500)" style="stroke:#000000; stroke-linecap:butt; stroke-linejoin:round; stroke-width:4; stroke-opacity:1; fill:none" points="
  1144.08,1811.89 1144.08,1792.99 
  "/>
<polyline clip-path="url(#clip500)" style="stroke:#000000; stroke-linecap:butt; stroke-linejoin:round; stroke-width:4; stroke-opacity:1; fill:none" points="
  1993.01,1811.89 1993.01,1792.99 
  "/>
<polyline clip-path="url(#clip500)" style="stroke:#000000; stroke-linecap:butt; stroke-linejoin:round; stroke-width:4; stroke-opacity:1; fill:none" points="
  2841.95,1811.89 2841.95,1792.99 
  "/>
<polyline clip-path="url(#clip500)" style="stroke:#000000; stroke-linecap:butt; stroke-linejoin:round; stroke-width:4; stroke-opacity:1; fill:none" points="
  3690.88,1811.89 3690.88,1792.99 
  "/>
<path clip-path="url(#clip500)" d="M241.667 1868.98 L271.343 1868.98 L271.343 1872.91 L241.667 1872.91 L241.667 1868.98 Z" fill="#000000" fill-rule="evenodd" fill-opacity="1" /><path clip-path="url(#clip500)" d="M282.246 1881.87 L289.884 1881.87 L289.884 1855.51 L281.574 1857.17 L281.574 1852.91 L289.838 1851.25 L294.514 1851.25 L294.514 1881.87 L302.153 1881.87 L302.153 1885.81 L282.246 1885.81 L282.246 1881.87 Z" fill="#000000" fill-rule="evenodd" fill-opacity="1" /><path clip-path="url(#clip500)" d="M311.597 1879.93 L316.481 1879.93 L316.481 1885.81 L311.597 1885.81 L311.597 1879.93 Z" fill="#000000" fill-rule="evenodd" fill-opacity="1" /><path clip-path="url(#clip500)" d="M336.667 1854.33 Q333.055 1854.33 331.227 1857.89 Q329.421 1861.43 329.421 1868.56 Q329.421 1875.67 331.227 1879.23 Q333.055 1882.78 336.667 1882.78 Q340.301 1882.78 342.106 1879.23 Q343.935 1875.67 343.935 1868.56 Q343.935 1861.43 342.106 1857.89 Q340.301 1854.33 336.667 1854.33 M336.667 1850.62 Q342.477 1850.62 345.532 1855.23 Q348.611 1859.81 348.611 1868.56 Q348.611 1877.29 345.532 1881.9 Q342.477 1886.48 336.667 1886.48 Q330.856 1886.48 327.778 1881.9 Q324.722 1877.29 324.722 1868.56 Q324.722 1859.81 327.778 1855.23 Q330.856 1850.62 336.667 1850.62 Z" fill="#000000" fill-rule="evenodd" fill-opacity="1" /><path clip-path="url(#clip500)" d="M1091.1 1868.98 L1120.78 1868.98 L1120.78 1872.91 L1091.1 1872.91 L1091.1 1868.98 Z" fill="#000000" fill-rule="evenodd" fill-opacity="1" /><path clip-path="url(#clip500)" d="M1140.87 1854.33 Q1137.26 1854.33 1135.43 1857.89 Q1133.62 1861.43 1133.62 1868.56 Q1133.62 1875.67 1135.43 1879.23 Q1137.26 1882.78 1140.87 1882.78 Q1144.5 1882.78 1146.31 1879.23 Q1148.14 1875.67 1148.14 1868.56 Q1148.14 1861.43 1146.31 1857.89 Q1144.5 1854.33 1140.87 1854.33 M1140.87 1850.62 Q1146.68 1850.62 1149.73 1855.23 Q1152.81 1859.81 1152.81 1868.56 Q1152.81 1877.29 1149.73 1881.9 Q1146.68 1886.48 1140.87 1886.48 Q1135.06 1886.48 1131.98 1881.9 Q1128.92 1877.29 1128.92 1868.56 Q1128.92 1859.81 1131.98 1855.23 Q1135.06 1850.62 1140.87 1850.62 Z" fill="#000000" fill-rule="evenodd" fill-opacity="1" /><path clip-path="url(#clip500)" d="M1161.03 1879.93 L1165.92 1879.93 L1165.92 1885.81 L1161.03 1885.81 L1161.03 1879.93 Z" fill="#000000" fill-rule="evenodd" fill-opacity="1" /><path clip-path="url(#clip500)" d="M1176.15 1851.25 L1194.5 1851.25 L1194.5 1855.18 L1180.43 1855.18 L1180.43 1863.66 Q1181.45 1863.31 1182.47 1863.15 Q1183.48 1862.96 1184.5 1862.96 Q1190.29 1862.96 1193.67 1866.13 Q1197.05 1869.3 1197.05 1874.72 Q1197.05 1880.3 1193.58 1883.4 Q1190.1 1886.48 1183.79 1886.48 Q1181.61 1886.48 1179.34 1886.11 Q1177.1 1885.74 1174.69 1885 L1174.69 1880.3 Q1176.77 1881.43 1178.99 1881.99 Q1181.22 1882.54 1183.69 1882.54 Q1187.7 1882.54 1190.04 1880.44 Q1192.37 1878.33 1192.37 1874.72 Q1192.37 1871.11 1190.04 1869 Q1187.7 1866.9 1183.69 1866.9 Q1181.82 1866.9 1179.94 1867.31 Q1178.09 1867.73 1176.15 1868.61 L1176.15 1851.25 Z" fill="#000000" fill-rule="evenodd" fill-opacity="1" /><path clip-path="url(#clip500)" d="M1970.4 1854.33 Q1966.78 1854.33 1964.96 1857.89 Q1963.15 1861.43 1963.15 1868.56 Q1963.15 1875.67 1964.96 1879.23 Q1966.78 1882.78 1970.4 1882.78 Q1974.03 1882.78 1975.84 1879.23 Q1977.66 1875.67 1977.66 1868.56 Q1977.66 1861.43 1975.84 1857.89 Q1974.03 1854.33 1970.4 1854.33 M1970.4 1850.62 Q1976.21 1850.62 1979.26 1855.23 Q1982.34 1859.81 1982.34 1868.56 Q1982.34 1877.29 1979.26 1881.9 Q1976.21 1886.48 1970.4 1886.48 Q1964.59 1886.48 1961.51 1881.9 Q1958.45 1877.29 1958.45 1868.56 Q1958.45 1859.81 1961.51 1855.23 Q1964.59 1850.62 1970.4 1850.62 Z" fill="#000000" fill-rule="evenodd" fill-opacity="1" /><path clip-path="url(#clip500)" d="M1990.56 1879.93 L1995.44 1879.93 L1995.44 1885.81 L1990.56 1885.81 L1990.56 1879.93 Z" fill="#000000" fill-rule="evenodd" fill-opacity="1" /><path clip-path="url(#clip500)" d="M2015.63 1854.33 Q2012.02 1854.33 2010.19 1857.89 Q2008.38 1861.43 2008.38 1868.56 Q2008.38 1875.67 2010.19 1879.23 Q2012.02 1882.78 2015.63 1882.78 Q2019.26 1882.78 2021.07 1879.23 Q2022.9 1875.67 2022.9 1868.56 Q2022.9 1861.43 2021.07 1857.89 Q2019.26 1854.33 2015.63 1854.33 M2015.63 1850.62 Q2021.44 1850.62 2024.49 1855.23 Q2027.57 1859.81 2027.57 1868.56 Q2027.57 1877.29 2024.49 1881.9 Q2021.44 1886.48 2015.63 1886.48 Q2009.82 1886.48 2006.74 1881.9 Q2003.68 1877.29 2003.68 1868.56 Q2003.68 1859.81 2006.74 1855.23 Q2009.82 1850.62 2015.63 1850.62 Z" fill="#000000" fill-rule="evenodd" fill-opacity="1" /><path clip-path="url(#clip500)" d="M2819.83 1854.33 Q2816.22 1854.33 2814.39 1857.89 Q2812.58 1861.43 2812.58 1868.56 Q2812.58 1875.67 2814.39 1879.23 Q2816.22 1882.78 2819.83 1882.78 Q2823.46 1882.78 2825.27 1879.23 Q2827.1 1875.67 2827.1 1868.56 Q2827.1 1861.43 2825.27 1857.89 Q2823.46 1854.33 2819.83 1854.33 M2819.83 1850.62 Q2825.64 1850.62 2828.7 1855.23 Q2831.77 1859.81 2831.77 1868.56 Q2831.77 1877.29 2828.7 1881.9 Q2825.64 1886.48 2819.83 1886.48 Q2814.02 1886.48 2810.94 1881.9 Q2807.89 1877.29 2807.89 1868.56 Q2807.89 1859.81 2810.94 1855.23 Q2814.02 1850.62 2819.83 1850.62 Z" fill="#000000" fill-rule="evenodd" fill-opacity="1" /><path clip-path="url(#clip500)" d="M2839.99 1879.93 L2844.88 1879.93 L2844.88 1885.81 L2839.99 1885.81 L2839.99 1879.93 Z" fill="#000000" fill-rule="evenodd" fill-opacity="1" /><path clip-path="url(#clip500)" d="M2855.11 1851.25 L2873.46 1851.25 L2873.46 1855.18 L2859.39 1855.18 L2859.39 1863.66 Q2860.41 1863.31 2861.43 1863.15 Q2862.44 1862.96 2863.46 1862.96 Q2869.25 1862.96 2872.63 1866.13 Q2876.01 1869.3 2876.01 1874.72 Q2876.01 1880.3 2872.54 1883.4 Q2869.07 1886.48 2862.75 1886.48 Q2860.57 1886.48 2858.3 1886.11 Q2856.06 1885.74 2853.65 1885 L2853.65 1880.3 Q2855.73 1881.43 2857.95 1881.99 Q2860.18 1882.54 2862.65 1882.54 Q2866.66 1882.54 2869 1880.44 Q2871.33 1878.33 2871.33 1874.72 Q2871.33 1871.11 2869 1869 Q2866.66 1866.9 2862.65 1866.9 Q2860.78 1866.9 2858.9 1867.31 Q2857.05 1867.73 2855.11 1868.61 L2855.11 1851.25 Z" fill="#000000" fill-rule="evenodd" fill-opacity="1" /><path clip-path="url(#clip500)" d="M3658.04 1881.87 L3665.68 1881.87 L3665.68 1855.51 L3657.37 1857.17 L3657.37 1852.91 L3665.63 1851.25 L3670.3 1851.25 L3670.3 1881.87 L3677.94 1881.87 L3677.94 1885.81 L3658.04 1885.81 L3658.04 1881.87 Z" fill="#000000" fill-rule="evenodd" fill-opacity="1" /><path clip-path="url(#clip500)" d="M3687.39 1879.93 L3692.27 1879.93 L3692.27 1885.81 L3687.39 1885.81 L3687.39 1879.93 Z" fill="#000000" fill-rule="evenodd" fill-opacity="1" /><path clip-path="url(#clip500)" d="M3712.46 1854.33 Q3708.85 1854.33 3707.02 1857.89 Q3705.21 1861.43 3705.21 1868.56 Q3705.21 1875.67 3707.02 1879.23 Q3708.85 1882.78 3712.46 1882.78 Q3716.09 1882.78 3717.9 1879.23 Q3719.73 1875.67 3719.73 1868.56 Q3719.73 1861.43 3717.9 1857.89 Q3716.09 1854.33 3712.46 1854.33 M3712.46 1850.62 Q3718.27 1850.62 3721.32 1855.23 Q3724.4 1859.81 3724.4 1868.56 Q3724.4 1877.29 3721.32 1881.9 Q3718.27 1886.48 3712.46 1886.48 Q3706.65 1886.48 3703.57 1881.9 Q3700.51 1877.29 3700.51 1868.56 Q3700.51 1859.81 3703.57 1855.23 Q3706.65 1850.62 3712.46 1850.62 Z" fill="#000000" fill-rule="evenodd" fill-opacity="1" /><polyline clip-path="url(#clip502)" style="stroke:#000000; stroke-linecap:butt; stroke-linejoin:round; stroke-width:2; stroke-opacity:0.1; fill:none" points="
  193.267,1811.89 3792.76,1811.89 
  "/>
<polyline clip-path="url(#clip502)" style="stroke:#000000; stroke-linecap:butt; stroke-linejoin:round; stroke-width:2; stroke-opacity:0.1; fill:none" points="
  193.267,1370.73 3792.76,1370.73 
  "/>
<polyline clip-path="url(#clip502)" style="stroke:#000000; stroke-linecap:butt; stroke-linejoin:round; stroke-width:2; stroke-opacity:0.1; fill:none" points="
  193.267,929.566 3792.76,929.566 
  "/>
<polyline clip-path="url(#clip502)" style="stroke:#000000; stroke-linecap:butt; stroke-linejoin:round; stroke-width:2; stroke-opacity:0.1; fill:none" points="
  193.267,488.405 3792.76,488.405 
  "/>
<polyline clip-path="url(#clip502)" style="stroke:#000000; stroke-linecap:butt; stroke-linejoin:round; stroke-width:2; stroke-opacity:0.1; fill:none" points="
  193.267,47.2441 3792.76,47.2441 
  "/>
<polyline clip-path="url(#clip500)" style="stroke:#000000; stroke-linecap:butt; stroke-linejoin:round; stroke-width:4; stroke-opacity:1; fill:none" points="
  193.267,1811.89 193.267,47.2441 
  "/>
<polyline clip-path="url(#clip500)" style="stroke:#000000; stroke-linecap:butt; stroke-linejoin:round; stroke-width:4; stroke-opacity:1; fill:none" points="
  193.267,1811.89 212.164,1811.89 
  "/>
<polyline clip-path="url(#clip500)" style="stroke:#000000; stroke-linecap:butt; stroke-linejoin:round; stroke-width:4; stroke-opacity:1; fill:none" points="
  193.267,1370.73 212.164,1370.73 
  "/>
<polyline clip-path="url(#clip500)" style="stroke:#000000; stroke-linecap:butt; stroke-linejoin:round; stroke-width:4; stroke-opacity:1; fill:none" points="
  193.267,929.566 212.164,929.566 
  "/>
<polyline clip-path="url(#clip500)" style="stroke:#000000; stroke-linecap:butt; stroke-linejoin:round; stroke-width:4; stroke-opacity:1; fill:none" points="
  193.267,488.405 212.164,488.405 
  "/>
<polyline clip-path="url(#clip500)" style="stroke:#000000; stroke-linecap:butt; stroke-linejoin:round; stroke-width:4; stroke-opacity:1; fill:none" points="
  193.267,47.2441 212.164,47.2441 
  "/>
<path clip-path="url(#clip500)" d="M43.7921 1812.34 L73.4679 1812.34 L73.4679 1816.27 L43.7921 1816.27 L43.7921 1812.34 Z" fill="#000000" fill-rule="evenodd" fill-opacity="1" /><path clip-path="url(#clip500)" d="M84.3706 1825.23 L92.0095 1825.23 L92.0095 1798.87 L83.6993 1800.53 L83.6993 1796.27 L91.9632 1794.61 L96.6391 1794.61 L96.6391 1825.23 L104.278 1825.23 L104.278 1829.17 L84.3706 1829.17 L84.3706 1825.23 Z" fill="#000000" fill-rule="evenodd" fill-opacity="1" /><path clip-path="url(#clip500)" d="M123.722 1797.69 Q120.111 1797.69 118.282 1801.25 Q116.477 1804.79 116.477 1811.92 Q116.477 1819.03 118.282 1822.59 Q120.111 1826.14 123.722 1826.14 Q127.356 1826.14 129.162 1822.59 Q130.991 1819.03 130.991 1811.92 Q130.991 1804.79 129.162 1801.25 Q127.356 1797.69 123.722 1797.69 M123.722 1793.98 Q129.532 1793.98 132.588 1798.59 Q135.667 1803.17 135.667 1811.92 Q135.667 1820.65 132.588 1825.26 Q129.532 1829.84 123.722 1829.84 Q117.912 1829.84 114.833 1825.26 Q111.778 1820.65 111.778 1811.92 Q111.778 1803.17 114.833 1798.59 Q117.912 1793.98 123.722 1793.98 Z" fill="#000000" fill-rule="evenodd" fill-opacity="1" /><path clip-path="url(#clip500)" d="M74.9494 1371.18 L104.625 1371.18 L104.625 1375.11 L74.9494 1375.11 L74.9494 1371.18 Z" fill="#000000" fill-rule="evenodd" fill-opacity="1" /><path clip-path="url(#clip500)" d="M114.764 1353.45 L133.12 1353.45 L133.12 1357.38 L119.046 1357.38 L119.046 1365.85 Q120.065 1365.51 121.083 1365.35 Q122.102 1365.16 123.12 1365.16 Q128.907 1365.16 132.287 1368.33 Q135.667 1371.5 135.667 1376.92 Q135.667 1382.5 132.194 1385.6 Q128.722 1388.68 122.403 1388.68 Q120.227 1388.68 117.958 1388.31 Q115.713 1387.94 113.306 1387.2 L113.306 1382.5 Q115.389 1383.63 117.611 1384.19 Q119.833 1384.74 122.31 1384.74 Q126.315 1384.74 128.653 1382.64 Q130.991 1380.53 130.991 1376.92 Q130.991 1373.31 128.653 1371.2 Q126.315 1369.09 122.31 1369.09 Q120.435 1369.09 118.56 1369.51 Q116.708 1369.93 114.764 1370.81 L114.764 1353.45 Z" fill="#000000" fill-rule="evenodd" fill-opacity="1" /><path clip-path="url(#clip500)" d="M123.722 915.365 Q120.111 915.365 118.282 918.929 Q116.477 922.471 116.477 929.601 Q116.477 936.707 118.282 940.272 Q120.111 943.814 123.722 943.814 Q127.356 943.814 129.162 940.272 Q130.991 936.707 130.991 929.601 Q130.991 922.471 129.162 918.929 Q127.356 915.365 123.722 915.365 M123.722 911.661 Q129.532 911.661 132.588 916.267 Q135.667 920.851 135.667 929.601 Q135.667 938.328 132.588 942.934 Q129.532 947.517 123.722 947.517 Q117.912 947.517 114.833 942.934 Q111.778 938.328 111.778 929.601 Q111.778 920.851 114.833 916.267 Q117.912 911.661 123.722 911.661 Z" fill="#000000" fill-rule="evenodd" fill-opacity="1" /><path clip-path="url(#clip500)" d="M114.764 471.125 L133.12 471.125 L133.12 475.06 L119.046 475.06 L119.046 483.532 Q120.065 483.185 121.083 483.023 Q122.102 482.838 123.12 482.838 Q128.907 482.838 132.287 486.009 Q135.667 489.18 135.667 494.597 Q135.667 500.176 132.194 503.278 Q128.722 506.356 122.403 506.356 Q120.227 506.356 117.958 505.986 Q115.713 505.616 113.306 504.875 L113.306 500.176 Q115.389 501.31 117.611 501.866 Q119.833 502.421 122.31 502.421 Q126.315 502.421 128.653 500.315 Q130.991 498.208 130.991 494.597 Q130.991 490.986 128.653 488.88 Q126.315 486.773 122.31 486.773 Q120.435 486.773 118.56 487.19 Q116.708 487.606 114.764 488.486 L114.764 471.125 Z" fill="#000000" fill-rule="evenodd" fill-opacity="1" /><path clip-path="url(#clip500)" d="M84.3706 60.5889 L92.0095 60.5889 L92.0095 34.2233 L83.6993 35.89 L83.6993 31.6308 L91.9632 29.9641 L96.6391 29.9641 L96.6391 60.5889 L104.278 60.5889 L104.278 64.5241 L84.3706 64.5241 L84.3706 60.5889 Z" fill="#000000" fill-rule="evenodd" fill-opacity="1" /><path clip-path="url(#clip500)" d="M123.722 33.0428 Q120.111 33.0428 118.282 36.6076 Q116.477 40.1492 116.477 47.2788 Q116.477 54.3853 118.282 57.9501 Q120.111 61.4917 123.722 61.4917 Q127.356 61.4917 129.162 57.9501 Q130.991 54.3853 130.991 47.2788 Q130.991 40.1492 129.162 36.6076 Q127.356 33.0428 123.722 33.0428 M123.722 29.3391 Q129.532 29.3391 132.588 33.9456 Q135.667 38.5289 135.667 47.2788 Q135.667 56.0056 132.588 60.6121 Q129.532 65.1954 123.722 65.1954 Q117.912 65.1954 114.833 60.6121 Q111.778 56.0056 111.778 47.2788 Q111.778 38.5289 114.833 33.9456 Q117.912 29.3391 123.722 29.3391 Z" fill="#000000" fill-rule="evenodd" fill-opacity="1" /><polyline clip-path="url(#clip502)" style="stroke:#009af9; stroke-linecap:butt; stroke-linejoin:round; stroke-width:4; stroke-opacity:1; fill:none" points="
  295.139,1017.8 317.247,1018.96 521.669,1031.38 644.518,1040.66 748.385,1049.93 861.214,1061.93 965.232,1075.32 1076.75,1093.06 1205.96,1119.9 1320.78,1152.42 
  1421.47,1191.68 1531.25,1253.99 1641.68,1355.96 1672.2,1396.53 1702.72,1445.63 1733.25,1506.27 1763.77,1583.06 1792.81,1677.86 1821.86,1804.83 1836.38,1885.98 
  1850.9,1983.71 1865.42,2103.68 1879.94,2254.46 1895.04,2458.65 1910.14,2737.24 1917.69,2918.41 1925.24,3139.95 1932.79,3417.03 1940.34,3773.53 1947.89,4249.31 
  1955.43,4916.26 1962.98,5918.58 1970.53,7594.18 1974.31,8939.23 1978.08,10964.5 1979.97,12416.7 1981.86,14360.5 1983.74,17096 1985.63,21230.8 1986.58,24207.6 
  1987.52,28207.5 1988.46,33867.2 1989.41,42490.3 1990.35,57229.7 1991.29,88169.2 1992.24,194599 1993.18,-879490 1994.13,-133568 1995.07,-71880.7 1996.01,-48986.6 
  1996.96,-37045.8 1997.9,-29715.1 1998.84,-24756.7 1999.79,-21179.4 2000.73,-18476.7 2002.32,-15164.4 2003.91,-12818 2005.5,-11068.7 2007.09,-9714.29 2010.26,-7753.9 
  2013.44,-6403.32 2019.8,-4663.5 2026.15,-3590.94 2032.51,-2863.56 2038.86,-2337.81 2045.22,-1940.06 2051.57,-1628.65 2057.93,-1378.2 2064.28,-1172.42 2070.64,-1000.34 
  2076.99,-854.293 2089.7,-619.802 2102.41,-439.797 2117.93,-269.692 2133.45,-137.179 2148.96,-31.0358 2164.48,55.8958 2195.51,189.791 2226.55,288.099 2283.41,413.698 
  2340.27,498.166 2445.3,598.344 2551.69,661.42 2670.92,708.583 2778.97,738.961 2902.67,764.881 3017.21,783.299 3130.13,797.824 3239.77,809.409 3352.17,819.345 
  3475.3,828.502 3654.19,839.385 3690.88,841.334 
  "/>
<path clip-path="url(#clip500)" d="
M3236.34 209.746 L3672.77 209.746 L3672.77 106.066 L3236.34 106.066  Z
  " fill="#ffffff" fill-rule="evenodd" fill-opacity="1"/>
<polyline clip-path="url(#clip500)" style="stroke:#000000; stroke-linecap:butt; stroke-linejoin:round; stroke-width:4; stroke-opacity:1; fill:none" points="
  3236.34,209.746 3672.77,209.746 3672.77,106.066 3236.34,106.066 3236.34,209.746 
  "/>
<polyline clip-path="url(#clip500)" style="stroke:#009af9; stroke-linecap:butt; stroke-linejoin:round; stroke-width:4; stroke-opacity:1; fill:none" points="
  3274.74,157.906 3505.14,157.906 
  "/>
<path clip-path="url(#clip500)" d="M3557.39 177.593 Q3555.58 182.223 3553.87 183.635 Q3552.15 185.047 3549.28 185.047 L3545.88 185.047 L3545.88 181.482 L3548.38 181.482 Q3550.14 181.482 3551.11 180.648 Q3552.08 179.815 3553.26 176.713 L3554.03 174.769 L3543.54 149.26 L3548.06 149.26 L3556.16 169.537 L3564.26 149.26 L3568.77 149.26 L3557.39 177.593 Z" fill="#000000" fill-rule="evenodd" fill-opacity="1" /><path clip-path="url(#clip500)" d="M3576.07 171.25 L3583.7 171.25 L3583.7 144.885 L3575.39 146.551 L3575.39 142.292 L3583.66 140.626 L3588.33 140.626 L3588.33 171.25 L3595.97 171.25 L3595.97 175.186 L3576.07 175.186 L3576.07 171.25 Z" fill="#000000" fill-rule="evenodd" fill-opacity="1" /></svg>
