<?xml version="1.0" encoding="utf-8"?>
<svg xmlns="http://www.w3.org/2000/svg" xmlns:xlink="http://www.w3.org/1999/xlink" width="960" height="480" viewBox="0 0 3840 1920">
<defs>
  <clipPath id="clip120">
    <rect x="0" y="0" width="3840" height="1920"/>
  </clipPath>
</defs>
<path clip-path="url(#clip120)" d="
M0 1920 L3840 1920 L3840 0 L0 0  Z
  " fill="#ffffff" fill-rule="evenodd" fill-opacity="1"/>
<defs>
  <clipPath id="clip121">
    <rect x="768" y="0" width="2689" height="1920"/>
  </clipPath>
</defs>
<path clip-path="url(#clip120)" d="
M259.724 1760.5 L3792.76 1760.5 L3792.76 108.352 L259.724 108.352  Z
  " fill="#ffffff" fill-rule="evenodd" fill-opacity="1"/>
<defs>
  <clipPath id="clip122">
    <rect x="259" y="108" width="3534" height="1653"/>
  </clipPath>
</defs>
<polyline clip-path="url(#clip122)" style="stroke:#000000; stroke-linecap:butt; stroke-linejoin:round; stroke-width:2; stroke-opacity:0.1; fill:none" points="
  434.826,1760.5 434.826,108.352 
  "/>
<polyline clip-path="url(#clip122)" style="stroke:#000000; stroke-linecap:butt; stroke-linejoin:round; stroke-width:2; stroke-opacity:0.1; fill:none" points="
  965.298,1760.5 965.298,108.352 
  "/>
<polyline clip-path="url(#clip122)" style="stroke:#000000; stroke-linecap:butt; stroke-linejoin:round; stroke-width:2; stroke-opacity:0.1; fill:none" points="
  1495.77,1760.5 1495.77,108.352 
  "/>
<polyline clip-path="url(#clip122)" style="stroke:#000000; stroke-linecap:butt; stroke-linejoin:round; stroke-width:2; stroke-opacity:0.1; fill:none" points="
  2026.24,1760.5 2026.24,108.352 
  "/>
<polyline clip-path="url(#clip122)" style="stroke:#000000; stroke-linecap:butt; stroke-linejoin:round; stroke-width:2; stroke-opacity:0.1; fill:none" points="
  2556.71,1760.5 2556.71,108.352 
  "/>
<polyline clip-path="url(#clip122)" style="stroke:#000000; stroke-linecap:butt; stroke-linejoin:round; stroke-width:2; stroke-opacity:0.1; fill:none" points="
  3087.18,1760.5 3087.18,108.352 
  "/>
<polyline clip-path="url(#clip122)" style="stroke:#000000; stroke-linecap:butt; stroke-linejoin:round; stroke-width:2; stroke-opacity:0.1; fill:none" points="
  3617.65,1760.5 3617.65,108.352 
  "/>
<polyline clip-path="url(#clip120)" style="stroke:#000000; stroke-linecap:butt; stroke-linejoin:round; stroke-width:4; stroke-opacity:1; fill:none" points="
  259.724,1760.5 3792.76,1760.5 
  "/>
<polyline clip-path="url(#clip120)" style="stroke:#000000; stroke-linecap:butt; stroke-linejoin:round; stroke-width:4; stroke-opacity:1; fill:none" points="
  434.826,1760.5 434.826,1741.6 
  "/>
<polyline clip-path="url(#clip120)" style="stroke:#000000; stroke-linecap:butt; stroke-linejoin:round; stroke-width:4; stroke-opacity:1; fill:none" points="
  965.298,1760.5 965.298,1741.6 
  "/>
<polyline clip-path="url(#clip120)" style="stroke:#000000; stroke-linecap:butt; stroke-linejoin:round; stroke-width:4; stroke-opacity:1; fill:none" points="
  1495.77,1760.5 1495.77,1741.6 
  "/>
<polyline clip-path="url(#clip120)" style="stroke:#000000; stroke-linecap:butt; stroke-linejoin:round; stroke-width:4; stroke-opacity:1; fill:none" points="
  2026.24,1760.5 2026.24,1741.6 
  "/>
<polyline clip-path="url(#clip120)" style="stroke:#000000; stroke-linecap:butt; stroke-linejoin:round; stroke-width:4; stroke-opacity:1; fill:none" points="
  2556.71,1760.5 2556.71,1741.6 
  "/>
<polyline clip-path="url(#clip120)" style="stroke:#000000; stroke-linecap:butt; stroke-linejoin:round; stroke-width:4; stroke-opacity:1; fill:none" points="
  3087.18,1760.5 3087.18,1741.6 
  "/>
<polyline clip-path="url(#clip120)" style="stroke:#000000; stroke-linecap:butt; stroke-linejoin:round; stroke-width:4; stroke-opacity:1; fill:none" points="
  3617.65,1760.5 3617.65,1741.6 
  "/>
<path clip-path="url(#clip120)" d="M404.294 1817.59 L433.97 1817.59 L433.97 1821.53 L404.294 1821.53 L404.294 1817.59 Z" fill="#000000" fill-rule="evenodd" fill-opacity="1" /><path clip-path="url(#clip120)" d="M458.229 1815.79 Q461.585 1816.5 463.46 1818.77 Q465.359 1821.04 465.359 1824.37 Q465.359 1829.49 461.84 1832.29 Q458.322 1835.09 451.84 1835.09 Q449.664 1835.09 447.349 1834.65 Q445.058 1834.23 442.604 1833.38 L442.604 1828.86 Q444.548 1830 446.863 1830.58 Q449.178 1831.16 451.701 1831.16 Q456.099 1831.16 458.391 1829.42 Q460.706 1827.68 460.706 1824.37 Q460.706 1821.32 458.553 1819.61 Q456.423 1817.87 452.604 1817.87 L448.576 1817.87 L448.576 1814.03 L452.789 1814.03 Q456.238 1814.03 458.067 1812.66 Q459.896 1811.27 459.896 1808.68 Q459.896 1806.02 457.997 1804.61 Q456.123 1803.17 452.604 1803.17 Q450.683 1803.17 448.484 1803.59 Q446.285 1804 443.646 1804.88 L443.646 1800.72 Q446.308 1799.98 448.623 1799.61 Q450.96 1799.23 453.021 1799.23 Q458.345 1799.23 461.447 1801.67 Q464.548 1804.07 464.548 1808.19 Q464.548 1811.06 462.905 1813.05 Q461.261 1815.02 458.229 1815.79 Z" fill="#000000" fill-rule="evenodd" fill-opacity="1" /><path clip-path="url(#clip120)" d="M935.24 1817.59 L964.916 1817.59 L964.916 1821.53 L935.24 1821.53 L935.24 1817.59 Z" fill="#000000" fill-rule="evenodd" fill-opacity="1" /><path clip-path="url(#clip120)" d="M979.036 1830.48 L995.355 1830.48 L995.355 1834.42 L973.411 1834.42 L973.411 1830.48 Q976.073 1827.73 980.656 1823.1 Q985.263 1818.45 986.443 1817.11 Q988.689 1814.58 989.568 1812.85 Q990.471 1811.09 990.471 1809.4 Q990.471 1806.64 988.527 1804.91 Q986.605 1803.17 983.503 1803.17 Q981.304 1803.17 978.851 1803.93 Q976.42 1804.7 973.642 1806.25 L973.642 1801.53 Q976.466 1800.39 978.92 1799.81 Q981.374 1799.23 983.411 1799.23 Q988.781 1799.23 991.976 1801.92 Q995.17 1804.61 995.17 1809.1 Q995.17 1811.23 994.36 1813.15 Q993.573 1815.04 991.466 1817.64 Q990.888 1818.31 987.786 1821.53 Q984.684 1824.72 979.036 1830.48 Z" fill="#000000" fill-rule="evenodd" fill-opacity="1" /><path clip-path="url(#clip120)" d="M1465.53 1817.59 L1495.2 1817.59 L1495.2 1821.53 L1465.53 1821.53 L1465.53 1817.59 Z" fill="#000000" fill-rule="evenodd" fill-opacity="1" /><path clip-path="url(#clip120)" d="M1506.1 1830.48 L1513.74 1830.48 L1513.74 1804.12 L1505.43 1805.79 L1505.43 1801.53 L1513.7 1799.86 L1518.37 1799.86 L1518.37 1830.48 L1526.01 1830.48 L1526.01 1834.42 L1506.1 1834.42 L1506.1 1830.48 Z" fill="#000000" fill-rule="evenodd" fill-opacity="1" /><path clip-path="url(#clip120)" d="M2026.24 1802.94 Q2022.63 1802.94 2020.8 1806.5 Q2018.99 1810.04 2018.99 1817.17 Q2018.99 1824.28 2020.8 1827.85 Q2022.63 1831.39 2026.24 1831.39 Q2029.87 1831.39 2031.68 1827.85 Q2033.51 1824.28 2033.51 1817.17 Q2033.51 1810.04 2031.68 1806.5 Q2029.87 1802.94 2026.24 1802.94 M2026.24 1799.23 Q2032.05 1799.23 2035.11 1803.84 Q2038.18 1808.42 2038.18 1817.17 Q2038.18 1825.9 2035.11 1830.51 Q2032.05 1835.09 2026.24 1835.09 Q2020.43 1835.09 2017.35 1830.51 Q2014.3 1825.9 2014.3 1817.17 Q2014.3 1808.42 2017.35 1803.84 Q2020.43 1799.23 2026.24 1799.23 Z" fill="#000000" fill-rule="evenodd" fill-opacity="1" /><path clip-path="url(#clip120)" d="M2547.09 1830.48 L2554.73 1830.48 L2554.73 1804.12 L2546.42 1805.79 L2546.42 1801.53 L2554.69 1799.86 L2559.36 1799.86 L2559.36 1830.48 L2567 1830.48 L2567 1834.42 L2547.09 1834.42 L2547.09 1830.48 Z" fill="#000000" fill-rule="evenodd" fill-opacity="1" /><path clip-path="url(#clip120)" d="M3081.84 1830.48 L3098.15 1830.48 L3098.15 1834.42 L3076.21 1834.42 L3076.21 1830.48 Q3078.87 1827.73 3083.46 1823.1 Q3088.06 1818.45 3089.24 1817.11 Q3091.49 1814.58 3092.37 1812.85 Q3093.27 1811.09 3093.27 1809.4 Q3093.27 1806.64 3091.33 1804.91 Q3089.4 1803.17 3086.3 1803.17 Q3084.1 1803.17 3081.65 1803.93 Q3079.22 1804.7 3076.44 1806.25 L3076.44 1801.53 Q3079.27 1800.39 3081.72 1799.81 Q3084.17 1799.23 3086.21 1799.23 Q3091.58 1799.23 3094.77 1801.92 Q3097.97 1804.61 3097.97 1809.1 Q3097.97 1811.23 3097.16 1813.15 Q3096.37 1815.04 3094.27 1817.64 Q3093.69 1818.31 3090.59 1821.53 Q3087.48 1824.72 3081.84 1830.48 Z" fill="#000000" fill-rule="evenodd" fill-opacity="1" /><path clip-path="url(#clip120)" d="M3621.9 1815.79 Q3625.26 1816.5 3627.13 1818.77 Q3629.03 1821.04 3629.03 1824.37 Q3629.03 1829.49 3625.51 1832.29 Q3621.99 1835.09 3615.51 1835.09 Q3613.34 1835.09 3611.02 1834.65 Q3608.73 1834.23 3606.28 1833.38 L3606.28 1828.86 Q3608.22 1830 3610.54 1830.58 Q3612.85 1831.16 3615.37 1831.16 Q3619.77 1831.16 3622.06 1829.42 Q3624.38 1827.68 3624.38 1824.37 Q3624.38 1821.32 3622.23 1819.61 Q3620.1 1817.87 3616.28 1817.87 L3612.25 1817.87 L3612.25 1814.03 L3616.46 1814.03 Q3619.91 1814.03 3621.74 1812.66 Q3623.57 1811.27 3623.57 1808.68 Q3623.57 1806.02 3621.67 1804.61 Q3619.79 1803.17 3616.28 1803.17 Q3614.36 1803.17 3612.16 1803.59 Q3609.96 1804 3607.32 1804.88 L3607.32 1800.72 Q3609.98 1799.98 3612.29 1799.61 Q3614.63 1799.23 3616.69 1799.23 Q3622.02 1799.23 3625.12 1801.67 Q3628.22 1804.07 3628.22 1808.19 Q3628.22 1811.06 3626.58 1813.05 Q3624.93 1815.02 3621.9 1815.79 Z" fill="#000000" fill-rule="evenodd" fill-opacity="1" /><path clip-path="url(#clip120)" d="M2042.85 1891.32 L2029.96 1908.66 L2043.52 1926.96 L2036.62 1926.96 L2026.24 1912.96 L2015.86 1926.96 L2008.96 1926.96 L2022.8 1908.31 L2010.13 1891.32 L2017.04 1891.32 L2026.49 1904.02 L2035.95 1891.32 L2042.85 1891.32 Z" fill="#000000" fill-rule="evenodd" fill-opacity="1" /><polyline clip-path="url(#clip122)" style="stroke:#000000; stroke-linecap:butt; stroke-linejoin:round; stroke-width:2; stroke-opacity:0.1; fill:none" points="
  259.724,1713.74 3792.76,1713.74 
  "/>
<polyline clip-path="url(#clip122)" style="stroke:#000000; stroke-linecap:butt; stroke-linejoin:round; stroke-width:2; stroke-opacity:0.1; fill:none" points="
  259.724,1324.04 3792.76,1324.04 
  "/>
<polyline clip-path="url(#clip122)" style="stroke:#000000; stroke-linecap:butt; stroke-linejoin:round; stroke-width:2; stroke-opacity:0.1; fill:none" points="
  259.724,934.337 3792.76,934.337 
  "/>
<polyline clip-path="url(#clip122)" style="stroke:#000000; stroke-linecap:butt; stroke-linejoin:round; stroke-width:2; stroke-opacity:0.1; fill:none" points="
  259.724,544.634 3792.76,544.634 
  "/>
<polyline clip-path="url(#clip122)" style="stroke:#000000; stroke-linecap:butt; stroke-linejoin:round; stroke-width:2; stroke-opacity:0.1; fill:none" points="
  259.724,154.932 3792.76,154.932 
  "/>
<polyline clip-path="url(#clip120)" style="stroke:#000000; stroke-linecap:butt; stroke-linejoin:round; stroke-width:4; stroke-opacity:1; fill:none" points="
  259.724,1760.5 259.724,108.352 
  "/>
<polyline clip-path="url(#clip120)" style="stroke:#000000; stroke-linecap:butt; stroke-linejoin:round; stroke-width:4; stroke-opacity:1; fill:none" points="
  259.724,1713.74 278.622,1713.74 
  "/>
<polyline clip-path="url(#clip120)" style="stroke:#000000; stroke-linecap:butt; stroke-linejoin:round; stroke-width:4; stroke-opacity:1; fill:none" points="
  259.724,1324.04 278.622,1324.04 
  "/>
<polyline clip-path="url(#clip120)" style="stroke:#000000; stroke-linecap:butt; stroke-linejoin:round; stroke-width:4; stroke-opacity:1; fill:none" points="
  259.724,934.337 278.622,934.337 
  "/>
<polyline clip-path="url(#clip120)" style="stroke:#000000; stroke-linecap:butt; stroke-linejoin:round; stroke-width:4; stroke-opacity:1; fill:none" points="
  259.724,544.634 278.622,544.634 
  "/>
<polyline clip-path="url(#clip120)" style="stroke:#000000; stroke-linecap:butt; stroke-linejoin:round; stroke-width:4; stroke-opacity:1; fill:none" points="
  259.724,154.932 278.622,154.932 
  "/>
<path clip-path="url(#clip120)" d="M95.1802 1714.19 L124.856 1714.19 L124.856 1718.13 L95.1802 1718.13 L95.1802 1714.19 Z" fill="#000000" fill-rule="evenodd" fill-opacity="1" /><path clip-path="url(#clip120)" d="M135.759 1727.09 L143.397 1727.09 L143.397 1700.72 L135.087 1702.39 L135.087 1698.13 L143.351 1696.46 L148.027 1696.46 L148.027 1727.09 L155.666 1727.09 L155.666 1731.02 L135.759 1731.02 L135.759 1727.09 Z" fill="#000000" fill-rule="evenodd" fill-opacity="1" /><path clip-path="url(#clip120)" d="M165.11 1725.14 L169.995 1725.14 L169.995 1731.02 L165.11 1731.02 L165.11 1725.14 Z" fill="#000000" fill-rule="evenodd" fill-opacity="1" /><path clip-path="url(#clip120)" d="M190.18 1699.54 Q186.569 1699.54 184.74 1703.1 Q182.934 1706.65 182.934 1713.78 Q182.934 1720.88 184.74 1724.45 Q186.569 1727.99 190.18 1727.99 Q193.814 1727.99 195.619 1724.45 Q197.448 1720.88 197.448 1713.78 Q197.448 1706.65 195.619 1703.1 Q193.814 1699.54 190.18 1699.54 M190.18 1695.84 Q195.99 1695.84 199.045 1700.44 Q202.124 1705.03 202.124 1713.78 Q202.124 1722.5 199.045 1727.11 Q195.99 1731.69 190.18 1731.69 Q184.369 1731.69 181.291 1727.11 Q178.235 1722.5 178.235 1713.78 Q178.235 1705.03 181.291 1700.44 Q184.369 1695.84 190.18 1695.84 Z" fill="#000000" fill-rule="evenodd" fill-opacity="1" /><path clip-path="url(#clip120)" d="M96.1755 1324.49 L125.851 1324.49 L125.851 1328.43 L96.1755 1328.43 L96.1755 1324.49 Z" fill="#000000" fill-rule="evenodd" fill-opacity="1" /><path clip-path="url(#clip120)" d="M145.944 1309.84 Q142.333 1309.84 140.504 1313.4 Q138.698 1316.94 138.698 1324.07 Q138.698 1331.18 140.504 1334.74 Q142.333 1338.29 145.944 1338.29 Q149.578 1338.29 151.384 1334.74 Q153.212 1331.18 153.212 1324.07 Q153.212 1316.94 151.384 1313.4 Q149.578 1309.84 145.944 1309.84 M145.944 1306.13 Q151.754 1306.13 154.809 1310.74 Q157.888 1315.32 157.888 1324.07 Q157.888 1332.8 154.809 1337.41 Q151.754 1341.99 145.944 1341.99 Q140.134 1341.99 137.055 1337.41 Q133.999 1332.8 133.999 1324.07 Q133.999 1315.32 137.055 1310.74 Q140.134 1306.13 145.944 1306.13 Z" fill="#000000" fill-rule="evenodd" fill-opacity="1" /><path clip-path="url(#clip120)" d="M166.106 1335.44 L170.99 1335.44 L170.99 1341.32 L166.106 1341.32 L166.106 1335.44 Z" fill="#000000" fill-rule="evenodd" fill-opacity="1" /><path clip-path="url(#clip120)" d="M181.221 1306.76 L199.578 1306.76 L199.578 1310.69 L185.504 1310.69 L185.504 1319.17 Q186.522 1318.82 187.541 1318.66 Q188.559 1318.47 189.578 1318.47 Q195.365 1318.47 198.744 1321.64 Q202.124 1324.81 202.124 1330.23 Q202.124 1335.81 198.652 1338.91 Q195.18 1341.99 188.86 1341.99 Q186.684 1341.99 184.416 1341.62 Q182.17 1341.25 179.763 1340.51 L179.763 1335.81 Q181.846 1336.94 184.069 1337.5 Q186.291 1338.05 188.768 1338.05 Q192.772 1338.05 195.11 1335.95 Q197.448 1333.84 197.448 1330.23 Q197.448 1326.62 195.11 1324.51 Q192.772 1322.41 188.768 1322.41 Q186.893 1322.41 185.018 1322.82 Q183.166 1323.24 181.221 1324.12 L181.221 1306.76 Z" fill="#000000" fill-rule="evenodd" fill-opacity="1" /><path clip-path="url(#clip120)" d="M144.948 920.135 Q141.337 920.135 139.509 923.7 Q137.703 927.242 137.703 934.371 Q137.703 941.478 139.509 945.043 Q141.337 948.584 144.948 948.584 Q148.583 948.584 150.388 945.043 Q152.217 941.478 152.217 934.371 Q152.217 927.242 150.388 923.7 Q148.583 920.135 144.948 920.135 M144.948 916.432 Q150.759 916.432 153.814 921.038 Q156.893 925.621 156.893 934.371 Q156.893 943.098 153.814 947.705 Q150.759 952.288 144.948 952.288 Q139.138 952.288 136.06 947.705 Q133.004 943.098 133.004 934.371 Q133.004 925.621 136.06 921.038 Q139.138 916.432 144.948 916.432 Z" fill="#000000" fill-rule="evenodd" fill-opacity="1" /><path clip-path="url(#clip120)" d="M165.11 945.737 L169.995 945.737 L169.995 951.617 L165.11 951.617 L165.11 945.737 Z" fill="#000000" fill-rule="evenodd" fill-opacity="1" /><path clip-path="url(#clip120)" d="M190.18 920.135 Q186.569 920.135 184.74 923.7 Q182.934 927.242 182.934 934.371 Q182.934 941.478 184.74 945.043 Q186.569 948.584 190.18 948.584 Q193.814 948.584 195.619 945.043 Q197.448 941.478 197.448 934.371 Q197.448 927.242 195.619 923.7 Q193.814 920.135 190.18 920.135 M190.18 916.432 Q195.99 916.432 199.045 921.038 Q202.124 925.621 202.124 934.371 Q202.124 943.098 199.045 947.705 Q195.99 952.288 190.18 952.288 Q184.369 952.288 181.291 947.705 Q178.235 943.098 178.235 934.371 Q178.235 925.621 181.291 921.038 Q184.369 916.432 190.18 916.432 Z" fill="#000000" fill-rule="evenodd" fill-opacity="1" /><path clip-path="url(#clip120)" d="M145.944 530.433 Q142.333 530.433 140.504 533.998 Q138.698 537.539 138.698 544.669 Q138.698 551.776 140.504 555.34 Q142.333 558.882 145.944 558.882 Q149.578 558.882 151.384 555.34 Q153.212 551.776 153.212 544.669 Q153.212 537.539 151.384 533.998 Q149.578 530.433 145.944 530.433 M145.944 526.729 Q151.754 526.729 154.809 531.336 Q157.888 535.919 157.888 544.669 Q157.888 553.396 154.809 558.002 Q151.754 562.586 145.944 562.586 Q140.134 562.586 137.055 558.002 Q133.999 553.396 133.999 544.669 Q133.999 535.919 137.055 531.336 Q140.134 526.729 145.944 526.729 Z" fill="#000000" fill-rule="evenodd" fill-opacity="1" /><path clip-path="url(#clip120)" d="M166.106 556.035 L170.99 556.035 L170.99 561.914 L166.106 561.914 L166.106 556.035 Z" fill="#000000" fill-rule="evenodd" fill-opacity="1" /><path clip-path="url(#clip120)" d="M181.221 527.354 L199.578 527.354 L199.578 531.29 L185.504 531.29 L185.504 539.762 Q186.522 539.414 187.541 539.252 Q188.559 539.067 189.578 539.067 Q195.365 539.067 198.744 542.239 Q202.124 545.41 202.124 550.826 Q202.124 556.405 198.652 559.507 Q195.18 562.586 188.86 562.586 Q186.684 562.586 184.416 562.215 Q182.17 561.845 179.763 561.104 L179.763 556.405 Q181.846 557.539 184.069 558.095 Q186.291 558.65 188.768 558.65 Q192.772 558.65 195.11 556.544 Q197.448 554.438 197.448 550.826 Q197.448 547.215 195.11 545.109 Q192.772 543.002 188.768 543.002 Q186.893 543.002 185.018 543.419 Q183.166 543.836 181.221 544.715 L181.221 527.354 Z" fill="#000000" fill-rule="evenodd" fill-opacity="1" /><path clip-path="url(#clip120)" d="M135.759 168.277 L143.397 168.277 L143.397 141.911 L135.087 143.578 L135.087 139.319 L143.351 137.652 L148.027 137.652 L148.027 168.277 L155.666 168.277 L155.666 172.212 L135.759 172.212 L135.759 168.277 Z" fill="#000000" fill-rule="evenodd" fill-opacity="1" /><path clip-path="url(#clip120)" d="M165.11 166.333 L169.995 166.333 L169.995 172.212 L165.11 172.212 L165.11 166.333 Z" fill="#000000" fill-rule="evenodd" fill-opacity="1" /><path clip-path="url(#clip120)" d="M190.18 140.731 Q186.569 140.731 184.74 144.296 Q182.934 147.837 182.934 154.967 Q182.934 162.073 184.74 165.638 Q186.569 169.18 190.18 169.18 Q193.814 169.18 195.619 165.638 Q197.448 162.073 197.448 154.967 Q197.448 147.837 195.619 144.296 Q193.814 140.731 190.18 140.731 M190.18 137.027 Q195.99 137.027 199.045 141.634 Q202.124 146.217 202.124 154.967 Q202.124 163.694 199.045 168.3 Q195.99 172.883 190.18 172.883 Q184.369 172.883 181.291 168.3 Q178.235 163.694 178.235 154.967 Q178.235 146.217 181.291 141.634 Q184.369 137.027 190.18 137.027 Z" fill="#000000" fill-rule="evenodd" fill-opacity="1" /><path clip-path="url(#clip120)" d="M-26.201 1114.81 L-21.3313 1114.81 L-21.3313 1120.42 Q-21.3313 1123.57 -20.0581 1124.81 Q-18.785 1126.02 -15.4748 1126.02 L-12.3238 1126.02 L-12.3238 1116.37 L-7.77232 1116.37 L-7.77232 1126.02 L23.3242 1126.02 L23.3242 1131.91 L-7.77232 1131.91 L-7.77232 1137.51 L-12.3238 1137.51 L-12.3238 1131.91 L-14.8064 1131.91 Q-20.7584 1131.91 -23.4638 1129.14 Q-26.201 1126.37 -26.201 1120.35 L-26.201 1114.81 Z" fill="#000000" fill-rule="evenodd" fill-opacity="1" /><path clip-path="url(#clip120)" d="M-26.1374 1095.84 Q-18.8168 1100.11 -11.6554 1102.18 Q-4.49398 1104.25 2.85841 1104.25 Q10.2108 1104.25 17.4359 1102.18 Q24.6291 1100.08 31.9179 1095.84 L31.9179 1100.94 Q24.4382 1105.71 17.2131 1108.1 Q9.988 1110.45 2.85841 1110.45 Q-4.23935 1110.45 -11.4326 1108.1 Q-18.6258 1105.74 -26.1374 1100.94 L-26.1374 1095.84 Z" fill="#000000" fill-rule="evenodd" fill-opacity="1" /><path clip-path="url(#clip120)" d="M-12.3238 1054.85 L5.02275 1067.74 L23.3242 1054.18 L23.3242 1061.09 L9.3196 1071.46 L23.3242 1081.84 L23.3242 1088.75 L4.67264 1074.9 L-12.3238 1087.57 L-12.3238 1080.66 L0.375785 1071.21 L-12.3238 1061.76 L-12.3238 1054.85 Z" fill="#000000" fill-rule="evenodd" fill-opacity="1" /><path clip-path="url(#clip120)" d="M-26.1374 1046.83 L-26.1374 1041.74 Q-18.6258 1036.96 -11.4326 1034.61 Q-4.23935 1032.22 2.85841 1032.22 Q9.988 1032.22 17.2131 1034.61 Q24.4382 1036.96 31.9179 1041.74 L31.9179 1046.83 Q24.6291 1042.6 17.4359 1040.53 Q10.2108 1038.43 2.85841 1038.43 Q-4.49398 1038.43 -11.6554 1040.53 Q-18.8168 1042.6 -26.1374 1046.83 Z" fill="#000000" fill-rule="evenodd" fill-opacity="1" /><path clip-path="url(#clip120)" d="M-6.27638 998.99 L-6.27638 958.186 L-0.929185 958.186 L-0.929185 998.99 L-6.27638 998.99 M6.70966 998.99 L6.70966 958.186 L12.1205 958.186 L12.1205 998.99 L6.70966 998.99 Z" fill="#000000" fill-rule="evenodd" fill-opacity="1" /><path clip-path="url(#clip120)" d="M-11.2735 901.69 L-5.73529 901.69 Q-7.00843 904.173 -7.64501 906.847 Q-8.28158 909.52 -8.28158 912.385 Q-8.28158 916.745 -6.94478 918.941 Q-5.60798 921.106 -2.93438 921.106 Q-0.897356 921.106 0.280299 919.546 Q1.42613 917.987 2.47647 913.276 L2.92207 911.271 Q4.25887 905.032 6.70966 902.422 Q9.12863 899.781 13.4891 899.781 Q18.4544 899.781 21.3508 903.727 Q24.2472 907.642 24.2472 914.517 Q24.2472 917.382 23.6743 920.501 Q23.1332 923.588 22.0192 927.026 L15.9718 927.026 Q17.6587 923.779 18.518 920.628 Q19.3456 917.477 19.3456 914.39 Q19.3456 910.252 17.9451 908.024 Q16.5129 905.796 13.9347 905.796 Q11.5476 905.796 10.2745 907.419 Q9.00132 909.011 7.82366 914.454 L7.34623 916.491 Q6.20041 921.933 3.8451 924.352 Q1.45796 926.771 -2.67975 926.771 Q-7.70866 926.771 -10.4459 923.206 Q-13.1832 919.642 -13.1832 913.085 Q-13.1832 909.838 -12.7057 906.974 Q-12.2283 904.109 -11.2735 901.69 Z" fill="#000000" fill-rule="evenodd" fill-opacity="1" /><path clip-path="url(#clip120)" d="M4.03607 859.963 L6.90063 859.963 L6.90063 886.89 Q12.9481 886.508 16.1309 883.262 Q19.2819 879.983 19.2819 874.159 Q19.2819 870.785 18.4544 867.634 Q17.6269 864.451 15.9718 861.332 L21.5099 861.332 Q22.8467 864.483 23.547 867.793 Q24.2472 871.103 24.2472 874.509 Q24.2472 883.039 19.2819 888.036 Q14.3167 893.001 5.85029 893.001 Q-2.90255 893.001 -8.02695 888.291 Q-13.1832 883.548 -13.1832 875.527 Q-13.1832 868.334 -8.5362 864.164 Q-3.92107 859.963 4.03607 859.963 M2.31733 865.82 Q-2.48878 865.883 -5.35335 868.525 Q-8.21792 871.135 -8.21792 875.464 Q-8.21792 880.365 -5.44884 883.325 Q-2.67975 886.253 2.34915 886.699 L2.31733 865.82 Z" fill="#000000" fill-rule="evenodd" fill-opacity="1" /><path clip-path="url(#clip120)" d="M1.80807 820.719 L23.3242 820.719 L23.3242 826.575 L1.99904 826.575 Q-3.0617 826.575 -5.57615 828.548 Q-8.0906 830.522 -8.0906 834.468 Q-8.0906 839.211 -5.06689 841.948 Q-2.04318 844.685 3.1767 844.685 L23.3242 844.685 L23.3242 850.574 L-12.3238 850.574 L-12.3238 844.685 L-6.78563 844.685 Q-10.0003 842.585 -11.5917 839.752 Q-13.1832 836.887 -13.1832 833.164 Q-13.1832 827.021 -9.36375 823.87 Q-5.57615 820.719 1.80807 820.719 Z" fill="#000000" fill-rule="evenodd" fill-opacity="1" /><path clip-path="url(#clip120)" d="M-26.1374 794.969 Q-18.8168 799.234 -11.6554 801.303 Q-4.49398 803.372 2.85841 803.372 Q10.2108 803.372 17.4359 801.303 Q24.6291 799.202 31.9179 794.969 L31.9179 800.062 Q24.4382 804.836 17.2131 807.223 Q9.988 809.579 2.85841 809.579 Q-4.23935 809.579 -11.4326 807.223 Q-18.6258 804.868 -26.1374 800.062 L-26.1374 794.969 Z" fill="#000000" fill-rule="evenodd" fill-opacity="1" /><path clip-path="url(#clip120)" d="M-12.3238 753.974 L5.02275 766.865 L23.3242 753.306 L23.3242 760.213 L9.3196 770.589 L23.3242 780.965 L23.3242 787.872 L4.67264 774.026 L-12.3238 786.694 L-12.3238 779.787 L0.375785 770.334 L-12.3238 760.881 L-12.3238 753.974 Z" fill="#000000" fill-rule="evenodd" fill-opacity="1" /><path clip-path="url(#clip120)" d="M-26.1374 745.953 L-26.1374 740.861 Q-18.6258 736.086 -11.4326 733.731 Q-4.23935 731.344 2.85841 731.344 Q9.988 731.344 17.2131 733.731 Q24.4382 736.086 31.9179 740.861 L31.9179 745.953 Q24.6291 741.72 17.4359 739.651 Q10.2108 737.551 2.85841 737.551 Q-4.49398 737.551 -11.6554 739.651 Q-18.8168 741.72 -26.1374 745.953 Z" fill="#000000" fill-rule="evenodd" fill-opacity="1" /><path clip-path="url(#clip120)" d="M1738.04 63.9476 L1738.04 47.7034 L1724.67 47.7034 L1724.67 40.9789 L1746.14 40.9789 L1746.14 66.9452 Q1741.4 70.3075 1735.69 72.0494 Q1729.98 73.7508 1723.5 73.7508 Q1709.32 73.7508 1701.3 65.4869 Q1693.32 57.1826 1693.32 42.3968 Q1693.32 27.5705 1701.3 19.3066 Q1709.32 11.0023 1723.5 11.0023 Q1729.41 11.0023 1734.72 12.4606 Q1740.06 13.9189 1744.56 16.7545 L1744.56 25.464 Q1740.02 21.6156 1734.92 19.6712 Q1729.82 17.7268 1724.18 17.7268 Q1713.08 17.7268 1707.49 23.9246 Q1701.94 30.1225 1701.94 42.3968 Q1701.94 54.6305 1707.49 60.8284 Q1713.08 67.0263 1724.18 67.0263 Q1728.52 67.0263 1731.92 66.2971 Q1735.32 65.5274 1738.04 63.9476 Z" fill="#000000" fill-rule="evenodd" fill-opacity="1" /><path clip-path="url(#clip120)" d="M1787.05 34.1734 Q1785.8 33.4443 1784.3 33.1202 Q1782.84 32.7556 1781.06 32.7556 Q1774.74 32.7556 1771.34 36.8875 Q1767.97 40.9789 1767.97 48.6757 L1767.97 72.576 L1760.48 72.576 L1760.48 27.2059 L1767.97 27.2059 L1767.97 34.2544 Q1770.32 30.1225 1774.09 28.1376 Q1777.86 26.1121 1783.25 26.1121 Q1784.02 26.1121 1784.95 26.2337 Q1785.88 26.3147 1787.01 26.5172 L1787.05 34.1734 Z" fill="#000000" fill-rule="evenodd" fill-opacity="1" /><path clip-path="url(#clip120)" d="M1815.49 49.7694 Q1806.46 49.7694 1802.97 51.8354 Q1799.49 53.9013 1799.49 58.8839 Q1799.49 62.8538 1802.08 65.2034 Q1804.72 67.5124 1809.21 67.5124 Q1815.41 67.5124 1819.14 63.1374 Q1822.9 58.7219 1822.9 51.4303 L1822.9 49.7694 L1815.49 49.7694 M1830.36 46.6907 L1830.36 72.576 L1822.9 72.576 L1822.9 65.6895 Q1820.35 69.8214 1816.54 71.8063 Q1812.74 73.7508 1807.23 73.7508 Q1800.26 73.7508 1796.13 69.8619 Q1792.04 65.9325 1792.04 59.3701 Q1792.04 51.7138 1797.14 47.825 Q1802.29 43.9361 1812.45 43.9361 L1822.9 43.9361 L1822.9 43.2069 Q1822.9 38.0623 1819.5 35.2672 Q1816.14 32.4315 1810.02 32.4315 Q1806.13 32.4315 1802.45 33.3632 Q1798.76 34.295 1795.36 36.1584 L1795.36 29.2718 Q1799.45 27.692 1803.3 26.9223 Q1807.15 26.1121 1810.79 26.1121 Q1820.64 26.1121 1825.5 31.2163 Q1830.36 36.3204 1830.36 46.6907 M1816.75 6.22219 L1824.81 6.22219 L1811.6 21.4536 L1805.4 21.4536 L1816.75 6.22219 Z" fill="#000000" fill-rule="evenodd" fill-opacity="1" /><path clip-path="url(#clip120)" d="M1868.68 9.54393 L1868.68 15.7418 L1861.55 15.7418 Q1857.54 15.7418 1855.96 17.3622 Q1854.42 18.9825 1854.42 23.1955 L1854.42 27.2059 L1866.7 27.2059 L1866.7 32.9987 L1854.42 32.9987 L1854.42 72.576 L1846.93 72.576 L1846.93 32.9987 L1839.8 32.9987 L1839.8 27.2059 L1846.93 27.2059 L1846.93 24.0462 Q1846.93 16.471 1850.45 13.0277 Q1853.98 9.54393 1861.63 9.54393 L1868.68 9.54393 Z" fill="#000000" fill-rule="evenodd" fill-opacity="1" /><path clip-path="url(#clip120)" d="M1874.92 27.2059 L1882.37 27.2059 L1882.37 72.576 L1874.92 72.576 L1874.92 27.2059 M1874.92 9.54393 L1882.37 9.54393 L1882.37 18.9825 L1874.92 18.9825 L1874.92 9.54393 Z" fill="#000000" fill-rule="evenodd" fill-opacity="1" /><path clip-path="url(#clip120)" d="M1930.62 28.9478 L1930.62 35.9153 Q1927.46 34.1734 1924.26 33.3227 Q1921.1 32.4315 1917.86 32.4315 Q1910.61 32.4315 1906.6 37.0496 Q1902.59 41.6271 1902.59 49.9314 Q1902.59 58.2358 1906.6 62.8538 Q1910.61 67.4314 1917.86 67.4314 Q1921.1 67.4314 1924.26 66.5807 Q1927.46 65.6895 1930.62 63.9476 L1930.62 70.8341 Q1927.5 72.2924 1924.14 73.0216 Q1920.82 73.7508 1917.05 73.7508 Q1906.8 73.7508 1900.76 67.3098 Q1894.73 60.8689 1894.73 49.9314 Q1894.73 38.832 1900.8 32.472 Q1906.92 26.1121 1917.53 26.1121 Q1920.98 26.1121 1924.26 26.8413 Q1927.54 27.5299 1930.62 28.9478 Z" fill="#000000" fill-rule="evenodd" fill-opacity="1" /><path clip-path="url(#clip120)" d="M1964.2 49.7694 Q1955.17 49.7694 1951.68 51.8354 Q1948.2 53.9013 1948.2 58.8839 Q1948.2 62.8538 1950.79 65.2034 Q1953.42 67.5124 1957.92 67.5124 Q1964.12 67.5124 1967.85 63.1374 Q1971.61 58.7219 1971.61 51.4303 L1971.61 49.7694 L1964.2 49.7694 M1979.07 46.6907 L1979.07 72.576 L1971.61 72.576 L1971.61 65.6895 Q1969.06 69.8214 1965.25 71.8063 Q1961.45 73.7508 1955.94 73.7508 Q1948.97 73.7508 1944.84 69.8619 Q1940.75 65.9325 1940.75 59.3701 Q1940.75 51.7138 1945.85 47.825 Q1950.99 43.9361 1961.16 43.9361 L1971.61 43.9361 L1971.61 43.2069 Q1971.61 38.0623 1968.21 35.2672 Q1964.85 32.4315 1958.73 32.4315 Q1954.84 32.4315 1951.16 33.3632 Q1947.47 34.295 1944.07 36.1584 L1944.07 29.2718 Q1948.16 27.692 1952.01 26.9223 Q1955.86 26.1121 1959.5 26.1121 Q1969.35 26.1121 1974.21 31.2163 Q1979.07 36.3204 1979.07 46.6907 Z" fill="#000000" fill-rule="evenodd" fill-opacity="1" /><path clip-path="url(#clip120)" d="M2050.65 34.0924 L2050.65 9.54393 L2058.1 9.54393 L2058.1 72.576 L2050.65 72.576 L2050.65 65.7705 Q2048.3 69.8214 2044.69 71.8063 Q2041.13 73.7508 2036.1 73.7508 Q2027.88 73.7508 2022.7 67.1883 Q2017.55 60.6258 2017.55 49.9314 Q2017.55 39.2371 2022.7 32.6746 Q2027.88 26.1121 2036.1 26.1121 Q2041.13 26.1121 2044.69 28.0971 Q2048.3 30.0415 2050.65 34.0924 M2025.25 49.9314 Q2025.25 58.1548 2028.61 62.8538 Q2032.01 67.5124 2037.93 67.5124 Q2043.84 67.5124 2047.24 62.8538 Q2050.65 58.1548 2050.65 49.9314 Q2050.65 41.7081 2047.24 37.0496 Q2043.84 32.3505 2037.93 32.3505 Q2032.01 32.3505 2028.61 37.0496 Q2025.25 41.7081 2025.25 49.9314 Z" fill="#000000" fill-rule="evenodd" fill-opacity="1" /><path clip-path="url(#clip120)" d="M2112.26 48.0275 L2112.26 51.6733 L2077.99 51.6733 Q2078.48 59.3701 2082.61 63.421 Q2086.78 67.4314 2094.19 67.4314 Q2098.49 67.4314 2102.5 66.3781 Q2106.55 65.3249 2110.52 63.2184 L2110.52 70.267 Q2106.51 71.9684 2102.3 72.8596 Q2098.08 73.7508 2093.75 73.7508 Q2082.89 73.7508 2076.53 67.4314 Q2070.21 61.1119 2070.21 50.3365 Q2070.21 39.1965 2076.21 32.6746 Q2082.24 26.1121 2092.45 26.1121 Q2101.61 26.1121 2106.91 32.0264 Q2112.26 37.9003 2112.26 48.0275 M2104.81 45.84 Q2104.73 39.7232 2101.36 36.0774 Q2098.04 32.4315 2092.53 32.4315 Q2086.29 32.4315 2082.53 35.9558 Q2078.8 39.4801 2078.23 45.8805 L2104.81 45.84 Z" fill="#000000" fill-rule="evenodd" fill-opacity="1" /><path clip-path="url(#clip120)" d="M2124.49 9.54393 L2131.95 9.54393 L2131.95 72.576 L2124.49 72.576 L2124.49 9.54393 Z" fill="#000000" fill-rule="evenodd" fill-opacity="1" /><path clip-path="url(#clip120)" d="M2202.84 28.5427 L2202.84 35.5912 Q2199.68 33.9709 2196.28 33.1607 Q2192.87 32.3505 2189.23 32.3505 Q2183.68 32.3505 2180.88 34.0519 Q2178.13 35.7533 2178.13 39.156 Q2178.13 41.7486 2180.11 43.2475 Q2182.1 44.7058 2188.09 46.0426 L2190.65 46.6097 Q2198.59 48.3111 2201.91 51.4303 Q2205.27 54.509 2205.27 60.0587 Q2205.27 66.3781 2200.25 70.0644 Q2195.26 73.7508 2186.51 73.7508 Q2182.87 73.7508 2178.9 73.0216 Q2174.97 72.3329 2170.59 70.9151 L2170.59 63.2184 Q2174.73 65.3654 2178.74 66.4591 Q2182.75 67.5124 2186.68 67.5124 Q2191.94 67.5124 2194.78 65.73 Q2197.61 63.9071 2197.61 60.6258 Q2197.61 57.5877 2195.55 55.9673 Q2193.52 54.3469 2186.6 52.8481 L2184 52.2405 Q2177.08 50.7821 2174 47.7845 Q2170.92 44.7463 2170.92 39.4801 Q2170.92 33.0797 2175.46 29.5959 Q2179.99 26.1121 2188.34 26.1121 Q2192.47 26.1121 2196.11 26.7198 Q2199.76 27.3274 2202.84 28.5427 Z" fill="#000000" fill-rule="evenodd" fill-opacity="1" /><path clip-path="url(#clip120)" d="M2255.95 48.0275 L2255.95 51.6733 L2221.68 51.6733 Q2222.16 59.3701 2226.29 63.421 Q2230.47 67.4314 2237.88 67.4314 Q2242.17 67.4314 2246.18 66.3781 Q2250.23 65.3249 2254.2 63.2184 L2254.2 70.267 Q2250.19 71.9684 2245.98 72.8596 Q2241.77 73.7508 2237.43 73.7508 Q2226.58 73.7508 2220.22 67.4314 Q2213.9 61.1119 2213.9 50.3365 Q2213.9 39.1965 2219.89 32.6746 Q2225.93 26.1121 2236.14 26.1121 Q2245.29 26.1121 2250.6 32.0264 Q2255.95 37.9003 2255.95 48.0275 M2248.49 45.84 Q2248.41 39.7232 2245.05 36.0774 Q2241.73 32.4315 2236.22 32.4315 Q2229.98 32.4315 2226.21 35.9558 Q2222.49 39.4801 2221.92 45.8805 L2248.49 45.84 Z" fill="#000000" fill-rule="evenodd" fill-opacity="1" /><path clip-path="url(#clip120)" d="M2305.89 45.1919 L2305.89 72.576 L2298.44 72.576 L2298.44 45.4349 Q2298.44 38.994 2295.93 35.7938 Q2293.42 32.5936 2288.39 32.5936 Q2282.36 32.5936 2278.87 36.4419 Q2275.39 40.2903 2275.39 46.9338 L2275.39 72.576 L2267.9 72.576 L2267.9 27.2059 L2275.39 27.2059 L2275.39 34.2544 Q2278.06 30.163 2281.67 28.1376 Q2285.32 26.1121 2290.06 26.1121 Q2297.87 26.1121 2301.88 30.9732 Q2305.89 35.7938 2305.89 45.1919 Z" fill="#000000" fill-rule="evenodd" fill-opacity="1" /><path clip-path="url(#clip120)" d="M2338.34 32.4315 Q2332.35 32.4315 2328.86 37.1306 Q2325.38 41.7891 2325.38 49.9314 Q2325.38 58.0738 2328.82 62.7728 Q2332.31 67.4314 2338.34 67.4314 Q2344.3 67.4314 2347.78 62.7323 Q2351.26 58.0333 2351.26 49.9314 Q2351.26 41.8701 2347.78 37.1711 Q2344.3 32.4315 2338.34 32.4315 M2338.34 26.1121 Q2348.06 26.1121 2353.61 32.4315 Q2359.16 38.7509 2359.16 49.9314 Q2359.16 61.0714 2353.61 67.4314 Q2348.06 73.7508 2338.34 73.7508 Q2328.58 73.7508 2323.03 67.4314 Q2317.52 61.0714 2317.52 49.9314 Q2317.52 38.7509 2323.03 32.4315 Q2328.58 26.1121 2338.34 26.1121 Z" fill="#000000" fill-rule="evenodd" fill-opacity="1" /><polyline clip-path="url(#clip122)" style="stroke:#008000; stroke-linecap:butt; stroke-linejoin:round; stroke-width:12; stroke-opacity:1; fill:none" stroke-dasharray="48, 30" points="
  359.715,934.337 375.99,958.245 392.265,982.131 542.751,1197.96 693.237,1392.72 783.672,1493.02 874.108,1577.12 912.339,1607.19 950.57,1633.77 988.801,1656.72 
  1027.03,1675.91 1110.09,1704.25 1193.15,1713.74 1269.72,1705.6 1346.3,1681.41 1428.39,1638.24 1510.49,1578.25 1605.6,1489.61 1700.72,1383.16 1785.24,1276.37 
  1869.77,1160.91 1943.89,1054.84 2018.02,946.421 2098.83,828.017 2179.64,712.076 2260.94,600.646 2342.23,497.037 2432.11,394.508 2521.99,307.439 2607.51,241.231 
  2693.03,192.998 2737.49,175.459 2781.95,163.247 2826.41,156.448 2870.87,155.111 2945.72,165.204 3020.57,190.585 3111.96,241.541 3203.34,313.007 3289.25,397.005 
  3375.15,495.064 3512.78,674.933 3650.4,872.164 3671.58,903.226 3692.76,934.337 
  "/>
</svg>
