<?xml version="1.0" encoding="utf-8"?>
<svg xmlns="http://www.w3.org/2000/svg" xmlns:xlink="http://www.w3.org/1999/xlink" width="960" height="480" viewBox="0 0 3840 1920">
<defs>
  <clipPath id="clip970">
    <rect x="0" y="0" width="3840" height="1920"/>
  </clipPath>
</defs>
<path clip-path="url(#clip970)" d="
M0 1920 L3840 1920 L3840 0 L0 0  Z
  " fill="#ffffff" fill-rule="evenodd" fill-opacity="1"/>
<defs>
  <clipPath id="clip971">
    <rect x="768" y="0" width="2689" height="1920"/>
  </clipPath>
</defs>
<path clip-path="url(#clip970)" d="
M193.267 1811.89 L3792.76 1811.89 L3792.76 47.2441 L193.267 47.2441  Z
  " fill="#ffffff" fill-rule="evenodd" fill-opacity="1"/>
<defs>
  <clipPath id="clip972">
    <rect x="193" y="47" width="3600" height="1766"/>
  </clipPath>
</defs>
<polyline clip-path="url(#clip972)" style="stroke:#000000; stroke-linecap:butt; stroke-linejoin:round; stroke-width:2; stroke-opacity:0.1; fill:none" points="
  295.139,1811.89 295.139,47.2441 
  "/>
<polyline clip-path="url(#clip972)" style="stroke:#000000; stroke-linecap:butt; stroke-linejoin:round; stroke-width:2; stroke-opacity:0.1; fill:none" points="
  1144.08,1811.89 1144.08,47.2441 
  "/>
<polyline clip-path="url(#clip972)" style="stroke:#000000; stroke-linecap:butt; stroke-linejoin:round; stroke-width:2; stroke-opacity:0.1; fill:none" points="
  1993.01,1811.89 1993.01,47.2441 
  "/>
<polyline clip-path="url(#clip972)" style="stroke:#000000; stroke-linecap:butt; stroke-linejoin:round; stroke-width:2; stroke-opacity:0.1; fill:none" points="
  2841.95,1811.89 2841.95,47.2441 
  "/>
<polyline clip-path="url(#clip972)" style="stroke:#000000; stroke-linecap:butt; stroke-linejoin:round; stroke-width:2; stroke-opacity:0.1; fill:none" points="
  3690.88,1811.89 3690.88,47.2441 
  "/>
<polyline clip-path="url(#clip970)" style="stroke:#000000; stroke-linecap:butt; stroke-linejoin:round; stroke-width:4; stroke-opacity:1; fill:none" points="
  193.267,1811.89 3792.76,1811.89 
  "/>
<polyline clip-path="url(#clip970)" style="stroke:#000000; stroke-linecap:butt; stroke-linejoin:round; stroke-width:4; stroke-opacity:1; fill:none" points="
  295.139,1811.89 295.139,1792.99 
  "/>
<polyline clip-path="url(#clip970)" style="stroke:#000000; stroke-linecap:butt; stroke-linejoin:round; stroke-width:4; stroke-opacity:1; fill:none" points="
  1144.08,1811.89 1144.08,1792.99 
  "/>
<polyline clip-path="url(#clip970)" style="stroke:#000000; stroke-linecap:butt; stroke-linejoin:round; stroke-width:4; stroke-opacity:1; fill:none" points="
  1993.01,1811.89 1993.01,1792.99 
  "/>
<polyline clip-path="url(#clip970)" style="stroke:#000000; stroke-linecap:butt; stroke-linejoin:round; stroke-width:4; stroke-opacity:1; fill:none" points="
  2841.95,1811.89 2841.95,1792.99 
  "/>
<polyline clip-path="url(#clip970)" style="stroke:#000000; stroke-linecap:butt; stroke-linejoin:round; stroke-width:4; stroke-opacity:1; fill:none" points="
  3690.88,1811.89 3690.88,1792.99 
  "/>
<path clip-path="url(#clip970)" d="M241.667 1868.98 L271.343 1868.98 L271.343 1872.91 L241.667 1872.91 L241.667 1868.98 Z" fill="#000000" fill-rule="evenodd" fill-opacity="1" /><path clip-path="url(#clip970)" d="M282.246 1881.87 L289.884 1881.87 L289.884 1855.51 L281.574 1857.17 L281.574 1852.91 L289.838 1851.25 L294.514 1851.25 L294.514 1881.87 L302.153 1881.87 L302.153 1885.81 L282.246 1885.81 L282.246 1881.87 Z" fill="#000000" fill-rule="evenodd" fill-opacity="1" /><path clip-path="url(#clip970)" d="M311.597 1879.93 L316.481 1879.93 L316.481 1885.81 L311.597 1885.81 L311.597 1879.93 Z" fill="#000000" fill-rule="evenodd" fill-opacity="1" /><path clip-path="url(#clip970)" d="M336.667 1854.33 Q333.055 1854.33 331.227 1857.89 Q329.421 1861.43 329.421 1868.56 Q329.421 1875.67 331.227 1879.23 Q333.055 1882.78 336.667 1882.78 Q340.301 1882.78 342.106 1879.23 Q343.935 1875.67 343.935 1868.56 Q343.935 1861.43 342.106 1857.89 Q340.301 1854.33 336.667 1854.33 M336.667 1850.62 Q342.477 1850.62 345.532 1855.23 Q348.611 1859.81 348.611 1868.56 Q348.611 1877.29 345.532 1881.9 Q342.477 1886.48 336.667 1886.48 Q330.856 1886.48 327.778 1881.9 Q324.722 1877.29 324.722 1868.56 Q324.722 1859.81 327.778 1855.23 Q330.856 1850.62 336.667 1850.62 Z" fill="#000000" fill-rule="evenodd" fill-opacity="1" /><path clip-path="url(#clip970)" d="M1091.1 1868.98 L1120.78 1868.98 L1120.78 1872.91 L1091.1 1872.91 L1091.1 1868.98 Z" fill="#000000" fill-rule="evenodd" fill-opacity="1" /><path clip-path="url(#clip970)" d="M1140.87 1854.33 Q1137.26 1854.33 1135.43 1857.89 Q1133.62 1861.43 1133.62 1868.56 Q1133.62 1875.67 1135.43 1879.23 Q1137.26 1882.78 1140.87 1882.78 Q1144.5 1882.78 1146.31 1879.23 Q1148.14 1875.67 1148.14 1868.56 Q1148.14 1861.43 1146.31 1857.89 Q1144.5 1854.33 1140.87 1854.33 M1140.87 1850.62 Q1146.68 1850.62 1149.73 1855.23 Q1152.81 1859.81 1152.81 1868.56 Q1152.81 1877.29 1149.73 1881.9 Q1146.68 1886.48 1140.87 1886.48 Q1135.06 1886.48 1131.98 1881.9 Q1128.92 1877.29 1128.92 1868.56 Q1128.92 1859.81 1131.98 1855.23 Q1135.06 1850.62 1140.87 1850.62 Z" fill="#000000" fill-rule="evenodd" fill-opacity="1" /><path clip-path="url(#clip970)" d="M1161.03 1879.93 L1165.92 1879.93 L1165.92 1885.81 L1161.03 1885.81 L1161.03 1879.93 Z" fill="#000000" fill-rule="evenodd" fill-opacity="1" /><path clip-path="url(#clip970)" d="M1176.15 1851.25 L1194.5 1851.25 L1194.5 1855.18 L1180.43 1855.18 L1180.43 1863.66 Q1181.45 1863.31 1182.47 1863.15 Q1183.48 1862.96 1184.5 1862.96 Q1190.29 1862.96 1193.67 1866.13 Q1197.05 1869.3 1197.05 1874.72 Q1197.05 1880.3 1193.58 1883.4 Q1190.1 1886.48 1183.79 1886.48 Q1181.61 1886.48 1179.34 1886.11 Q1177.1 1885.74 1174.69 1885 L1174.69 1880.3 Q1176.77 1881.43 1178.99 1881.99 Q1181.22 1882.54 1183.69 1882.54 Q1187.7 1882.54 1190.04 1880.44 Q1192.37 1878.33 1192.37 1874.72 Q1192.37 1871.11 1190.04 1869 Q1187.7 1866.9 1183.69 1866.9 Q1181.82 1866.9 1179.94 1867.31 Q1178.09 1867.73 1176.15 1868.61 L1176.15 1851.25 Z" fill="#000000" fill-rule="evenodd" fill-opacity="1" /><path clip-path="url(#clip970)" d="M1970.4 1854.33 Q1966.78 1854.33 1964.96 1857.89 Q1963.15 1861.43 1963.15 1868.56 Q1963.15 1875.67 1964.96 1879.23 Q1966.78 1882.78 1970.4 1882.78 Q1974.03 1882.78 1975.84 1879.23 Q1977.66 1875.67 1977.66 1868.56 Q1977.66 1861.43 1975.84 1857.89 Q1974.03 1854.33 1970.4 1854.33 M1970.4 1850.62 Q1976.21 1850.62 1979.26 1855.23 Q1982.34 1859.81 1982.34 1868.56 Q1982.34 1877.29 1979.26 1881.9 Q1976.21 1886.48 1970.4 1886.48 Q1964.59 1886.48 1961.51 1881.9 Q1958.45 1877.29 1958.45 1868.56 Q1958.45 1859.81 1961.51 1855.23 Q1964.59 1850.62 1970.4 1850.62 Z" fill="#000000" fill-rule="evenodd" fill-opacity="1" /><path clip-path="url(#clip970)" d="M1990.56 1879.93 L1995.44 1879.93 L1995.44 1885.81 L1990.56 1885.81 L1990.56 1879.93 Z" fill="#000000" fill-rule="evenodd" fill-opacity="1" /><path clip-path="url(#clip970)" d="M2015.63 1854.33 Q2012.02 1854.33 2010.19 1857.89 Q2008.38 1861.43 2008.38 1868.56 Q2008.38 1875.67 2010.19 1879.23 Q2012.02 1882.78 2015.63 1882.78 Q2019.26 1882.78 2021.07 1879.23 Q2022.9 1875.67 2022.9 1868.56 Q2022.9 1861.43 2021.07 1857.89 Q2019.26 1854.33 2015.63 1854.33 M2015.63 1850.62 Q2021.44 1850.62 2024.49 1855.23 Q2027.57 1859.81 2027.57 1868.56 Q2027.57 1877.29 2024.49 1881.9 Q2021.44 1886.48 2015.63 1886.48 Q2009.82 1886.48 2006.74 1881.9 Q2003.68 1877.29 2003.68 1868.56 Q2003.68 1859.81 2006.74 1855.23 Q2009.82 1850.62 2015.63 1850.62 Z" fill="#000000" fill-rule="evenodd" fill-opacity="1" /><path clip-path="url(#clip970)" d="M2819.83 1854.33 Q2816.22 1854.33 2814.39 1857.89 Q2812.58 1861.43 2812.58 1868.56 Q2812.58 1875.67 2814.39 1879.23 Q2816.22 1882.78 2819.83 1882.78 Q2823.46 1882.78 2825.27 1879.23 Q2827.1 1875.67 2827.1 1868.56 Q2827.1 1861.43 2825.27 1857.89 Q2823.46 1854.33 2819.83 1854.33 M2819.83 1850.62 Q2825.64 1850.62 2828.7 1855.23 Q2831.77 1859.81 2831.77 1868.56 Q2831.77 1877.29 2828.7 1881.9 Q2825.64 1886.48 2819.83 1886.48 Q2814.02 1886.48 2810.94 1881.9 Q2807.89 1877.29 2807.89 1868.56 Q2807.89 1859.81 2810.94 1855.23 Q2814.02 1850.62 2819.83 1850.62 Z" fill="#000000" fill-rule="evenodd" fill-opacity="1" /><path clip-path="url(#clip970)" d="M2839.99 1879.93 L2844.88 1879.93 L2844.88 1885.81 L2839.99 1885.81 L2839.99 1879.93 Z" fill="#000000" fill-rule="evenodd" fill-opacity="1" /><path clip-path="url(#clip970)" d="M2855.11 1851.25 L2873.46 1851.25 L2873.46 1855.18 L2859.39 1855.18 L2859.39 1863.66 Q2860.41 1863.31 2861.43 1863.15 Q2862.44 1862.96 2863.46 1862.96 Q2869.25 1862.96 2872.63 1866.13 Q2876.01 1869.3 2876.01 1874.72 Q2876.01 1880.3 2872.54 1883.4 Q2869.07 1886.48 2862.75 1886.48 Q2860.57 1886.48 2858.3 1886.11 Q2856.06 1885.74 2853.65 1885 L2853.65 1880.3 Q2855.73 1881.43 2857.95 1881.99 Q2860.18 1882.54 2862.65 1882.54 Q2866.66 1882.54 2869 1880.44 Q2871.33 1878.33 2871.33 1874.72 Q2871.33 1871.11 2869 1869 Q2866.66 1866.9 2862.65 1866.9 Q2860.78 1866.9 2858.9 1867.31 Q2857.05 1867.73 2855.11 1868.61 L2855.11 1851.25 Z" fill="#000000" fill-rule="evenodd" fill-opacity="1" /><path clip-path="url(#clip970)" d="M3658.04 1881.87 L3665.68 1881.87 L3665.68 1855.51 L3657.37 1857.17 L3657.37 1852.91 L3665.63 1851.25 L3670.3 1851.25 L3670.3 1881.87 L3677.94 1881.87 L3677.94 1885.81 L3658.04 1885.81 L3658.04 1881.87 Z" fill="#000000" fill-rule="evenodd" fill-opacity="1" /><path clip-path="url(#clip970)" d="M3687.39 1879.93 L3692.27 1879.93 L3692.27 1885.81 L3687.39 1885.81 L3687.39 1879.93 Z" fill="#000000" fill-rule="evenodd" fill-opacity="1" /><path clip-path="url(#clip970)" d="M3712.46 1854.33 Q3708.85 1854.33 3707.02 1857.89 Q3705.21 1861.43 3705.21 1868.56 Q3705.21 1875.67 3707.02 1879.23 Q3708.85 1882.78 3712.46 1882.78 Q3716.09 1882.78 3717.9 1879.23 Q3719.73 1875.67 3719.73 1868.56 Q3719.73 1861.43 3717.9 1857.89 Q3716.09 1854.33 3712.46 1854.33 M3712.46 1850.62 Q3718.27 1850.62 3721.32 1855.23 Q3724.4 1859.81 3724.4 1868.56 Q3724.4 1877.29 3721.32 1881.9 Q3718.27 1886.48 3712.46 1886.48 Q3706.65 1886.48 3703.57 1881.9 Q3700.51 1877.29 3700.51 1868.56 Q3700.51 1859.81 3703.57 1855.23 Q3706.65 1850.62 3712.46 1850.62 Z" fill="#000000" fill-rule="evenodd" fill-opacity="1" /><polyline clip-path="url(#clip972)" style="stroke:#000000; stroke-linecap:butt; stroke-linejoin:round; stroke-width:2; stroke-opacity:0.1; fill:none" points="
  193.267,1769.88 3792.76,1769.88 
  "/>
<polyline clip-path="url(#clip972)" style="stroke:#000000; stroke-linecap:butt; stroke-linejoin:round; stroke-width:2; stroke-opacity:0.1; fill:none" points="
  193.267,1350.06 3792.76,1350.06 
  "/>
<polyline clip-path="url(#clip972)" style="stroke:#000000; stroke-linecap:butt; stroke-linejoin:round; stroke-width:2; stroke-opacity:0.1; fill:none" points="
  193.267,930.228 3792.76,930.228 
  "/>
<polyline clip-path="url(#clip972)" style="stroke:#000000; stroke-linecap:butt; stroke-linejoin:round; stroke-width:2; stroke-opacity:0.1; fill:none" points="
  193.267,510.399 3792.76,510.399 
  "/>
<polyline clip-path="url(#clip972)" style="stroke:#000000; stroke-linecap:butt; stroke-linejoin:round; stroke-width:2; stroke-opacity:0.1; fill:none" points="
  193.267,90.5704 3792.76,90.5704 
  "/>
<polyline clip-path="url(#clip970)" style="stroke:#000000; stroke-linecap:butt; stroke-linejoin:round; stroke-width:4; stroke-opacity:1; fill:none" points="
  193.267,1811.89 193.267,47.2441 
  "/>
<polyline clip-path="url(#clip970)" style="stroke:#000000; stroke-linecap:butt; stroke-linejoin:round; stroke-width:4; stroke-opacity:1; fill:none" points="
  193.267,1769.88 212.164,1769.88 
  "/>
<polyline clip-path="url(#clip970)" style="stroke:#000000; stroke-linecap:butt; stroke-linejoin:round; stroke-width:4; stroke-opacity:1; fill:none" points="
  193.267,1350.06 212.164,1350.06 
  "/>
<polyline clip-path="url(#clip970)" style="stroke:#000000; stroke-linecap:butt; stroke-linejoin:round; stroke-width:4; stroke-opacity:1; fill:none" points="
  193.267,930.228 212.164,930.228 
  "/>
<polyline clip-path="url(#clip970)" style="stroke:#000000; stroke-linecap:butt; stroke-linejoin:round; stroke-width:4; stroke-opacity:1; fill:none" points="
  193.267,510.399 212.164,510.399 
  "/>
<polyline clip-path="url(#clip970)" style="stroke:#000000; stroke-linecap:butt; stroke-linejoin:round; stroke-width:4; stroke-opacity:1; fill:none" points="
  193.267,90.5704 212.164,90.5704 
  "/>
<path clip-path="url(#clip970)" d="M43.7921 1770.34 L73.4679 1770.34 L73.4679 1774.27 L43.7921 1774.27 L43.7921 1770.34 Z" fill="#000000" fill-rule="evenodd" fill-opacity="1" /><path clip-path="url(#clip970)" d="M87.5882 1783.23 L103.908 1783.23 L103.908 1787.16 L81.9632 1787.16 L81.9632 1783.23 Q84.6252 1780.47 89.2085 1775.85 Q93.815 1771.19 94.9956 1769.85 Q97.2409 1767.33 98.1205 1765.59 Q99.0233 1763.83 99.0233 1762.14 Q99.0233 1759.39 97.0789 1757.65 Q95.1576 1755.91 92.0558 1755.91 Q89.8567 1755.91 87.403 1756.68 Q84.9725 1757.44 82.1947 1758.99 L82.1947 1754.27 Q85.0188 1753.14 87.4724 1752.56 Q89.9261 1751.98 91.9632 1751.98 Q97.3335 1751.98 100.528 1754.66 Q103.722 1757.35 103.722 1761.84 Q103.722 1763.97 102.912 1765.89 Q102.125 1767.79 100.019 1770.38 Q99.44 1771.05 96.3381 1774.27 Q93.2363 1777.47 87.5882 1783.23 Z" fill="#000000" fill-rule="evenodd" fill-opacity="1" /><path clip-path="url(#clip970)" d="M123.722 1755.68 Q120.111 1755.68 118.282 1759.25 Q116.477 1762.79 116.477 1769.92 Q116.477 1777.03 118.282 1780.59 Q120.111 1784.13 123.722 1784.13 Q127.356 1784.13 129.162 1780.59 Q130.991 1777.03 130.991 1769.92 Q130.991 1762.79 129.162 1759.25 Q127.356 1755.68 123.722 1755.68 M123.722 1751.98 Q129.532 1751.98 132.588 1756.59 Q135.667 1761.17 135.667 1769.92 Q135.667 1778.65 132.588 1783.25 Q129.532 1787.84 123.722 1787.84 Q117.912 1787.84 114.833 1783.25 Q111.778 1778.65 111.778 1769.92 Q111.778 1761.17 114.833 1756.59 Q117.912 1751.98 123.722 1751.98 Z" fill="#000000" fill-rule="evenodd" fill-opacity="1" /><path clip-path="url(#clip970)" d="M43.7921 1350.51 L73.4679 1350.51 L73.4679 1354.44 L43.7921 1354.44 L43.7921 1350.51 Z" fill="#000000" fill-rule="evenodd" fill-opacity="1" /><path clip-path="url(#clip970)" d="M84.3706 1363.4 L92.0095 1363.4 L92.0095 1337.04 L83.6993 1338.7 L83.6993 1334.44 L91.9632 1332.78 L96.6391 1332.78 L96.6391 1363.4 L104.278 1363.4 L104.278 1367.34 L84.3706 1367.34 L84.3706 1363.4 Z" fill="#000000" fill-rule="evenodd" fill-opacity="1" /><path clip-path="url(#clip970)" d="M123.722 1335.85 Q120.111 1335.85 118.282 1339.42 Q116.477 1342.96 116.477 1350.09 Q116.477 1357.2 118.282 1360.76 Q120.111 1364.3 123.722 1364.3 Q127.356 1364.3 129.162 1360.76 Q130.991 1357.2 130.991 1350.09 Q130.991 1342.96 129.162 1339.42 Q127.356 1335.85 123.722 1335.85 M123.722 1332.15 Q129.532 1332.15 132.588 1336.76 Q135.667 1341.34 135.667 1350.09 Q135.667 1358.82 132.588 1363.42 Q129.532 1368.01 123.722 1368.01 Q117.912 1368.01 114.833 1363.42 Q111.778 1358.82 111.778 1350.09 Q111.778 1341.34 114.833 1336.76 Q117.912 1332.15 123.722 1332.15 Z" fill="#000000" fill-rule="evenodd" fill-opacity="1" /><path clip-path="url(#clip970)" d="M123.722 916.026 Q120.111 916.026 118.282 919.591 Q116.477 923.133 116.477 930.262 Q116.477 937.369 118.282 940.934 Q120.111 944.475 123.722 944.475 Q127.356 944.475 129.162 940.934 Q130.991 937.369 130.991 930.262 Q130.991 923.133 129.162 919.591 Q127.356 916.026 123.722 916.026 M123.722 912.323 Q129.532 912.323 132.588 916.929 Q135.667 921.512 135.667 930.262 Q135.667 938.989 132.588 943.596 Q129.532 948.179 123.722 948.179 Q117.912 948.179 114.833 943.596 Q111.778 938.989 111.778 930.262 Q111.778 921.512 114.833 916.929 Q117.912 912.323 123.722 912.323 Z" fill="#000000" fill-rule="evenodd" fill-opacity="1" /><path clip-path="url(#clip970)" d="M84.3706 523.744 L92.0095 523.744 L92.0095 497.378 L83.6993 499.045 L83.6993 494.786 L91.9632 493.119 L96.6391 493.119 L96.6391 523.744 L104.278 523.744 L104.278 527.679 L84.3706 527.679 L84.3706 523.744 Z" fill="#000000" fill-rule="evenodd" fill-opacity="1" /><path clip-path="url(#clip970)" d="M123.722 496.198 Q120.111 496.198 118.282 499.762 Q116.477 503.304 116.477 510.434 Q116.477 517.54 118.282 521.105 Q120.111 524.647 123.722 524.647 Q127.356 524.647 129.162 521.105 Q130.991 517.54 130.991 510.434 Q130.991 503.304 129.162 499.762 Q127.356 496.198 123.722 496.198 M123.722 492.494 Q129.532 492.494 132.588 497.1 Q135.667 501.684 135.667 510.434 Q135.667 519.161 132.588 523.767 Q129.532 528.35 123.722 528.35 Q117.912 528.35 114.833 523.767 Q111.778 519.161 111.778 510.434 Q111.778 501.684 114.833 497.1 Q117.912 492.494 123.722 492.494 Z" fill="#000000" fill-rule="evenodd" fill-opacity="1" /><path clip-path="url(#clip970)" d="M87.5882 103.915 L103.908 103.915 L103.908 107.85 L81.9632 107.85 L81.9632 103.915 Q84.6252 101.161 89.2085 96.531 Q93.815 91.8783 94.9956 90.5357 Q97.2409 88.0125 98.1205 86.2764 Q99.0233 84.5172 99.0233 82.8274 Q99.0233 80.0728 97.0789 78.3367 Q95.1576 76.6006 92.0558 76.6006 Q89.8567 76.6006 87.403 77.3644 Q84.9725 78.1283 82.1947 79.6792 L82.1947 74.957 Q85.0188 73.8228 87.4724 73.2441 Q89.9261 72.6654 91.9632 72.6654 Q97.3335 72.6654 100.528 75.3506 Q103.722 78.0357 103.722 82.5265 Q103.722 84.6561 102.912 86.5774 Q102.125 88.4755 100.019 91.0681 Q99.44 91.7394 96.3381 94.9569 Q93.2363 98.1514 87.5882 103.915 Z" fill="#000000" fill-rule="evenodd" fill-opacity="1" /><path clip-path="url(#clip970)" d="M123.722 76.3691 Q120.111 76.3691 118.282 79.9339 Q116.477 83.4755 116.477 90.6051 Q116.477 97.7116 118.282 101.276 Q120.111 104.818 123.722 104.818 Q127.356 104.818 129.162 101.276 Q130.991 97.7116 130.991 90.6051 Q130.991 83.4755 129.162 79.9339 Q127.356 76.3691 123.722 76.3691 M123.722 72.6654 Q129.532 72.6654 132.588 77.2718 Q135.667 81.8552 135.667 90.6051 Q135.667 99.3319 132.588 103.938 Q129.532 108.522 123.722 108.522 Q117.912 108.522 114.833 103.938 Q111.778 99.3319 111.778 90.6051 Q111.778 81.8552 114.833 77.2718 Q117.912 72.6654 123.722 72.6654 Z" fill="#000000" fill-rule="evenodd" fill-opacity="1" /><polyline clip-path="url(#clip972)" style="stroke:#009af9; stroke-linecap:butt; stroke-linejoin:round; stroke-width:4; stroke-opacity:1; fill:none" points="
  295.139,972.21 317.247,972.764 521.669,978.674 644.518,983.088 748.385,987.499 861.214,993.208 965.232,999.582 1076.75,1008.02 1205.96,1020.79 1263.37,1027.92 
  1320.78,1036.26 1371.12,1044.85 1421.47,1054.95 1448.91,1061.24 1476.36,1068.19 1503.8,1075.93 1531.25,1084.59 1558.85,1094.41 1586.46,1105.56 1600.26,1111.72 
  1614.07,1118.33 1620.97,1121.82 1627.87,1125.44 1634.77,1129.21 1641.68,1133.11 1672.2,1152.42 1702.72,1175.78 1717.99,1189.41 1733.25,1204.64 1748.51,1221.76 
  1763.77,1241.17 1778.29,1262.2 1792.81,1286.28 1800.07,1299.68 1807.33,1314.13 1814.6,1329.75 1821.86,1346.7 1829.12,1365.15 1836.38,1385.31 1843.64,1407.43 
  1850.9,1431.81 1858.16,1458.82 1865.42,1488.9 1872.68,1522.61 1879.94,1560.64 1881.83,1571.35 1883.72,1582.42 1885.6,1593.88 1887.49,1605.75 1891.26,1630.81 
  1895.04,1657.8 1898.81,1686.96 1902.59,1718.54 1904.48,1735.35 1906.36,1752.89 1907.31,1761.95 
  "/>
<polyline clip-path="url(#clip972)" style="stroke:#009af9; stroke-linecap:butt; stroke-linejoin:round; stroke-width:4; stroke-opacity:1; fill:none" points="
  2078.58,97.1868 2079.37,104.849 2080.17,112.372 2081.76,127.013 2083.35,141.14 2086.52,167.953 2089.7,193.003 2092.88,216.46 2096.06,238.47 2097.64,248.973 
  2099.23,259.163 2100.82,269.052 2102.41,278.654 2106.29,300.968 2110.17,321.804 2114.05,341.304 2117.93,359.594 2125.69,392.964 2133.45,422.647 2141.2,449.221 
  2148.96,473.152 2156.72,494.814 2164.48,514.516 2172.24,532.512 2180,549.014 2187.76,564.202 2195.51,578.226 2211.03,603.279 2226.55,625.003 2240.76,642.516 
  2254.98,658.127 2269.19,672.132 2283.41,684.766 2311.84,706.654 2340.27,724.958 2346.83,728.766 2353.4,732.435 2359.96,735.974 2366.53,739.388 2379.65,745.868 
  2392.78,751.922 2419.04,762.911 2445.3,772.625 2471.89,781.378 2498.49,789.21 2525.09,796.26 2551.69,802.638 2611.3,814.94 2670.92,825.079 2724.94,832.84 
  2778.97,839.534 2902.67,851.867 3017.21,860.63 3130.13,867.542 3239.77,873.054 3352.17,877.782 3475.3,882.139 3654.19,887.317 3690.88,888.245 
  "/>
<path clip-path="url(#clip970)" d="
M3236.34 209.746 L3672.77 209.746 L3672.77 106.066 L3236.34 106.066  Z
  " fill="#ffffff" fill-rule="evenodd" fill-opacity="1"/>
<polyline clip-path="url(#clip970)" style="stroke:#000000; stroke-linecap:butt; stroke-linejoin:round; stroke-width:4; stroke-opacity:1; fill:none" points="
  3236.34,209.746 3672.77,209.746 3672.77,106.066 3236.34,106.066 3236.34,209.746 
  "/>
<polyline clip-path="url(#clip970)" style="stroke:#009af9; stroke-linecap:butt; stroke-linejoin:round; stroke-width:4; stroke-opacity:1; fill:none" points="
  3274.74,157.906 3505.14,157.906 
  "/>
<path clip-path="url(#clip970)" d="M3557.39 177.593 Q3555.58 182.223 3553.87 183.635 Q3552.15 185.047 3549.28 185.047 L3545.88 185.047 L3545.88 181.482 L3548.38 181.482 Q3550.14 181.482 3551.11 180.648 Q3552.08 179.815 3553.26 176.713 L3554.03 174.769 L3543.54 149.26 L3548.06 149.26 L3556.16 169.537 L3564.26 149.26 L3568.77 149.26 L3557.39 177.593 Z" fill="#000000" fill-rule="evenodd" fill-opacity="1" /><path clip-path="url(#clip970)" d="M3576.07 171.25 L3583.7 171.25 L3583.7 144.885 L3575.39 146.551 L3575.39 142.292 L3583.66 140.626 L3588.33 140.626 L3588.33 171.25 L3595.97 171.25 L3595.97 175.186 L3576.07 175.186 L3576.07 171.25 Z" fill="#000000" fill-rule="evenodd" fill-opacity="1" /></svg>
