<?xml version="1.0" encoding="utf-8"?>
<svg xmlns="http://www.w3.org/2000/svg" xmlns:xlink="http://www.w3.org/1999/xlink" width="960" height="480" viewBox="0 0 3840 1920">
<defs>
  <clipPath id="clip810">
    <rect x="0" y="0" width="3840" height="1920"/>
  </clipPath>
</defs>
<path clip-path="url(#clip810)" d="
M0 1920 L3840 1920 L3840 0 L0 0  Z
  " fill="#ffffff" fill-rule="evenodd" fill-opacity="1"/>
<defs>
  <clipPath id="clip811">
    <rect x="768" y="0" width="2689" height="1920"/>
  </clipPath>
</defs>
<path clip-path="url(#clip810)" d="
M200.674 1811.89 L3792.76 1811.89 L3792.76 47.2441 L200.674 47.2441  Z
  " fill="#ffffff" fill-rule="evenodd" fill-opacity="1"/>
<defs>
  <clipPath id="clip812">
    <rect x="200" y="47" width="3593" height="1766"/>
  </clipPath>
</defs>
<polyline clip-path="url(#clip812)" style="stroke:#000000; stroke-linecap:butt; stroke-linejoin:round; stroke-width:2; stroke-opacity:0.1; fill:none" points="
  302.337,1811.89 302.337,47.2441 
  "/>
<polyline clip-path="url(#clip812)" style="stroke:#000000; stroke-linecap:butt; stroke-linejoin:round; stroke-width:2; stroke-opacity:0.1; fill:none" points="
  867.129,1811.89 867.129,47.2441 
  "/>
<polyline clip-path="url(#clip812)" style="stroke:#000000; stroke-linecap:butt; stroke-linejoin:round; stroke-width:2; stroke-opacity:0.1; fill:none" points="
  1431.92,1811.89 1431.92,47.2441 
  "/>
<polyline clip-path="url(#clip812)" style="stroke:#000000; stroke-linecap:butt; stroke-linejoin:round; stroke-width:2; stroke-opacity:0.1; fill:none" points="
  1996.71,1811.89 1996.71,47.2441 
  "/>
<polyline clip-path="url(#clip812)" style="stroke:#000000; stroke-linecap:butt; stroke-linejoin:round; stroke-width:2; stroke-opacity:0.1; fill:none" points="
  2561.51,1811.89 2561.51,47.2441 
  "/>
<polyline clip-path="url(#clip812)" style="stroke:#000000; stroke-linecap:butt; stroke-linejoin:round; stroke-width:2; stroke-opacity:0.1; fill:none" points="
  3126.3,1811.89 3126.3,47.2441 
  "/>
<polyline clip-path="url(#clip812)" style="stroke:#000000; stroke-linecap:butt; stroke-linejoin:round; stroke-width:2; stroke-opacity:0.1; fill:none" points="
  3691.09,1811.89 3691.09,47.2441 
  "/>
<polyline clip-path="url(#clip810)" style="stroke:#000000; stroke-linecap:butt; stroke-linejoin:round; stroke-width:4; stroke-opacity:1; fill:none" points="
  200.674,1811.89 3792.76,1811.89 
  "/>
<polyline clip-path="url(#clip810)" style="stroke:#000000; stroke-linecap:butt; stroke-linejoin:round; stroke-width:4; stroke-opacity:1; fill:none" points="
  302.337,1811.89 302.337,1792.99 
  "/>
<polyline clip-path="url(#clip810)" style="stroke:#000000; stroke-linecap:butt; stroke-linejoin:round; stroke-width:4; stroke-opacity:1; fill:none" points="
  867.129,1811.89 867.129,1792.99 
  "/>
<polyline clip-path="url(#clip810)" style="stroke:#000000; stroke-linecap:butt; stroke-linejoin:round; stroke-width:4; stroke-opacity:1; fill:none" points="
  1431.92,1811.89 1431.92,1792.99 
  "/>
<polyline clip-path="url(#clip810)" style="stroke:#000000; stroke-linecap:butt; stroke-linejoin:round; stroke-width:4; stroke-opacity:1; fill:none" points="
  1996.71,1811.89 1996.71,1792.99 
  "/>
<polyline clip-path="url(#clip810)" style="stroke:#000000; stroke-linecap:butt; stroke-linejoin:round; stroke-width:4; stroke-opacity:1; fill:none" points="
  2561.51,1811.89 2561.51,1792.99 
  "/>
<polyline clip-path="url(#clip810)" style="stroke:#000000; stroke-linecap:butt; stroke-linejoin:round; stroke-width:4; stroke-opacity:1; fill:none" points="
  3126.3,1811.89 3126.3,1792.99 
  "/>
<polyline clip-path="url(#clip810)" style="stroke:#000000; stroke-linecap:butt; stroke-linejoin:round; stroke-width:4; stroke-opacity:1; fill:none" points="
  3691.09,1811.89 3691.09,1792.99 
  "/>
<path clip-path="url(#clip810)" d="M271.804 1868.98 L301.48 1868.98 L301.48 1872.91 L271.804 1872.91 L271.804 1868.98 Z" fill="#000000" fill-rule="evenodd" fill-opacity="1" /><path clip-path="url(#clip810)" d="M325.739 1867.17 Q329.096 1867.89 330.971 1870.16 Q332.869 1872.43 332.869 1875.76 Q332.869 1880.88 329.35 1883.68 Q325.832 1886.48 319.35 1886.48 Q317.175 1886.48 314.86 1886.04 Q312.568 1885.62 310.114 1884.77 L310.114 1880.25 Q312.059 1881.39 314.374 1881.97 Q316.688 1882.54 319.212 1882.54 Q323.61 1882.54 325.901 1880.81 Q328.216 1879.07 328.216 1875.76 Q328.216 1872.71 326.063 1870.99 Q323.934 1869.26 320.114 1869.26 L316.087 1869.26 L316.087 1865.41 L320.3 1865.41 Q323.749 1865.41 325.577 1864.05 Q327.406 1862.66 327.406 1860.07 Q327.406 1857.41 325.508 1855.99 Q323.633 1854.56 320.114 1854.56 Q318.193 1854.56 315.994 1854.97 Q313.795 1855.39 311.156 1856.27 L311.156 1852.1 Q313.818 1851.36 316.133 1850.99 Q318.471 1850.62 320.531 1850.62 Q325.855 1850.62 328.957 1853.05 Q332.059 1855.46 332.059 1859.58 Q332.059 1862.45 330.415 1864.44 Q328.772 1866.41 325.739 1867.17 Z" fill="#000000" fill-rule="evenodd" fill-opacity="1" /><path clip-path="url(#clip810)" d="M837.072 1868.98 L866.748 1868.98 L866.748 1872.91 L837.072 1872.91 L837.072 1868.98 Z" fill="#000000" fill-rule="evenodd" fill-opacity="1" /><path clip-path="url(#clip810)" d="M880.868 1881.87 L897.187 1881.87 L897.187 1885.81 L875.243 1885.81 L875.243 1881.87 Q877.905 1879.12 882.488 1874.49 Q887.095 1869.84 888.275 1868.49 Q890.521 1865.97 891.4 1864.23 Q892.303 1862.47 892.303 1860.78 Q892.303 1858.03 890.358 1856.29 Q888.437 1854.56 885.335 1854.56 Q883.136 1854.56 880.683 1855.32 Q878.252 1856.09 875.474 1857.64 L875.474 1852.91 Q878.298 1851.78 880.752 1851.2 Q883.206 1850.62 885.243 1850.62 Q890.613 1850.62 893.808 1853.31 Q897.002 1855.99 897.002 1860.48 Q897.002 1862.61 896.192 1864.53 Q895.405 1866.43 893.298 1869.03 Q892.72 1869.7 889.618 1872.91 Q886.516 1876.11 880.868 1881.87 Z" fill="#000000" fill-rule="evenodd" fill-opacity="1" /><path clip-path="url(#clip810)" d="M1401.68 1868.98 L1431.36 1868.98 L1431.36 1872.91 L1401.68 1872.91 L1401.68 1868.98 Z" fill="#000000" fill-rule="evenodd" fill-opacity="1" /><path clip-path="url(#clip810)" d="M1442.26 1881.87 L1449.9 1881.87 L1449.9 1855.51 L1441.59 1857.17 L1441.59 1852.91 L1449.85 1851.25 L1454.53 1851.25 L1454.53 1881.87 L1462.17 1881.87 L1462.17 1885.81 L1442.26 1885.81 L1442.26 1881.87 Z" fill="#000000" fill-rule="evenodd" fill-opacity="1" /><path clip-path="url(#clip810)" d="M1996.71 1854.33 Q1993.1 1854.33 1991.28 1857.89 Q1989.47 1861.43 1989.47 1868.56 Q1989.47 1875.67 1991.28 1879.23 Q1993.1 1882.78 1996.71 1882.78 Q2000.35 1882.78 2002.15 1879.23 Q2003.98 1875.67 2003.98 1868.56 Q2003.98 1861.43 2002.15 1857.89 Q2000.35 1854.33 1996.71 1854.33 M1996.71 1850.62 Q2002.53 1850.62 2005.58 1855.23 Q2008.66 1859.81 2008.66 1868.56 Q2008.66 1877.29 2005.58 1881.9 Q2002.53 1886.48 1996.71 1886.48 Q1990.9 1886.48 1987.83 1881.9 Q1984.77 1877.29 1984.77 1868.56 Q1984.77 1859.81 1987.83 1855.23 Q1990.9 1850.62 1996.71 1850.62 Z" fill="#000000" fill-rule="evenodd" fill-opacity="1" /><path clip-path="url(#clip810)" d="M2551.89 1881.87 L2559.53 1881.87 L2559.53 1855.51 L2551.22 1857.17 L2551.22 1852.91 L2559.48 1851.25 L2564.16 1851.25 L2564.16 1881.87 L2571.8 1881.87 L2571.8 1885.81 L2551.89 1885.81 L2551.89 1881.87 Z" fill="#000000" fill-rule="evenodd" fill-opacity="1" /><path clip-path="url(#clip810)" d="M3120.95 1881.87 L3137.27 1881.87 L3137.27 1885.81 L3115.33 1885.81 L3115.33 1881.87 Q3117.99 1879.12 3122.57 1874.49 Q3127.18 1869.84 3128.36 1868.49 Q3130.61 1865.97 3131.49 1864.23 Q3132.39 1862.47 3132.39 1860.78 Q3132.39 1858.03 3130.44 1856.29 Q3128.52 1854.56 3125.42 1854.56 Q3123.22 1854.56 3120.77 1855.32 Q3118.34 1856.09 3115.56 1857.64 L3115.56 1852.91 Q3118.38 1851.78 3120.84 1851.2 Q3123.29 1850.62 3125.33 1850.62 Q3130.7 1850.62 3133.89 1853.31 Q3137.09 1855.99 3137.09 1860.48 Q3137.09 1862.61 3136.28 1864.53 Q3135.49 1866.43 3133.38 1869.03 Q3132.81 1869.7 3129.7 1872.91 Q3126.6 1876.11 3120.95 1881.87 Z" fill="#000000" fill-rule="evenodd" fill-opacity="1" /><path clip-path="url(#clip810)" d="M3695.34 1867.17 Q3698.7 1867.89 3700.57 1870.16 Q3702.47 1872.43 3702.47 1875.76 Q3702.47 1880.88 3698.95 1883.68 Q3695.43 1886.48 3688.95 1886.48 Q3686.78 1886.48 3684.46 1886.04 Q3682.17 1885.62 3679.72 1884.77 L3679.72 1880.25 Q3681.66 1881.39 3683.98 1881.97 Q3686.29 1882.54 3688.81 1882.54 Q3693.21 1882.54 3695.5 1880.81 Q3697.82 1879.07 3697.82 1875.76 Q3697.82 1872.71 3695.66 1870.99 Q3693.54 1869.26 3689.72 1869.26 L3685.69 1869.26 L3685.69 1865.41 L3689.9 1865.41 Q3693.35 1865.41 3695.18 1864.05 Q3697.01 1862.66 3697.01 1860.07 Q3697.01 1857.41 3695.11 1855.99 Q3693.23 1854.56 3689.72 1854.56 Q3687.79 1854.56 3685.6 1854.97 Q3683.4 1855.39 3680.76 1856.27 L3680.76 1852.1 Q3683.42 1851.36 3685.73 1850.99 Q3688.07 1850.62 3690.13 1850.62 Q3695.46 1850.62 3698.56 1853.05 Q3701.66 1855.46 3701.66 1859.58 Q3701.66 1862.45 3700.02 1864.44 Q3698.37 1866.41 3695.34 1867.17 Z" fill="#000000" fill-rule="evenodd" fill-opacity="1" /><polyline clip-path="url(#clip812)" style="stroke:#000000; stroke-linecap:butt; stroke-linejoin:round; stroke-width:2; stroke-opacity:0.1; fill:none" points="
  200.674,1780.65 3792.76,1780.65 
  "/>
<polyline clip-path="url(#clip812)" style="stroke:#000000; stroke-linecap:butt; stroke-linejoin:round; stroke-width:2; stroke-opacity:0.1; fill:none" points="
  200.674,1359.75 3792.76,1359.75 
  "/>
<polyline clip-path="url(#clip812)" style="stroke:#000000; stroke-linecap:butt; stroke-linejoin:round; stroke-width:2; stroke-opacity:0.1; fill:none" points="
  200.674,938.846 3792.76,938.846 
  "/>
<polyline clip-path="url(#clip812)" style="stroke:#000000; stroke-linecap:butt; stroke-linejoin:round; stroke-width:2; stroke-opacity:0.1; fill:none" points="
  200.674,517.945 3792.76,517.945 
  "/>
<polyline clip-path="url(#clip812)" style="stroke:#000000; stroke-linecap:butt; stroke-linejoin:round; stroke-width:2; stroke-opacity:0.1; fill:none" points="
  200.674,97.0437 3792.76,97.0437 
  "/>
<polyline clip-path="url(#clip810)" style="stroke:#000000; stroke-linecap:butt; stroke-linejoin:round; stroke-width:4; stroke-opacity:1; fill:none" points="
  200.674,1811.89 200.674,47.2441 
  "/>
<polyline clip-path="url(#clip810)" style="stroke:#000000; stroke-linecap:butt; stroke-linejoin:round; stroke-width:4; stroke-opacity:1; fill:none" points="
  200.674,1780.65 219.572,1780.65 
  "/>
<polyline clip-path="url(#clip810)" style="stroke:#000000; stroke-linecap:butt; stroke-linejoin:round; stroke-width:4; stroke-opacity:1; fill:none" points="
  200.674,1359.75 219.572,1359.75 
  "/>
<polyline clip-path="url(#clip810)" style="stroke:#000000; stroke-linecap:butt; stroke-linejoin:round; stroke-width:4; stroke-opacity:1; fill:none" points="
  200.674,938.846 219.572,938.846 
  "/>
<polyline clip-path="url(#clip810)" style="stroke:#000000; stroke-linecap:butt; stroke-linejoin:round; stroke-width:4; stroke-opacity:1; fill:none" points="
  200.674,517.945 219.572,517.945 
  "/>
<polyline clip-path="url(#clip810)" style="stroke:#000000; stroke-linecap:butt; stroke-linejoin:round; stroke-width:4; stroke-opacity:1; fill:none" points="
  200.674,97.0437 219.572,97.0437 
  "/>
<path clip-path="url(#clip810)" d="M55.7365 1766.45 Q52.1254 1766.45 50.2967 1770.01 Q48.4912 1773.55 48.4912 1780.68 Q48.4912 1787.79 50.2967 1791.35 Q52.1254 1794.9 55.7365 1794.9 Q59.3707 1794.9 61.1763 1791.35 Q63.005 1787.79 63.005 1780.68 Q63.005 1773.55 61.1763 1770.01 Q59.3707 1766.45 55.7365 1766.45 M55.7365 1762.74 Q61.5467 1762.74 64.6022 1767.35 Q67.6809 1771.93 67.6809 1780.68 Q67.6809 1789.41 64.6022 1794.02 Q61.5467 1798.6 55.7365 1798.6 Q49.9264 1798.6 46.8477 1794.02 Q43.7921 1789.41 43.7921 1780.68 Q43.7921 1771.93 46.8477 1767.35 Q49.9264 1762.74 55.7365 1762.74 Z" fill="#000000" fill-rule="evenodd" fill-opacity="1" /><path clip-path="url(#clip810)" d="M75.8984 1792.05 L80.7827 1792.05 L80.7827 1797.93 L75.8984 1797.93 L75.8984 1792.05 Z" fill="#000000" fill-rule="evenodd" fill-opacity="1" /><path clip-path="url(#clip810)" d="M100.968 1766.45 Q97.3567 1766.45 95.528 1770.01 Q93.7224 1773.55 93.7224 1780.68 Q93.7224 1787.79 95.528 1791.35 Q97.3567 1794.9 100.968 1794.9 Q104.602 1794.9 106.408 1791.35 Q108.236 1787.79 108.236 1780.68 Q108.236 1773.55 106.408 1770.01 Q104.602 1766.45 100.968 1766.45 M100.968 1762.74 Q106.778 1762.74 109.833 1767.35 Q112.912 1771.93 112.912 1780.68 Q112.912 1789.41 109.833 1794.02 Q106.778 1798.6 100.968 1798.6 Q95.1576 1798.6 92.0789 1794.02 Q89.0234 1789.41 89.0234 1780.68 Q89.0234 1771.93 92.0789 1767.35 Q95.1576 1762.74 100.968 1762.74 Z" fill="#000000" fill-rule="evenodd" fill-opacity="1" /><path clip-path="url(#clip810)" d="M131.13 1766.45 Q127.519 1766.45 125.69 1770.01 Q123.884 1773.55 123.884 1780.68 Q123.884 1787.79 125.69 1791.35 Q127.519 1794.9 131.13 1794.9 Q134.764 1794.9 136.569 1791.35 Q138.398 1787.79 138.398 1780.68 Q138.398 1773.55 136.569 1770.01 Q134.764 1766.45 131.13 1766.45 M131.13 1762.74 Q136.94 1762.74 139.995 1767.35 Q143.074 1771.93 143.074 1780.68 Q143.074 1789.41 139.995 1794.02 Q136.94 1798.6 131.13 1798.6 Q125.319 1798.6 122.241 1794.02 Q119.185 1789.41 119.185 1780.68 Q119.185 1771.93 122.241 1767.35 Q125.319 1762.74 131.13 1762.74 Z" fill="#000000" fill-rule="evenodd" fill-opacity="1" /><path clip-path="url(#clip810)" d="M56.7319 1345.55 Q53.1208 1345.55 51.2921 1349.11 Q49.4865 1352.65 49.4865 1359.78 Q49.4865 1366.89 51.2921 1370.45 Q53.1208 1373.99 56.7319 1373.99 Q60.3661 1373.99 62.1717 1370.45 Q64.0004 1366.89 64.0004 1359.78 Q64.0004 1352.65 62.1717 1349.11 Q60.3661 1345.55 56.7319 1345.55 M56.7319 1341.84 Q62.542 1341.84 65.5976 1346.45 Q68.6763 1351.03 68.6763 1359.78 Q68.6763 1368.51 65.5976 1373.12 Q62.542 1377.7 56.7319 1377.7 Q50.9217 1377.7 47.843 1373.12 Q44.7875 1368.51 44.7875 1359.78 Q44.7875 1351.03 47.843 1346.45 Q50.9217 1341.84 56.7319 1341.84 Z" fill="#000000" fill-rule="evenodd" fill-opacity="1" /><path clip-path="url(#clip810)" d="M76.8938 1371.15 L81.778 1371.15 L81.778 1377.03 L76.8938 1377.03 L76.8938 1371.15 Z" fill="#000000" fill-rule="evenodd" fill-opacity="1" /><path clip-path="url(#clip810)" d="M95.9909 1373.09 L112.31 1373.09 L112.31 1377.03 L90.366 1377.03 L90.366 1373.09 Q93.028 1370.34 97.6113 1365.71 Q102.218 1361.06 103.398 1359.71 Q105.644 1357.19 106.523 1355.45 Q107.426 1353.69 107.426 1352 Q107.426 1349.25 105.482 1347.51 Q103.56 1345.78 100.458 1345.78 Q98.2594 1345.78 95.8057 1346.54 Q93.3752 1347.31 90.5974 1348.86 L90.5974 1344.13 Q93.4215 1343 95.8752 1342.42 Q98.3289 1341.84 100.366 1341.84 Q105.736 1341.84 108.931 1344.53 Q112.125 1347.21 112.125 1351.7 Q112.125 1353.83 111.315 1355.75 Q110.528 1357.65 108.421 1360.24 Q107.843 1360.92 104.741 1364.13 Q101.639 1367.33 95.9909 1373.09 Z" fill="#000000" fill-rule="evenodd" fill-opacity="1" /><path clip-path="url(#clip810)" d="M122.171 1342.47 L140.528 1342.47 L140.528 1346.4 L126.454 1346.4 L126.454 1354.87 Q127.472 1354.53 128.491 1354.37 Q129.509 1354.18 130.528 1354.18 Q136.315 1354.18 139.694 1357.35 Q143.074 1360.52 143.074 1365.94 Q143.074 1371.52 139.602 1374.62 Q136.13 1377.7 129.81 1377.7 Q127.634 1377.7 125.366 1377.33 Q123.12 1376.96 120.713 1376.22 L120.713 1371.52 Q122.796 1372.65 125.019 1373.21 Q127.241 1373.76 129.718 1373.76 Q133.722 1373.76 136.06 1371.66 Q138.398 1369.55 138.398 1365.94 Q138.398 1362.33 136.06 1360.22 Q133.722 1358.12 129.718 1358.12 Q127.843 1358.12 125.968 1358.53 Q124.116 1358.95 122.171 1359.83 L122.171 1342.47 Z" fill="#000000" fill-rule="evenodd" fill-opacity="1" /><path clip-path="url(#clip810)" d="M55.7365 924.645 Q52.1254 924.645 50.2967 928.209 Q48.4912 931.751 48.4912 938.881 Q48.4912 945.987 50.2967 949.552 Q52.1254 953.094 55.7365 953.094 Q59.3707 953.094 61.1763 949.552 Q63.005 945.987 63.005 938.881 Q63.005 931.751 61.1763 928.209 Q59.3707 924.645 55.7365 924.645 M55.7365 920.941 Q61.5467 920.941 64.6022 925.547 Q67.6809 930.131 67.6809 938.881 Q67.6809 947.608 64.6022 952.214 Q61.5467 956.797 55.7365 956.797 Q49.9264 956.797 46.8477 952.214 Q43.7921 947.608 43.7921 938.881 Q43.7921 930.131 46.8477 925.547 Q49.9264 920.941 55.7365 920.941 Z" fill="#000000" fill-rule="evenodd" fill-opacity="1" /><path clip-path="url(#clip810)" d="M75.8984 950.246 L80.7827 950.246 L80.7827 956.126 L75.8984 956.126 L75.8984 950.246 Z" fill="#000000" fill-rule="evenodd" fill-opacity="1" /><path clip-path="url(#clip810)" d="M91.0141 921.566 L109.37 921.566 L109.37 925.501 L95.2965 925.501 L95.2965 933.973 Q96.315 933.626 97.3335 933.464 Q98.352 933.279 99.3705 933.279 Q105.158 933.279 108.537 936.45 Q111.917 939.621 111.917 945.038 Q111.917 950.617 108.445 953.719 Q104.972 956.797 98.6529 956.797 Q96.477 956.797 94.2085 956.427 Q91.9632 956.057 89.5558 955.316 L89.5558 950.617 Q91.6391 951.751 93.8613 952.307 Q96.0835 952.862 98.5604 952.862 Q102.565 952.862 104.903 950.756 Q107.241 948.649 107.241 945.038 Q107.241 941.427 104.903 939.321 Q102.565 937.214 98.5604 937.214 Q96.6854 937.214 94.8104 937.631 Q92.9585 938.047 91.0141 938.927 L91.0141 921.566 Z" fill="#000000" fill-rule="evenodd" fill-opacity="1" /><path clip-path="url(#clip810)" d="M131.13 924.645 Q127.519 924.645 125.69 928.209 Q123.884 931.751 123.884 938.881 Q123.884 945.987 125.69 949.552 Q127.519 953.094 131.13 953.094 Q134.764 953.094 136.569 949.552 Q138.398 945.987 138.398 938.881 Q138.398 931.751 136.569 928.209 Q134.764 924.645 131.13 924.645 M131.13 920.941 Q136.94 920.941 139.995 925.547 Q143.074 930.131 143.074 938.881 Q143.074 947.608 139.995 952.214 Q136.94 956.797 131.13 956.797 Q125.319 956.797 122.241 952.214 Q119.185 947.608 119.185 938.881 Q119.185 930.131 122.241 925.547 Q125.319 920.941 131.13 920.941 Z" fill="#000000" fill-rule="evenodd" fill-opacity="1" /><path clip-path="url(#clip810)" d="M56.7319 503.744 Q53.1208 503.744 51.2921 507.308 Q49.4865 510.85 49.4865 517.98 Q49.4865 525.086 51.2921 528.651 Q53.1208 532.192 56.7319 532.192 Q60.3661 532.192 62.1717 528.651 Q64.0004 525.086 64.0004 517.98 Q64.0004 510.85 62.1717 507.308 Q60.3661 503.744 56.7319 503.744 M56.7319 500.04 Q62.542 500.04 65.5976 504.646 Q68.6763 509.23 68.6763 517.98 Q68.6763 526.706 65.5976 531.313 Q62.542 535.896 56.7319 535.896 Q50.9217 535.896 47.843 531.313 Q44.7875 526.706 44.7875 517.98 Q44.7875 509.23 47.843 504.646 Q50.9217 500.04 56.7319 500.04 Z" fill="#000000" fill-rule="evenodd" fill-opacity="1" /><path clip-path="url(#clip810)" d="M76.8938 529.345 L81.778 529.345 L81.778 535.225 L76.8938 535.225 L76.8938 529.345 Z" fill="#000000" fill-rule="evenodd" fill-opacity="1" /><path clip-path="url(#clip810)" d="M90.7826 500.665 L113.005 500.665 L113.005 502.656 L100.458 535.225 L95.5743 535.225 L107.38 504.6 L90.7826 504.6 L90.7826 500.665 Z" fill="#000000" fill-rule="evenodd" fill-opacity="1" /><path clip-path="url(#clip810)" d="M122.171 500.665 L140.528 500.665 L140.528 504.6 L126.454 504.6 L126.454 513.072 Q127.472 512.725 128.491 512.563 Q129.509 512.378 130.528 512.378 Q136.315 512.378 139.694 515.549 Q143.074 518.72 143.074 524.137 Q143.074 529.716 139.602 532.817 Q136.13 535.896 129.81 535.896 Q127.634 535.896 125.366 535.526 Q123.12 535.155 120.713 534.415 L120.713 529.716 Q122.796 530.85 125.019 531.405 Q127.241 531.961 129.718 531.961 Q133.722 531.961 136.06 529.855 Q138.398 527.748 138.398 524.137 Q138.398 520.526 136.06 518.419 Q133.722 516.313 129.718 516.313 Q127.843 516.313 125.968 516.73 Q124.116 517.146 122.171 518.026 L122.171 500.665 Z" fill="#000000" fill-rule="evenodd" fill-opacity="1" /><path clip-path="url(#clip810)" d="M46.5467 110.389 L54.1856 110.389 L54.1856 84.023 L45.8754 85.6896 L45.8754 81.4304 L54.1393 79.7637 L58.8152 79.7637 L58.8152 110.389 L66.454 110.389 L66.454 114.324 L46.5467 114.324 L46.5467 110.389 Z" fill="#000000" fill-rule="evenodd" fill-opacity="1" /><path clip-path="url(#clip810)" d="M75.8984 108.444 L80.7827 108.444 L80.7827 114.324 L75.8984 114.324 L75.8984 108.444 Z" fill="#000000" fill-rule="evenodd" fill-opacity="1" /><path clip-path="url(#clip810)" d="M100.968 82.8424 Q97.3567 82.8424 95.528 86.4072 Q93.7224 89.9489 93.7224 97.0785 Q93.7224 104.185 95.528 107.75 Q97.3567 111.291 100.968 111.291 Q104.602 111.291 106.408 107.75 Q108.236 104.185 108.236 97.0785 Q108.236 89.9489 106.408 86.4072 Q104.602 82.8424 100.968 82.8424 M100.968 79.1387 Q106.778 79.1387 109.833 83.7452 Q112.912 88.3285 112.912 97.0785 Q112.912 105.805 109.833 110.412 Q106.778 114.995 100.968 114.995 Q95.1576 114.995 92.0789 110.412 Q89.0234 105.805 89.0234 97.0785 Q89.0234 88.3285 92.0789 83.7452 Q95.1576 79.1387 100.968 79.1387 Z" fill="#000000" fill-rule="evenodd" fill-opacity="1" /><path clip-path="url(#clip810)" d="M131.13 82.8424 Q127.519 82.8424 125.69 86.4072 Q123.884 89.9489 123.884 97.0785 Q123.884 104.185 125.69 107.75 Q127.519 111.291 131.13 111.291 Q134.764 111.291 136.569 107.75 Q138.398 104.185 138.398 97.0785 Q138.398 89.9489 136.569 86.4072 Q134.764 82.8424 131.13 82.8424 M131.13 79.1387 Q136.94 79.1387 139.995 83.7452 Q143.074 88.3285 143.074 97.0785 Q143.074 105.805 139.995 110.412 Q136.94 114.995 131.13 114.995 Q125.319 114.995 122.241 110.412 Q119.185 105.805 119.185 97.0785 Q119.185 88.3285 122.241 83.7452 Q125.319 79.1387 131.13 79.1387 Z" fill="#000000" fill-rule="evenodd" fill-opacity="1" /><polyline clip-path="url(#clip812)" style="stroke:#009af9; stroke-linecap:butt; stroke-linejoin:round; stroke-width:4; stroke-opacity:1; fill:none" points="
  302.337,1761.95 307.852,1761.39 313.368,1760.82 318.884,1760.24 324.399,1759.64 375.4,1753.31 426.4,1745.36 477.4,1735.47 528.4,1723.29 559.049,1714.69 
  589.699,1705.03 620.348,1694.22 650.997,1682.14 702.823,1658.58 754.65,1630.66 782.799,1613.49 810.948,1594.82 839.098,1574.58 867.247,1552.7 893.198,1531.03 
  919.149,1507.87 945.1,1483.19 971.051,1456.97 998.873,1427.1 1026.7,1395.42 1054.52,1361.92 1082.34,1326.61 1114.58,1283.47 1146.81,1238 1179.04,1190.29 
  1211.28,1140.49 1239.93,1094.58 1268.57,1047.28 1297.22,998.729 1325.87,949.106 1376.11,860.087 1426.35,769.57 1481.12,670.763 1535.9,573.708 1563.45,526.196 
  1591,479.913 1618.55,435.128 1646.1,392.109 1676.56,346.919 1707.02,304.559 1737.49,265.362 1767.95,229.641 1796.93,199.149 1825.91,172.298 1854.89,149.293 
  1883.88,130.311 1898.94,122.081 1914.01,114.997 1929.08,109.072 1944.15,104.32 1959.22,100.751 1974.28,98.3711 1989.35,97.1868 2004.42,97.2003 2029.79,99.9275 
  2055.15,106.032 2080.52,115.477 2105.89,128.205 2121.37,137.558 2136.86,148.085 2152.35,159.763 2167.83,172.568 2198.8,201.439 2229.77,234.449 2258.14,268.078 
  2286.52,304.706 2314.89,344.076 2343.26,385.92 2369.46,426.521 2395.66,468.767 2421.87,512.428 2448.07,557.271 2501.16,650.799 2554.24,746.354 2613.74,853.658 
  2673.23,958.998 2727.14,1051.1 2781.05,1138.76 2811.92,1186.55 2842.78,1232.43 2873.64,1276.27 2904.5,1317.99 2933.08,1354.67 2961.66,1389.44 2990.23,1422.3 
  3018.81,1453.23 3046.98,1481.87 3075.15,1508.67 3103.32,1533.69 3131.5,1556.96 3158.85,1577.94 3186.2,1597.38 3213.56,1615.35 3240.91,1631.9 3268.95,1647.47 
  3296.99,1661.71 3325.03,1674.69 3353.07,1686.48 3383.79,1698.14 3414.51,1708.56 3445.24,1717.85 3475.96,1726.11 3520.59,1736.44 3565.21,1745.04 3609.84,1752.15 
  3654.47,1757.98 3663.63,1759.03 3672.78,1760.05 3681.94,1761.02 3691.09,1761.95 
  "/>
<path clip-path="url(#clip810)" d="
M3236.59 209.746 L3673.02 209.746 L3673.02 106.066 L3236.59 106.066  Z
  " fill="#ffffff" fill-rule="evenodd" fill-opacity="1"/>
<polyline clip-path="url(#clip810)" style="stroke:#000000; stroke-linecap:butt; stroke-linejoin:round; stroke-width:4; stroke-opacity:1; fill:none" points="
  3236.59,209.746 3673.02,209.746 3673.02,106.066 3236.59,106.066 3236.59,209.746 
  "/>
<polyline clip-path="url(#clip810)" style="stroke:#009af9; stroke-linecap:butt; stroke-linejoin:round; stroke-width:4; stroke-opacity:1; fill:none" points="
  3274.99,157.906 3505.39,157.906 
  "/>
<path clip-path="url(#clip810)" d="M3557.63 177.593 Q3555.83 182.223 3554.11 183.635 Q3552.4 185.047 3549.53 185.047 L3546.13 185.047 L3546.13 181.482 L3548.63 181.482 Q3550.39 181.482 3551.36 180.648 Q3552.33 179.815 3553.51 176.713 L3554.28 174.769 L3543.79 149.26 L3548.3 149.26 L3556.41 169.537 L3564.51 149.26 L3569.02 149.26 L3557.63 177.593 Z" fill="#000000" fill-rule="evenodd" fill-opacity="1" /><path clip-path="url(#clip810)" d="M3576.31 171.25 L3583.95 171.25 L3583.95 144.885 L3575.64 146.551 L3575.64 142.292 L3583.91 140.626 L3588.58 140.626 L3588.58 171.25 L3596.22 171.25 L3596.22 175.186 L3576.31 175.186 L3576.31 171.25 Z" fill="#000000" fill-rule="evenodd" fill-opacity="1" /></svg>
