<?xml version="1.0" encoding="utf-8"?>
<svg xmlns="http://www.w3.org/2000/svg" xmlns:xlink="http://www.w3.org/1999/xlink" width="960" height="480" viewBox="0 0 3840 1920">
<defs>
  <clipPath id="clip890">
    <rect x="0" y="0" width="3840" height="1920"/>
  </clipPath>
</defs>
<path clip-path="url(#clip890)" d="
M0 1920 L3840 1920 L3840 0 L0 0  Z
  " fill="#ffffff" fill-rule="evenodd" fill-opacity="1"/>
<defs>
  <clipPath id="clip891">
    <rect x="768" y="0" width="2689" height="1920"/>
  </clipPath>
</defs>
<path clip-path="url(#clip890)" d="
M208.336 1811.89 L3792.76 1811.89 L3792.76 47.2441 L208.336 47.2441  Z
  " fill="#ffffff" fill-rule="evenodd" fill-opacity="1"/>
<defs>
  <clipPath id="clip892">
    <rect x="208" y="47" width="3585" height="1766"/>
  </clipPath>
</defs>
<polyline clip-path="url(#clip892)" style="stroke:#000000; stroke-linecap:butt; stroke-linejoin:round; stroke-width:2; stroke-opacity:0.1; fill:none" points="
  309.782,1811.89 309.782,47.2441 
  "/>
<polyline clip-path="url(#clip892)" style="stroke:#000000; stroke-linecap:butt; stroke-linejoin:round; stroke-width:2; stroke-opacity:0.1; fill:none" points="
  847.969,1811.89 847.969,47.2441 
  "/>
<polyline clip-path="url(#clip892)" style="stroke:#000000; stroke-linecap:butt; stroke-linejoin:round; stroke-width:2; stroke-opacity:0.1; fill:none" points="
  1386.16,1811.89 1386.16,47.2441 
  "/>
<polyline clip-path="url(#clip892)" style="stroke:#000000; stroke-linecap:butt; stroke-linejoin:round; stroke-width:2; stroke-opacity:0.1; fill:none" points="
  1924.34,1811.89 1924.34,47.2441 
  "/>
<polyline clip-path="url(#clip892)" style="stroke:#000000; stroke-linecap:butt; stroke-linejoin:round; stroke-width:2; stroke-opacity:0.1; fill:none" points="
  2462.53,1811.89 2462.53,47.2441 
  "/>
<polyline clip-path="url(#clip892)" style="stroke:#000000; stroke-linecap:butt; stroke-linejoin:round; stroke-width:2; stroke-opacity:0.1; fill:none" points="
  3000.72,1811.89 3000.72,47.2441 
  "/>
<polyline clip-path="url(#clip892)" style="stroke:#000000; stroke-linecap:butt; stroke-linejoin:round; stroke-width:2; stroke-opacity:0.1; fill:none" points="
  3538.9,1811.89 3538.9,47.2441 
  "/>
<polyline clip-path="url(#clip890)" style="stroke:#000000; stroke-linecap:butt; stroke-linejoin:round; stroke-width:4; stroke-opacity:1; fill:none" points="
  208.336,1811.89 3792.76,1811.89 
  "/>
<polyline clip-path="url(#clip890)" style="stroke:#000000; stroke-linecap:butt; stroke-linejoin:round; stroke-width:4; stroke-opacity:1; fill:none" points="
  309.782,1811.89 309.782,1792.99 
  "/>
<polyline clip-path="url(#clip890)" style="stroke:#000000; stroke-linecap:butt; stroke-linejoin:round; stroke-width:4; stroke-opacity:1; fill:none" points="
  847.969,1811.89 847.969,1792.99 
  "/>
<polyline clip-path="url(#clip890)" style="stroke:#000000; stroke-linecap:butt; stroke-linejoin:round; stroke-width:4; stroke-opacity:1; fill:none" points="
  1386.16,1811.89 1386.16,1792.99 
  "/>
<polyline clip-path="url(#clip890)" style="stroke:#000000; stroke-linecap:butt; stroke-linejoin:round; stroke-width:4; stroke-opacity:1; fill:none" points="
  1924.34,1811.89 1924.34,1792.99 
  "/>
<polyline clip-path="url(#clip890)" style="stroke:#000000; stroke-linecap:butt; stroke-linejoin:round; stroke-width:4; stroke-opacity:1; fill:none" points="
  2462.53,1811.89 2462.53,1792.99 
  "/>
<polyline clip-path="url(#clip890)" style="stroke:#000000; stroke-linecap:butt; stroke-linejoin:round; stroke-width:4; stroke-opacity:1; fill:none" points="
  3000.72,1811.89 3000.72,1792.99 
  "/>
<polyline clip-path="url(#clip890)" style="stroke:#000000; stroke-linecap:butt; stroke-linejoin:round; stroke-width:4; stroke-opacity:1; fill:none" points="
  3538.9,1811.89 3538.9,1792.99 
  "/>
<path clip-path="url(#clip890)" d="M309.782 1854.33 Q306.171 1854.33 304.342 1857.89 Q302.537 1861.43 302.537 1868.56 Q302.537 1875.67 304.342 1879.23 Q306.171 1882.78 309.782 1882.78 Q313.416 1882.78 315.222 1879.23 Q317.05 1875.67 317.05 1868.56 Q317.05 1861.43 315.222 1857.89 Q313.416 1854.33 309.782 1854.33 M309.782 1850.62 Q315.592 1850.62 318.648 1855.23 Q321.726 1859.81 321.726 1868.56 Q321.726 1877.29 318.648 1881.9 Q315.592 1886.48 309.782 1886.48 Q303.972 1886.48 300.893 1881.9 Q297.837 1877.29 297.837 1868.56 Q297.837 1859.81 300.893 1855.23 Q303.972 1850.62 309.782 1850.62 Z" fill="#000000" fill-rule="evenodd" fill-opacity="1" /><path clip-path="url(#clip890)" d="M838.351 1881.87 L845.99 1881.87 L845.99 1855.51 L837.679 1857.17 L837.679 1852.91 L845.943 1851.25 L850.619 1851.25 L850.619 1881.87 L858.258 1881.87 L858.258 1885.81 L838.351 1885.81 L838.351 1881.87 Z" fill="#000000" fill-rule="evenodd" fill-opacity="1" /><path clip-path="url(#clip890)" d="M1380.81 1881.87 L1397.13 1881.87 L1397.13 1885.81 L1375.18 1885.81 L1375.18 1881.87 Q1377.85 1879.12 1382.43 1874.49 Q1387.04 1869.84 1388.22 1868.49 Q1390.46 1865.97 1391.34 1864.23 Q1392.24 1862.47 1392.24 1860.78 Q1392.24 1858.03 1390.3 1856.29 Q1388.38 1854.56 1385.28 1854.56 Q1383.08 1854.56 1380.62 1855.32 Q1378.19 1856.09 1375.42 1857.64 L1375.42 1852.91 Q1378.24 1851.78 1380.69 1851.2 Q1383.15 1850.62 1385.18 1850.62 Q1390.55 1850.62 1393.75 1853.31 Q1396.94 1855.99 1396.94 1860.48 Q1396.94 1862.61 1396.13 1864.53 Q1395.35 1866.43 1393.24 1869.03 Q1392.66 1869.7 1389.56 1872.91 Q1386.46 1876.11 1380.81 1881.87 Z" fill="#000000" fill-rule="evenodd" fill-opacity="1" /><path clip-path="url(#clip890)" d="M1928.59 1867.17 Q1931.95 1867.89 1933.82 1870.16 Q1935.72 1872.43 1935.72 1875.76 Q1935.72 1880.88 1932.2 1883.68 Q1928.68 1886.48 1922.2 1886.48 Q1920.03 1886.48 1917.71 1886.04 Q1915.42 1885.62 1912.97 1884.77 L1912.97 1880.25 Q1914.91 1881.39 1917.22 1881.97 Q1919.54 1882.54 1922.06 1882.54 Q1926.46 1882.54 1928.75 1880.81 Q1931.07 1879.07 1931.07 1875.76 Q1931.07 1872.71 1928.91 1870.99 Q1926.78 1869.26 1922.97 1869.26 L1918.94 1869.26 L1918.94 1865.41 L1923.15 1865.41 Q1926.6 1865.41 1928.43 1864.05 Q1930.26 1862.66 1930.26 1860.07 Q1930.26 1857.41 1928.36 1855.99 Q1926.48 1854.56 1922.97 1854.56 Q1921.04 1854.56 1918.84 1854.97 Q1916.65 1855.39 1914.01 1856.27 L1914.01 1852.1 Q1916.67 1851.36 1918.98 1850.99 Q1921.32 1850.62 1923.38 1850.62 Q1928.71 1850.62 1931.81 1853.05 Q1934.91 1855.46 1934.91 1859.58 Q1934.91 1862.45 1933.27 1864.44 Q1931.62 1866.41 1928.59 1867.17 Z" fill="#000000" fill-rule="evenodd" fill-opacity="1" /><path clip-path="url(#clip890)" d="M2465.54 1855.32 L2453.73 1873.77 L2465.54 1873.77 L2465.54 1855.32 M2464.31 1851.25 L2470.19 1851.25 L2470.19 1873.77 L2475.12 1873.77 L2475.12 1877.66 L2470.19 1877.66 L2470.19 1885.81 L2465.54 1885.81 L2465.54 1877.66 L2449.94 1877.66 L2449.94 1873.15 L2464.31 1851.25 Z" fill="#000000" fill-rule="evenodd" fill-opacity="1" /><path clip-path="url(#clip890)" d="M2990.99 1851.25 L3009.35 1851.25 L3009.35 1855.18 L2995.28 1855.18 L2995.28 1863.66 Q2996.3 1863.31 2997.31 1863.15 Q2998.33 1862.96 2999.35 1862.96 Q3005.14 1862.96 3008.52 1866.13 Q3011.9 1869.3 3011.9 1874.72 Q3011.9 1880.3 3008.42 1883.4 Q3004.95 1886.48 2998.63 1886.48 Q2996.46 1886.48 2994.19 1886.11 Q2991.94 1885.74 2989.54 1885 L2989.54 1880.3 Q2991.62 1881.43 2993.84 1881.99 Q2996.06 1882.54 2998.54 1882.54 Q3002.55 1882.54 3004.88 1880.44 Q3007.22 1878.33 3007.22 1874.72 Q3007.22 1871.11 3004.88 1869 Q3002.55 1866.9 2998.54 1866.9 Q2996.67 1866.9 2994.79 1867.31 Q2992.94 1867.73 2990.99 1868.61 L2990.99 1851.25 Z" fill="#000000" fill-rule="evenodd" fill-opacity="1" /><path clip-path="url(#clip890)" d="M3539.31 1866.66 Q3536.16 1866.66 3534.31 1868.82 Q3532.48 1870.97 3532.48 1874.72 Q3532.48 1878.45 3534.31 1880.62 Q3536.16 1882.78 3539.31 1882.78 Q3542.46 1882.78 3544.29 1880.62 Q3546.14 1878.45 3546.14 1874.72 Q3546.14 1870.97 3544.29 1868.82 Q3542.46 1866.66 3539.31 1866.66 M3548.59 1852.01 L3548.59 1856.27 Q3546.83 1855.44 3545.03 1855 Q3543.24 1854.56 3541.48 1854.56 Q3536.85 1854.56 3534.4 1857.68 Q3531.97 1860.81 3531.62 1867.13 Q3532.99 1865.11 3535.05 1864.05 Q3537.11 1862.96 3539.59 1862.96 Q3544.79 1862.96 3547.8 1866.13 Q3550.84 1869.28 3550.84 1874.72 Q3550.84 1880.04 3547.69 1883.26 Q3544.54 1886.48 3539.31 1886.48 Q3533.31 1886.48 3530.14 1881.9 Q3526.97 1877.29 3526.97 1868.56 Q3526.97 1860.37 3530.86 1855.51 Q3534.75 1850.62 3541.3 1850.62 Q3543.06 1850.62 3544.84 1850.97 Q3546.65 1851.32 3548.59 1852.01 Z" fill="#000000" fill-rule="evenodd" fill-opacity="1" /><polyline clip-path="url(#clip892)" style="stroke:#000000; stroke-linecap:butt; stroke-linejoin:round; stroke-width:2; stroke-opacity:0.1; fill:none" points="
  208.336,1761.95 3792.76,1761.95 
  "/>
<polyline clip-path="url(#clip892)" style="stroke:#000000; stroke-linecap:butt; stroke-linejoin:round; stroke-width:2; stroke-opacity:0.1; fill:none" points="
  208.336,1345.76 3792.76,1345.76 
  "/>
<polyline clip-path="url(#clip892)" style="stroke:#000000; stroke-linecap:butt; stroke-linejoin:round; stroke-width:2; stroke-opacity:0.1; fill:none" points="
  208.336,929.567 3792.76,929.567 
  "/>
<polyline clip-path="url(#clip892)" style="stroke:#000000; stroke-linecap:butt; stroke-linejoin:round; stroke-width:2; stroke-opacity:0.1; fill:none" points="
  208.336,513.377 3792.76,513.377 
  "/>
<polyline clip-path="url(#clip892)" style="stroke:#000000; stroke-linecap:butt; stroke-linejoin:round; stroke-width:2; stroke-opacity:0.1; fill:none" points="
  208.336,97.1868 3792.76,97.1868 
  "/>
<polyline clip-path="url(#clip890)" style="stroke:#000000; stroke-linecap:butt; stroke-linejoin:round; stroke-width:4; stroke-opacity:1; fill:none" points="
  208.336,1811.89 208.336,47.2441 
  "/>
<polyline clip-path="url(#clip890)" style="stroke:#000000; stroke-linecap:butt; stroke-linejoin:round; stroke-width:4; stroke-opacity:1; fill:none" points="
  208.336,1761.95 227.234,1761.95 
  "/>
<polyline clip-path="url(#clip890)" style="stroke:#000000; stroke-linecap:butt; stroke-linejoin:round; stroke-width:4; stroke-opacity:1; fill:none" points="
  208.336,1345.76 227.234,1345.76 
  "/>
<polyline clip-path="url(#clip890)" style="stroke:#000000; stroke-linecap:butt; stroke-linejoin:round; stroke-width:4; stroke-opacity:1; fill:none" points="
  208.336,929.567 227.234,929.567 
  "/>
<polyline clip-path="url(#clip890)" style="stroke:#000000; stroke-linecap:butt; stroke-linejoin:round; stroke-width:4; stroke-opacity:1; fill:none" points="
  208.336,513.377 227.234,513.377 
  "/>
<polyline clip-path="url(#clip890)" style="stroke:#000000; stroke-linecap:butt; stroke-linejoin:round; stroke-width:4; stroke-opacity:1; fill:none" points="
  208.336,97.1868 227.234,97.1868 
  "/>
<path clip-path="url(#clip890)" d="M43.7921 1762.4 L73.4679 1762.4 L73.4679 1766.33 L43.7921 1766.33 L43.7921 1762.4 Z" fill="#000000" fill-rule="evenodd" fill-opacity="1" /><path clip-path="url(#clip890)" d="M84.3706 1775.29 L92.0095 1775.29 L92.0095 1748.93 L83.6993 1750.59 L83.6993 1746.33 L91.9632 1744.67 L96.6391 1744.67 L96.6391 1775.29 L104.278 1775.29 L104.278 1779.23 L84.3706 1779.23 L84.3706 1775.29 Z" fill="#000000" fill-rule="evenodd" fill-opacity="1" /><path clip-path="url(#clip890)" d="M113.722 1773.35 L118.607 1773.35 L118.607 1779.23 L113.722 1779.23 L113.722 1773.35 Z" fill="#000000" fill-rule="evenodd" fill-opacity="1" /><path clip-path="url(#clip890)" d="M138.792 1747.75 Q135.181 1747.75 133.352 1751.31 Q131.546 1754.85 131.546 1761.98 Q131.546 1769.09 133.352 1772.65 Q135.181 1776.19 138.792 1776.19 Q142.426 1776.19 144.231 1772.65 Q146.06 1769.09 146.06 1761.98 Q146.06 1754.85 144.231 1751.31 Q142.426 1747.75 138.792 1747.75 M138.792 1744.04 Q144.602 1744.04 147.657 1748.65 Q150.736 1753.23 150.736 1761.98 Q150.736 1770.71 147.657 1775.31 Q144.602 1779.9 138.792 1779.9 Q132.981 1779.9 129.903 1775.31 Q126.847 1770.71 126.847 1761.98 Q126.847 1753.23 129.903 1748.65 Q132.981 1744.04 138.792 1744.04 Z" fill="#000000" fill-rule="evenodd" fill-opacity="1" /><path clip-path="url(#clip890)" d="M44.7875 1346.21 L74.4633 1346.21 L74.4633 1350.14 L44.7875 1350.14 L44.7875 1346.21 Z" fill="#000000" fill-rule="evenodd" fill-opacity="1" /><path clip-path="url(#clip890)" d="M94.5557 1331.56 Q90.9447 1331.56 89.116 1335.12 Q87.3104 1338.66 87.3104 1345.79 Q87.3104 1352.9 89.116 1356.46 Q90.9447 1360 94.5557 1360 Q98.19 1360 99.9955 1356.46 Q101.824 1352.9 101.824 1345.79 Q101.824 1338.66 99.9955 1335.12 Q98.19 1331.56 94.5557 1331.56 M94.5557 1327.85 Q100.366 1327.85 103.421 1332.46 Q106.5 1337.04 106.5 1345.79 Q106.5 1354.52 103.421 1359.12 Q100.366 1363.71 94.5557 1363.71 Q88.7456 1363.71 85.6669 1359.12 Q82.6114 1354.52 82.6114 1345.79 Q82.6114 1337.04 85.6669 1332.46 Q88.7456 1327.85 94.5557 1327.85 Z" fill="#000000" fill-rule="evenodd" fill-opacity="1" /><path clip-path="url(#clip890)" d="M114.718 1357.16 L119.602 1357.16 L119.602 1363.04 L114.718 1363.04 L114.718 1357.16 Z" fill="#000000" fill-rule="evenodd" fill-opacity="1" /><path clip-path="url(#clip890)" d="M129.833 1328.48 L148.19 1328.48 L148.19 1332.41 L134.116 1332.41 L134.116 1340.88 Q135.134 1340.54 136.153 1340.37 Q137.171 1340.19 138.19 1340.19 Q143.977 1340.19 147.356 1343.36 Q150.736 1346.53 150.736 1351.95 Q150.736 1357.53 147.264 1360.63 Q143.792 1363.71 137.472 1363.71 Q135.296 1363.71 133.028 1363.34 Q130.782 1362.97 128.375 1362.23 L128.375 1357.53 Q130.458 1358.66 132.681 1359.22 Q134.903 1359.77 137.38 1359.77 Q141.384 1359.77 143.722 1357.67 Q146.06 1355.56 146.06 1351.95 Q146.06 1348.34 143.722 1346.23 Q141.384 1344.12 137.38 1344.12 Q135.505 1344.12 133.63 1344.54 Q131.778 1344.96 129.833 1345.84 L129.833 1328.48 Z" fill="#000000" fill-rule="evenodd" fill-opacity="1" /><path clip-path="url(#clip890)" d="M93.5604 915.366 Q89.9493 915.366 88.1206 918.93 Q86.315 922.472 86.315 929.602 Q86.315 936.708 88.1206 940.273 Q89.9493 943.814 93.5604 943.814 Q97.1946 943.814 99.0002 940.273 Q100.829 936.708 100.829 929.602 Q100.829 922.472 99.0002 918.93 Q97.1946 915.366 93.5604 915.366 M93.5604 911.662 Q99.3705 911.662 102.426 916.268 Q105.505 920.852 105.505 929.602 Q105.505 938.328 102.426 942.935 Q99.3705 947.518 93.5604 947.518 Q87.7502 947.518 84.6715 942.935 Q81.616 938.328 81.616 929.602 Q81.616 920.852 84.6715 916.268 Q87.7502 911.662 93.5604 911.662 Z" fill="#000000" fill-rule="evenodd" fill-opacity="1" /><path clip-path="url(#clip890)" d="M113.722 940.967 L118.607 940.967 L118.607 946.847 L113.722 946.847 L113.722 940.967 Z" fill="#000000" fill-rule="evenodd" fill-opacity="1" /><path clip-path="url(#clip890)" d="M138.792 915.366 Q135.181 915.366 133.352 918.93 Q131.546 922.472 131.546 929.602 Q131.546 936.708 133.352 940.273 Q135.181 943.814 138.792 943.814 Q142.426 943.814 144.231 940.273 Q146.06 936.708 146.06 929.602 Q146.06 922.472 144.231 918.93 Q142.426 915.366 138.792 915.366 M138.792 911.662 Q144.602 911.662 147.657 916.268 Q150.736 920.852 150.736 929.602 Q150.736 938.328 147.657 942.935 Q144.602 947.518 138.792 947.518 Q132.981 947.518 129.903 942.935 Q126.847 938.328 126.847 929.602 Q126.847 920.852 129.903 916.268 Q132.981 911.662 138.792 911.662 Z" fill="#000000" fill-rule="evenodd" fill-opacity="1" /><path clip-path="url(#clip890)" d="M94.5557 499.176 Q90.9447 499.176 89.116 502.74 Q87.3104 506.282 87.3104 513.412 Q87.3104 520.518 89.116 524.083 Q90.9447 527.624 94.5557 527.624 Q98.19 527.624 99.9955 524.083 Q101.824 520.518 101.824 513.412 Q101.824 506.282 99.9955 502.74 Q98.19 499.176 94.5557 499.176 M94.5557 495.472 Q100.366 495.472 103.421 500.078 Q106.5 504.662 106.5 513.412 Q106.5 522.138 103.421 526.745 Q100.366 531.328 94.5557 531.328 Q88.7456 531.328 85.6669 526.745 Q82.6114 522.138 82.6114 513.412 Q82.6114 504.662 85.6669 500.078 Q88.7456 495.472 94.5557 495.472 Z" fill="#000000" fill-rule="evenodd" fill-opacity="1" /><path clip-path="url(#clip890)" d="M114.718 524.777 L119.602 524.777 L119.602 530.657 L114.718 530.657 L114.718 524.777 Z" fill="#000000" fill-rule="evenodd" fill-opacity="1" /><path clip-path="url(#clip890)" d="M129.833 496.097 L148.19 496.097 L148.19 500.032 L134.116 500.032 L134.116 508.504 Q135.134 508.157 136.153 507.995 Q137.171 507.81 138.19 507.81 Q143.977 507.81 147.356 510.981 Q150.736 514.152 150.736 519.569 Q150.736 525.148 147.264 528.249 Q143.792 531.328 137.472 531.328 Q135.296 531.328 133.028 530.958 Q130.782 530.587 128.375 529.847 L128.375 525.148 Q130.458 526.282 132.681 526.837 Q134.903 527.393 137.38 527.393 Q141.384 527.393 143.722 525.287 Q146.06 523.18 146.06 519.569 Q146.06 515.958 143.722 513.851 Q141.384 511.745 137.38 511.745 Q135.505 511.745 133.63 512.162 Q131.778 512.578 129.833 513.458 L129.833 496.097 Z" fill="#000000" fill-rule="evenodd" fill-opacity="1" /><path clip-path="url(#clip890)" d="M84.3706 110.532 L92.0095 110.532 L92.0095 84.1661 L83.6993 85.8327 L83.6993 81.5735 L91.9632 79.9068 L96.6391 79.9068 L96.6391 110.532 L104.278 110.532 L104.278 114.467 L84.3706 114.467 L84.3706 110.532 Z" fill="#000000" fill-rule="evenodd" fill-opacity="1" /><path clip-path="url(#clip890)" d="M113.722 108.587 L118.607 108.587 L118.607 114.467 L113.722 114.467 L113.722 108.587 Z" fill="#000000" fill-rule="evenodd" fill-opacity="1" /><path clip-path="url(#clip890)" d="M138.792 82.9855 Q135.181 82.9855 133.352 86.5503 Q131.546 90.092 131.546 97.2216 Q131.546 104.328 133.352 107.893 Q135.181 111.434 138.792 111.434 Q142.426 111.434 144.231 107.893 Q146.06 104.328 146.06 97.2216 Q146.06 90.092 144.231 86.5503 Q142.426 82.9855 138.792 82.9855 M138.792 79.2818 Q144.602 79.2818 147.657 83.8883 Q150.736 88.4716 150.736 97.2216 Q150.736 105.948 147.657 110.555 Q144.602 115.138 138.792 115.138 Q132.981 115.138 129.903 110.555 Q126.847 105.948 126.847 97.2216 Q126.847 88.4716 129.903 83.8883 Q132.981 79.2818 138.792 79.2818 Z" fill="#000000" fill-rule="evenodd" fill-opacity="1" /><polyline clip-path="url(#clip892)" style="stroke:#009af9; stroke-linecap:butt; stroke-linejoin:round; stroke-width:4; stroke-opacity:1; fill:none" points="
  309.782,929.567 320.79,912.543 331.797,895.526 382.689,817.151 433.58,739.779 484.472,664.104 535.363,590.801 565.947,548.164 596.531,506.758 627.114,466.717 
  657.698,428.171 683.556,396.838 709.414,366.736 735.272,337.932 761.13,310.493 789.22,282.309 817.309,255.887 845.398,231.3 873.487,208.614 899.383,189.438 
  925.278,171.975 951.174,156.266 977.07,142.347 1004.83,129.449 1032.6,118.68 1060.36,110.068 1088.12,103.637 1120.29,98.934 1152.45,97.1974 1184.62,98.4333 
  1216.79,102.637 1245.37,108.852 1273.96,117.382 1302.54,128.202 1331.13,141.283 1356.19,154.584 1381.26,169.567 1406.33,186.198 1431.39,204.441 1458.72,226.122 
  1486.05,249.616 1513.38,274.864 1540.71,301.799 1568.21,330.527 1595.7,360.818 1623.19,392.593 1650.68,425.769 1681.08,463.975 1711.47,503.666 1741.87,544.715 
  1772.26,586.991 1830.11,670.344 1887.95,756.688 2008.23,941.456 2109.49,1096.91 2171.3,1189.25 2233.11,1278.16 2261.42,1317.42 2289.73,1355.61 2318.04,1392.62 
  2346.35,1428.35 2372.5,1460.13 2398.64,1490.65 2424.79,1519.85 2450.94,1547.65 2477.42,1574.33 2503.91,1599.45 2530.4,1622.94 2556.88,1644.76 2586.57,1667.15 
  2616.25,1687.29 2645.93,1705.13 2675.62,1720.62 2702.52,1732.57 2729.42,1742.52 2756.31,1750.43 2783.21,1756.3 2814.01,1760.48 2844.8,1761.95 2875.6,1760.68 
  2906.4,1756.7 2934.91,1750.59 2963.43,1742.19 2991.94,1731.5 3020.46,1718.56 3048.57,1703.64 3076.68,1686.6 3104.8,1667.5 3132.91,1646.39 3160.2,1624.01 
  3187.5,1599.86 3214.79,1573.98 3242.09,1546.44 3270.07,1516.56 3298.05,1485.1 3326.03,1452.14 3354.01,1417.76 3384.67,1378.59 3415.32,1337.96 3445.98,1296 
  3476.63,1252.86 3565.7,1122.08 3654.77,986.044 3673.04,957.822 3691.31,929.567 
  "/>
<polyline clip-path="url(#clip892)" style="stroke:#e26f46; stroke-linecap:butt; stroke-linejoin:round; stroke-width:4; stroke-opacity:1; fill:none" points="
  309.782,97.1868 315.286,97.2304 320.79,97.3609 326.294,97.5786 331.797,97.8832 357.243,100.421 382.689,104.813 408.135,111.048 433.58,119.112 459.026,128.988 
  484.472,140.652 509.918,154.081 535.363,169.242 565.947,189.71 596.531,212.567 627.114,237.738 657.698,265.143 683.556,289.991 709.414,316.315 735.272,344.055 
  761.13,373.146 789.22,406.2 817.309,440.679 845.398,476.489 873.487,513.534 925.278,584.731 977.07,659.12 1088.12,826.145 1216.79,1024.67 1273.96,1111.81 
  1331.13,1196.9 1381.26,1269.06 1431.39,1338.28 1458.72,1374.56 1486.05,1409.7 1513.38,1443.59 1540.71,1476.16 1568.21,1507.5 1595.7,1537.33 1623.19,1565.58 
  1650.68,1592.17 1681.08,1619.55 1711.47,1644.73 1741.87,1667.64 1772.26,1688.18 1801.19,1705.49 1830.11,1720.55 1859.03,1733.34 1887.95,1743.8 1918.02,1752.18 
  1948.09,1758 1978.16,1761.23 2008.23,1761.86 2033.55,1760.38 2058.86,1757.07 2084.17,1751.92 2109.49,1744.95 2140.39,1734 2171.3,1720.4 2202.2,1704.2 
  2233.11,1685.44 2261.42,1666.06 2289.73,1644.65 2318.04,1621.26 2346.35,1595.95 2372.5,1570.94 2398.64,1544.42 2424.79,1516.45 2450.94,1487.09 2477.42,1456.01 
  2503.91,1423.65 2530.4,1390.1 2556.88,1355.43 2616.25,1274.11 2675.62,1188.6 2729.42,1108.37 2783.21,1026.35 2906.4,836.238 3020.46,664.339 3076.68,583.508 
  3132.91,506.451 3160.2,470.656 3187.5,436.041 3214.79,402.696 3242.09,370.705 3270.07,339.403 3298.05,309.696 3326.03,281.664 3354.01,255.383 3384.67,228.683 
  3415.32,204.257 3445.98,182.183 3476.63,162.534 3498.9,149.819 3521.17,138.438 3543.43,128.411 3565.7,119.755 3610.23,106.614 3654.77,99.1051 3663.9,98.266 
  3673.04,97.6665 3682.17,97.3068 3691.31,97.1868 
  "/>
<circle clip-path="url(#clip892)" cx="732.473" cy="340.985" r="14.4" fill="#3da44d" fill-rule="evenodd" fill-opacity="1" stroke="#000000" stroke-opacity="1" stroke-width="3.84"/>
<circle clip-path="url(#clip892)" cx="2423.24" cy="1518.15" r="14.4" fill="#3da44d" fill-rule="evenodd" fill-opacity="1" stroke="#000000" stroke-opacity="1" stroke-width="3.84"/>
<path clip-path="url(#clip890)" d="
M3236.27 313.426 L3673.28 313.426 L3673.28 106.066 L3236.27 106.066  Z
  " fill="#ffffff" fill-rule="evenodd" fill-opacity="1"/>
<polyline clip-path="url(#clip890)" style="stroke:#000000; stroke-linecap:butt; stroke-linejoin:round; stroke-width:4; stroke-opacity:1; fill:none" points="
  3236.27,313.426 3673.28,313.426 3673.28,106.066 3236.27,106.066 3236.27,313.426 
  "/>
<polyline clip-path="url(#clip890)" style="stroke:#009af9; stroke-linecap:butt; stroke-linejoin:round; stroke-width:4; stroke-opacity:1; fill:none" points="
  3274.67,157.906 3505.07,157.906 
  "/>
<path clip-path="url(#clip890)" d="M3557.31 177.593 Q3555.5 182.223 3553.79 183.635 Q3552.08 185.047 3549.21 185.047 L3545.8 185.047 L3545.8 181.482 L3548.3 181.482 Q3550.06 181.482 3551.04 180.648 Q3552.01 179.815 3553.19 176.713 L3553.95 174.769 L3543.47 149.26 L3547.98 149.26 L3556.08 169.537 L3564.18 149.26 L3568.7 149.26 L3557.31 177.593 Z" fill="#000000" fill-rule="evenodd" fill-opacity="1" /><path clip-path="url(#clip890)" d="M3575.99 171.25 L3583.63 171.25 L3583.63 144.885 L3575.32 146.551 L3575.32 142.292 L3583.58 140.626 L3588.26 140.626 L3588.26 171.25 L3595.9 171.25 L3595.9 175.186 L3575.99 175.186 L3575.99 171.25 Z" fill="#000000" fill-rule="evenodd" fill-opacity="1" /><polyline clip-path="url(#clip890)" style="stroke:#e26f46; stroke-linecap:butt; stroke-linejoin:round; stroke-width:4; stroke-opacity:1; fill:none" points="
  3274.67,209.746 3505.07,209.746 
  "/>
<path clip-path="url(#clip890)" d="M3557.31 229.433 Q3555.5 234.063 3553.79 235.475 Q3552.08 236.887 3549.21 236.887 L3545.8 236.887 L3545.8 233.322 L3548.3 233.322 Q3550.06 233.322 3551.04 232.488 Q3552.01 231.655 3553.19 228.553 L3553.95 226.609 L3543.47 201.1 L3547.98 201.1 L3556.08 221.377 L3564.18 201.1 L3568.7 201.1 L3557.31 229.433 Z" fill="#000000" fill-rule="evenodd" fill-opacity="1" /><path clip-path="url(#clip890)" d="M3579.21 223.09 L3595.53 223.09 L3595.53 227.026 L3573.58 227.026 L3573.58 223.09 Q3576.24 220.336 3580.83 215.706 Q3585.43 211.053 3586.61 209.711 Q3588.86 207.188 3589.74 205.452 Q3590.64 203.692 3590.64 202.003 Q3590.64 199.248 3588.7 197.512 Q3586.78 195.776 3583.67 195.776 Q3581.48 195.776 3579.02 196.54 Q3576.59 197.303 3573.81 198.854 L3573.81 194.132 Q3576.64 192.998 3579.09 192.419 Q3581.54 191.841 3583.58 191.841 Q3588.95 191.841 3592.15 194.526 Q3595.34 197.211 3595.34 201.702 Q3595.34 203.831 3594.53 205.753 Q3593.74 207.651 3591.64 210.243 Q3591.06 210.915 3587.96 214.132 Q3584.85 217.327 3579.21 223.09 Z" fill="#000000" fill-rule="evenodd" fill-opacity="1" /><circle clip-path="url(#clip890)" cx="3389.87" cy="261.586" r="23.04" fill="#3da44d" fill-rule="evenodd" fill-opacity="1" stroke="#000000" stroke-opacity="1" stroke-width="6.144"/>
<path clip-path="url(#clip890)" d="M3557.31 281.273 Q3555.5 285.903 3553.79 287.315 Q3552.08 288.727 3549.21 288.727 L3545.8 288.727 L3545.8 285.162 L3548.3 285.162 Q3550.06 285.162 3551.04 284.328 Q3552.01 283.495 3553.19 280.393 L3553.95 278.449 L3543.47 252.94 L3547.98 252.94 L3556.08 273.217 L3564.18 252.94 L3568.7 252.94 L3557.31 281.273 Z" fill="#000000" fill-rule="evenodd" fill-opacity="1" /><path clip-path="url(#clip890)" d="M3589.35 260.231 Q3592.7 260.949 3594.58 263.217 Q3596.48 265.486 3596.48 268.819 Q3596.48 273.935 3592.96 276.736 Q3589.44 279.537 3582.96 279.537 Q3580.78 279.537 3578.47 279.097 Q3576.17 278.68 3573.72 277.824 L3573.72 273.31 Q3575.67 274.444 3577.98 275.023 Q3580.29 275.602 3582.82 275.602 Q3587.22 275.602 3589.51 273.866 Q3591.82 272.129 3591.82 268.819 Q3591.82 265.764 3589.67 264.051 Q3587.54 262.315 3583.72 262.315 L3579.69 262.315 L3579.69 258.472 L3583.91 258.472 Q3587.35 258.472 3589.18 257.106 Q3591.01 255.718 3591.01 253.125 Q3591.01 250.463 3589.11 249.051 Q3587.24 247.616 3583.72 247.616 Q3581.8 247.616 3579.6 248.032 Q3577.4 248.449 3574.76 249.329 L3574.76 245.162 Q3577.42 244.421 3579.74 244.051 Q3582.08 243.681 3584.14 243.681 Q3589.46 243.681 3592.56 246.111 Q3595.67 248.518 3595.67 252.639 Q3595.67 255.509 3594.02 257.5 Q3592.38 259.468 3589.35 260.231 Z" fill="#000000" fill-rule="evenodd" fill-opacity="1" /></svg>
