<?xml version="1.0" encoding="utf-8"?>
<svg xmlns="http://www.w3.org/2000/svg" xmlns:xlink="http://www.w3.org/1999/xlink" width="960" height="480" viewBox="0 0 3840 1920">
<defs>
  <clipPath id="clip920">
    <rect x="0" y="0" width="3840" height="1920"/>
  </clipPath>
</defs>
<path clip-path="url(#clip920)" d="
M0 1920 L3840 1920 L3840 0 L0 0  Z
  " fill="#ffffff" fill-rule="evenodd" fill-opacity="1"/>
<defs>
  <clipPath id="clip921">
    <rect x="768" y="0" width="2689" height="1920"/>
  </clipPath>
</defs>
<path clip-path="url(#clip920)" d="
M208.336 1811.89 L3792.76 1811.89 L3792.76 47.2441 L208.336 47.2441  Z
  " fill="#ffffff" fill-rule="evenodd" fill-opacity="1"/>
<defs>
  <clipPath id="clip922">
    <rect x="208" y="47" width="3585" height="1766"/>
  </clipPath>
</defs>
<polyline clip-path="url(#clip922)" style="stroke:#000000; stroke-linecap:butt; stroke-linejoin:round; stroke-width:2; stroke-opacity:0.1; fill:none" points="
  309.782,1811.89 309.782,47.2441 
  "/>
<polyline clip-path="url(#clip922)" style="stroke:#000000; stroke-linecap:butt; stroke-linejoin:round; stroke-width:2; stroke-opacity:0.1; fill:none" points="
  847.969,1811.89 847.969,47.2441 
  "/>
<polyline clip-path="url(#clip922)" style="stroke:#000000; stroke-linecap:butt; stroke-linejoin:round; stroke-width:2; stroke-opacity:0.1; fill:none" points="
  1386.16,1811.89 1386.16,47.2441 
  "/>
<polyline clip-path="url(#clip922)" style="stroke:#000000; stroke-linecap:butt; stroke-linejoin:round; stroke-width:2; stroke-opacity:0.1; fill:none" points="
  1924.34,1811.89 1924.34,47.2441 
  "/>
<polyline clip-path="url(#clip922)" style="stroke:#000000; stroke-linecap:butt; stroke-linejoin:round; stroke-width:2; stroke-opacity:0.1; fill:none" points="
  2462.53,1811.89 2462.53,47.2441 
  "/>
<polyline clip-path="url(#clip922)" style="stroke:#000000; stroke-linecap:butt; stroke-linejoin:round; stroke-width:2; stroke-opacity:0.1; fill:none" points="
  3000.72,1811.89 3000.72,47.2441 
  "/>
<polyline clip-path="url(#clip922)" style="stroke:#000000; stroke-linecap:butt; stroke-linejoin:round; stroke-width:2; stroke-opacity:0.1; fill:none" points="
  3538.9,1811.89 3538.9,47.2441 
  "/>
<polyline clip-path="url(#clip920)" style="stroke:#000000; stroke-linecap:butt; stroke-linejoin:round; stroke-width:4; stroke-opacity:1; fill:none" points="
  208.336,1811.89 3792.76,1811.89 
  "/>
<polyline clip-path="url(#clip920)" style="stroke:#000000; stroke-linecap:butt; stroke-linejoin:round; stroke-width:4; stroke-opacity:1; fill:none" points="
  309.782,1811.89 309.782,1792.99 
  "/>
<polyline clip-path="url(#clip920)" style="stroke:#000000; stroke-linecap:butt; stroke-linejoin:round; stroke-width:4; stroke-opacity:1; fill:none" points="
  847.969,1811.89 847.969,1792.99 
  "/>
<polyline clip-path="url(#clip920)" style="stroke:#000000; stroke-linecap:butt; stroke-linejoin:round; stroke-width:4; stroke-opacity:1; fill:none" points="
  1386.16,1811.89 1386.16,1792.99 
  "/>
<polyline clip-path="url(#clip920)" style="stroke:#000000; stroke-linecap:butt; stroke-linejoin:round; stroke-width:4; stroke-opacity:1; fill:none" points="
  1924.34,1811.89 1924.34,1792.99 
  "/>
<polyline clip-path="url(#clip920)" style="stroke:#000000; stroke-linecap:butt; stroke-linejoin:round; stroke-width:4; stroke-opacity:1; fill:none" points="
  2462.53,1811.89 2462.53,1792.99 
  "/>
<polyline clip-path="url(#clip920)" style="stroke:#000000; stroke-linecap:butt; stroke-linejoin:round; stroke-width:4; stroke-opacity:1; fill:none" points="
  3000.72,1811.89 3000.72,1792.99 
  "/>
<polyline clip-path="url(#clip920)" style="stroke:#000000; stroke-linecap:butt; stroke-linejoin:round; stroke-width:4; stroke-opacity:1; fill:none" points="
  3538.9,1811.89 3538.9,1792.99 
  "/>
<path clip-path="url(#clip920)" d="M309.782 1854.33 Q306.171 1854.33 304.342 1857.89 Q302.537 1861.43 302.537 1868.56 Q302.537 1875.67 304.342 1879.23 Q306.171 1882.78 309.782 1882.78 Q313.416 1882.78 315.222 1879.23 Q317.05 1875.67 317.05 1868.56 Q317.05 1861.43 315.222 1857.89 Q313.416 1854.33 309.782 1854.33 M309.782 1850.62 Q315.592 1850.62 318.648 1855.23 Q321.726 1859.81 321.726 1868.56 Q321.726 1877.29 318.648 1881.9 Q315.592 1886.48 309.782 1886.48 Q303.972 1886.48 300.893 1881.9 Q297.837 1877.29 297.837 1868.56 Q297.837 1859.81 300.893 1855.23 Q303.972 1850.62 309.782 1850.62 Z" fill="#000000" fill-rule="evenodd" fill-opacity="1" /><path clip-path="url(#clip920)" d="M838.351 1881.87 L845.99 1881.87 L845.99 1855.51 L837.679 1857.17 L837.679 1852.91 L845.943 1851.25 L850.619 1851.25 L850.619 1881.87 L858.258 1881.87 L858.258 1885.81 L838.351 1885.81 L838.351 1881.87 Z" fill="#000000" fill-rule="evenodd" fill-opacity="1" /><path clip-path="url(#clip920)" d="M1380.81 1881.87 L1397.13 1881.87 L1397.13 1885.81 L1375.18 1885.81 L1375.18 1881.87 Q1377.85 1879.12 1382.43 1874.49 Q1387.04 1869.84 1388.22 1868.49 Q1390.46 1865.97 1391.34 1864.23 Q1392.24 1862.47 1392.24 1860.78 Q1392.24 1858.03 1390.3 1856.29 Q1388.38 1854.56 1385.28 1854.56 Q1383.08 1854.56 1380.62 1855.32 Q1378.19 1856.09 1375.42 1857.64 L1375.42 1852.91 Q1378.24 1851.78 1380.69 1851.2 Q1383.15 1850.62 1385.18 1850.62 Q1390.55 1850.62 1393.75 1853.31 Q1396.94 1855.99 1396.94 1860.48 Q1396.94 1862.61 1396.13 1864.53 Q1395.35 1866.43 1393.24 1869.03 Q1392.66 1869.7 1389.56 1872.91 Q1386.46 1876.11 1380.81 1881.87 Z" fill="#000000" fill-rule="evenodd" fill-opacity="1" /><path clip-path="url(#clip920)" d="M1928.59 1867.17 Q1931.95 1867.89 1933.82 1870.16 Q1935.72 1872.43 1935.72 1875.76 Q1935.72 1880.88 1932.2 1883.68 Q1928.68 1886.48 1922.2 1886.48 Q1920.03 1886.48 1917.71 1886.04 Q1915.42 1885.62 1912.97 1884.77 L1912.97 1880.25 Q1914.91 1881.39 1917.22 1881.97 Q1919.54 1882.54 1922.06 1882.54 Q1926.46 1882.54 1928.75 1880.81 Q1931.07 1879.07 1931.07 1875.76 Q1931.07 1872.71 1928.91 1870.99 Q1926.78 1869.26 1922.97 1869.26 L1918.94 1869.26 L1918.94 1865.41 L1923.15 1865.41 Q1926.6 1865.41 1928.43 1864.05 Q1930.26 1862.66 1930.26 1860.07 Q1930.26 1857.41 1928.36 1855.99 Q1926.48 1854.56 1922.97 1854.56 Q1921.04 1854.56 1918.84 1854.97 Q1916.65 1855.39 1914.01 1856.27 L1914.01 1852.1 Q1916.67 1851.36 1918.98 1850.99 Q1921.32 1850.62 1923.38 1850.62 Q1928.71 1850.62 1931.81 1853.05 Q1934.91 1855.46 1934.91 1859.58 Q1934.91 1862.45 1933.27 1864.44 Q1931.62 1866.41 1928.59 1867.17 Z" fill="#000000" fill-rule="evenodd" fill-opacity="1" /><path clip-path="url(#clip920)" d="M2465.54 1855.32 L2453.73 1873.77 L2465.54 1873.77 L2465.54 1855.32 M2464.31 1851.25 L2470.19 1851.25 L2470.19 1873.77 L2475.12 1873.77 L2475.12 1877.66 L2470.19 1877.66 L2470.19 1885.81 L2465.54 1885.81 L2465.54 1877.66 L2449.94 1877.66 L2449.94 1873.15 L2464.31 1851.25 Z" fill="#000000" fill-rule="evenodd" fill-opacity="1" /><path clip-path="url(#clip920)" d="M2990.99 1851.25 L3009.35 1851.25 L3009.35 1855.18 L2995.28 1855.18 L2995.28 1863.66 Q2996.3 1863.31 2997.31 1863.15 Q2998.33 1862.96 2999.35 1862.96 Q3005.14 1862.96 3008.52 1866.13 Q3011.9 1869.3 3011.9 1874.72 Q3011.9 1880.3 3008.42 1883.4 Q3004.95 1886.48 2998.63 1886.48 Q2996.46 1886.48 2994.19 1886.11 Q2991.94 1885.74 2989.54 1885 L2989.54 1880.3 Q2991.62 1881.43 2993.84 1881.99 Q2996.06 1882.54 2998.54 1882.54 Q3002.55 1882.54 3004.88 1880.44 Q3007.22 1878.33 3007.22 1874.72 Q3007.22 1871.11 3004.88 1869 Q3002.55 1866.9 2998.54 1866.9 Q2996.67 1866.9 2994.79 1867.31 Q2992.94 1867.73 2990.99 1868.61 L2990.99 1851.25 Z" fill="#000000" fill-rule="evenodd" fill-opacity="1" /><path clip-path="url(#clip920)" d="M3539.31 1866.66 Q3536.16 1866.66 3534.31 1868.82 Q3532.48 1870.97 3532.48 1874.72 Q3532.48 1878.45 3534.31 1880.62 Q3536.16 1882.78 3539.31 1882.78 Q3542.46 1882.78 3544.29 1880.62 Q3546.14 1878.45 3546.14 1874.72 Q3546.14 1870.97 3544.29 1868.82 Q3542.46 1866.66 3539.31 1866.66 M3548.59 1852.01 L3548.59 1856.27 Q3546.83 1855.44 3545.03 1855 Q3543.24 1854.56 3541.48 1854.56 Q3536.85 1854.56 3534.4 1857.68 Q3531.97 1860.81 3531.62 1867.13 Q3532.99 1865.11 3535.05 1864.05 Q3537.11 1862.96 3539.59 1862.96 Q3544.79 1862.96 3547.8 1866.13 Q3550.84 1869.28 3550.84 1874.72 Q3550.84 1880.04 3547.69 1883.26 Q3544.54 1886.48 3539.31 1886.48 Q3533.31 1886.48 3530.14 1881.9 Q3526.97 1877.29 3526.97 1868.56 Q3526.97 1860.37 3530.86 1855.51 Q3534.75 1850.62 3541.3 1850.62 Q3543.06 1850.62 3544.84 1850.97 Q3546.65 1851.32 3548.59 1852.01 Z" fill="#000000" fill-rule="evenodd" fill-opacity="1" /><polyline clip-path="url(#clip922)" style="stroke:#000000; stroke-linecap:butt; stroke-linejoin:round; stroke-width:2; stroke-opacity:0.1; fill:none" points="
  208.336,1762.05 3792.76,1762.05 
  "/>
<polyline clip-path="url(#clip922)" style="stroke:#000000; stroke-linecap:butt; stroke-linejoin:round; stroke-width:2; stroke-opacity:0.1; fill:none" points="
  208.336,1345.83 3792.76,1345.83 
  "/>
<polyline clip-path="url(#clip922)" style="stroke:#000000; stroke-linecap:butt; stroke-linejoin:round; stroke-width:2; stroke-opacity:0.1; fill:none" points="
  208.336,929.616 3792.76,929.616 
  "/>
<polyline clip-path="url(#clip922)" style="stroke:#000000; stroke-linecap:butt; stroke-linejoin:round; stroke-width:2; stroke-opacity:0.1; fill:none" points="
  208.336,513.401 3792.76,513.401 
  "/>
<polyline clip-path="url(#clip922)" style="stroke:#000000; stroke-linecap:butt; stroke-linejoin:round; stroke-width:2; stroke-opacity:0.1; fill:none" points="
  208.336,97.1868 3792.76,97.1868 
  "/>
<polyline clip-path="url(#clip920)" style="stroke:#000000; stroke-linecap:butt; stroke-linejoin:round; stroke-width:4; stroke-opacity:1; fill:none" points="
  208.336,1811.89 208.336,47.2441 
  "/>
<polyline clip-path="url(#clip920)" style="stroke:#000000; stroke-linecap:butt; stroke-linejoin:round; stroke-width:4; stroke-opacity:1; fill:none" points="
  208.336,1762.05 227.234,1762.05 
  "/>
<polyline clip-path="url(#clip920)" style="stroke:#000000; stroke-linecap:butt; stroke-linejoin:round; stroke-width:4; stroke-opacity:1; fill:none" points="
  208.336,1345.83 227.234,1345.83 
  "/>
<polyline clip-path="url(#clip920)" style="stroke:#000000; stroke-linecap:butt; stroke-linejoin:round; stroke-width:4; stroke-opacity:1; fill:none" points="
  208.336,929.616 227.234,929.616 
  "/>
<polyline clip-path="url(#clip920)" style="stroke:#000000; stroke-linecap:butt; stroke-linejoin:round; stroke-width:4; stroke-opacity:1; fill:none" points="
  208.336,513.401 227.234,513.401 
  "/>
<polyline clip-path="url(#clip920)" style="stroke:#000000; stroke-linecap:butt; stroke-linejoin:round; stroke-width:4; stroke-opacity:1; fill:none" points="
  208.336,97.1868 227.234,97.1868 
  "/>
<path clip-path="url(#clip920)" d="M43.7921 1762.5 L73.4679 1762.5 L73.4679 1766.43 L43.7921 1766.43 L43.7921 1762.5 Z" fill="#000000" fill-rule="evenodd" fill-opacity="1" /><path clip-path="url(#clip920)" d="M84.3706 1775.39 L92.0095 1775.39 L92.0095 1749.02 L83.6993 1750.69 L83.6993 1746.43 L91.9632 1744.77 L96.6391 1744.77 L96.6391 1775.39 L104.278 1775.39 L104.278 1779.33 L84.3706 1779.33 L84.3706 1775.39 Z" fill="#000000" fill-rule="evenodd" fill-opacity="1" /><path clip-path="url(#clip920)" d="M113.722 1773.45 L118.607 1773.45 L118.607 1779.33 L113.722 1779.33 L113.722 1773.45 Z" fill="#000000" fill-rule="evenodd" fill-opacity="1" /><path clip-path="url(#clip920)" d="M138.792 1747.84 Q135.181 1747.84 133.352 1751.41 Q131.546 1754.95 131.546 1762.08 Q131.546 1769.19 133.352 1772.75 Q135.181 1776.29 138.792 1776.29 Q142.426 1776.29 144.231 1772.75 Q146.06 1769.19 146.06 1762.08 Q146.06 1754.95 144.231 1751.41 Q142.426 1747.84 138.792 1747.84 M138.792 1744.14 Q144.602 1744.14 147.657 1748.75 Q150.736 1753.33 150.736 1762.08 Q150.736 1770.81 147.657 1775.41 Q144.602 1780 138.792 1780 Q132.981 1780 129.903 1775.41 Q126.847 1770.81 126.847 1762.08 Q126.847 1753.33 129.903 1748.75 Q132.981 1744.14 138.792 1744.14 Z" fill="#000000" fill-rule="evenodd" fill-opacity="1" /><path clip-path="url(#clip920)" d="M44.7875 1346.28 L74.4633 1346.28 L74.4633 1350.22 L44.7875 1350.22 L44.7875 1346.28 Z" fill="#000000" fill-rule="evenodd" fill-opacity="1" /><path clip-path="url(#clip920)" d="M94.5557 1331.63 Q90.9447 1331.63 89.116 1335.19 Q87.3104 1338.74 87.3104 1345.87 Q87.3104 1352.97 89.116 1356.54 Q90.9447 1360.08 94.5557 1360.08 Q98.19 1360.08 99.9955 1356.54 Q101.824 1352.97 101.824 1345.87 Q101.824 1338.74 99.9955 1335.19 Q98.19 1331.63 94.5557 1331.63 M94.5557 1327.93 Q100.366 1327.93 103.421 1332.53 Q106.5 1337.12 106.5 1345.87 Q106.5 1354.59 103.421 1359.2 Q100.366 1363.78 94.5557 1363.78 Q88.7456 1363.78 85.6669 1359.2 Q82.6114 1354.59 82.6114 1345.87 Q82.6114 1337.12 85.6669 1332.53 Q88.7456 1327.93 94.5557 1327.93 Z" fill="#000000" fill-rule="evenodd" fill-opacity="1" /><path clip-path="url(#clip920)" d="M114.718 1357.23 L119.602 1357.23 L119.602 1363.11 L114.718 1363.11 L114.718 1357.23 Z" fill="#000000" fill-rule="evenodd" fill-opacity="1" /><path clip-path="url(#clip920)" d="M129.833 1328.55 L148.19 1328.55 L148.19 1332.49 L134.116 1332.49 L134.116 1340.96 Q135.134 1340.61 136.153 1340.45 Q137.171 1340.26 138.19 1340.26 Q143.977 1340.26 147.356 1343.43 Q150.736 1346.61 150.736 1352.02 Q150.736 1357.6 147.264 1360.7 Q143.792 1363.78 137.472 1363.78 Q135.296 1363.78 133.028 1363.41 Q130.782 1363.04 128.375 1362.3 L128.375 1357.6 Q130.458 1358.74 132.681 1359.29 Q134.903 1359.85 137.38 1359.85 Q141.384 1359.85 143.722 1357.74 Q146.06 1355.63 146.06 1352.02 Q146.06 1348.41 143.722 1346.31 Q141.384 1344.2 137.38 1344.2 Q135.505 1344.2 133.63 1344.62 Q131.778 1345.03 129.833 1345.91 L129.833 1328.55 Z" fill="#000000" fill-rule="evenodd" fill-opacity="1" /><path clip-path="url(#clip920)" d="M93.5604 915.415 Q89.9493 915.415 88.1206 918.979 Q86.315 922.521 86.315 929.651 Q86.315 936.757 88.1206 940.322 Q89.9493 943.864 93.5604 943.864 Q97.1946 943.864 99.0002 940.322 Q100.829 936.757 100.829 929.651 Q100.829 922.521 99.0002 918.979 Q97.1946 915.415 93.5604 915.415 M93.5604 911.711 Q99.3705 911.711 102.426 916.317 Q105.505 920.901 105.505 929.651 Q105.505 938.378 102.426 942.984 Q99.3705 947.567 93.5604 947.567 Q87.7502 947.567 84.6715 942.984 Q81.616 938.378 81.616 929.651 Q81.616 920.901 84.6715 916.317 Q87.7502 911.711 93.5604 911.711 Z" fill="#000000" fill-rule="evenodd" fill-opacity="1" /><path clip-path="url(#clip920)" d="M113.722 941.016 L118.607 941.016 L118.607 946.896 L113.722 946.896 L113.722 941.016 Z" fill="#000000" fill-rule="evenodd" fill-opacity="1" /><path clip-path="url(#clip920)" d="M138.792 915.415 Q135.181 915.415 133.352 918.979 Q131.546 922.521 131.546 929.651 Q131.546 936.757 133.352 940.322 Q135.181 943.864 138.792 943.864 Q142.426 943.864 144.231 940.322 Q146.06 936.757 146.06 929.651 Q146.06 922.521 144.231 918.979 Q142.426 915.415 138.792 915.415 M138.792 911.711 Q144.602 911.711 147.657 916.317 Q150.736 920.901 150.736 929.651 Q150.736 938.378 147.657 942.984 Q144.602 947.567 138.792 947.567 Q132.981 947.567 129.903 942.984 Q126.847 938.378 126.847 929.651 Q126.847 920.901 129.903 916.317 Q132.981 911.711 138.792 911.711 Z" fill="#000000" fill-rule="evenodd" fill-opacity="1" /><path clip-path="url(#clip920)" d="M94.5557 499.2 Q90.9447 499.2 89.116 502.765 Q87.3104 506.307 87.3104 513.436 Q87.3104 520.543 89.116 524.107 Q90.9447 527.649 94.5557 527.649 Q98.19 527.649 99.9955 524.107 Q101.824 520.543 101.824 513.436 Q101.824 506.307 99.9955 502.765 Q98.19 499.2 94.5557 499.2 M94.5557 495.496 Q100.366 495.496 103.421 500.103 Q106.5 504.686 106.5 513.436 Q106.5 522.163 103.421 526.769 Q100.366 531.353 94.5557 531.353 Q88.7456 531.353 85.6669 526.769 Q82.6114 522.163 82.6114 513.436 Q82.6114 504.686 85.6669 500.103 Q88.7456 495.496 94.5557 495.496 Z" fill="#000000" fill-rule="evenodd" fill-opacity="1" /><path clip-path="url(#clip920)" d="M114.718 524.802 L119.602 524.802 L119.602 530.681 L114.718 530.681 L114.718 524.802 Z" fill="#000000" fill-rule="evenodd" fill-opacity="1" /><path clip-path="url(#clip920)" d="M129.833 496.121 L148.19 496.121 L148.19 500.057 L134.116 500.057 L134.116 508.529 Q135.134 508.182 136.153 508.02 Q137.171 507.834 138.19 507.834 Q143.977 507.834 147.356 511.006 Q150.736 514.177 150.736 519.594 Q150.736 525.172 147.264 528.274 Q143.792 531.353 137.472 531.353 Q135.296 531.353 133.028 530.982 Q130.782 530.612 128.375 529.871 L128.375 525.172 Q130.458 526.306 132.681 526.862 Q134.903 527.418 137.38 527.418 Q141.384 527.418 143.722 525.311 Q146.06 523.205 146.06 519.594 Q146.06 515.982 143.722 513.876 Q141.384 511.769 137.38 511.769 Q135.505 511.769 133.63 512.186 Q131.778 512.603 129.833 513.482 L129.833 496.121 Z" fill="#000000" fill-rule="evenodd" fill-opacity="1" /><path clip-path="url(#clip920)" d="M84.3706 110.532 L92.0095 110.532 L92.0095 84.1661 L83.6993 85.8327 L83.6993 81.5735 L91.9632 79.9068 L96.6391 79.9068 L96.6391 110.532 L104.278 110.532 L104.278 114.467 L84.3706 114.467 L84.3706 110.532 Z" fill="#000000" fill-rule="evenodd" fill-opacity="1" /><path clip-path="url(#clip920)" d="M113.722 108.587 L118.607 108.587 L118.607 114.467 L113.722 114.467 L113.722 108.587 Z" fill="#000000" fill-rule="evenodd" fill-opacity="1" /><path clip-path="url(#clip920)" d="M138.792 82.9855 Q135.181 82.9855 133.352 86.5503 Q131.546 90.092 131.546 97.2216 Q131.546 104.328 133.352 107.893 Q135.181 111.434 138.792 111.434 Q142.426 111.434 144.231 107.893 Q146.06 104.328 146.06 97.2216 Q146.06 90.092 144.231 86.5503 Q142.426 82.9855 138.792 82.9855 M138.792 79.2818 Q144.602 79.2818 147.657 83.8883 Q150.736 88.4716 150.736 97.2216 Q150.736 105.948 147.657 110.555 Q144.602 115.138 138.792 115.138 Q132.981 115.138 129.903 110.555 Q126.847 105.948 126.847 97.2216 Q126.847 88.4716 129.903 83.8883 Q132.981 79.2818 138.792 79.2818 Z" fill="#000000" fill-rule="evenodd" fill-opacity="1" /><polyline clip-path="url(#clip922)" style="stroke:#009af9; stroke-linecap:butt; stroke-linejoin:round; stroke-width:4; stroke-opacity:1; fill:none" points="
  309.782,929.616 326.294,904.081 342.805,878.57 495.48,648.057 648.154,440.052 739.905,332.927 831.656,243.103 870.443,210.985 909.23,182.598 948.018,158.09 
  986.805,137.587 1071.07,107.328 1155.34,97.1869 1233.03,105.884 1310.71,131.714 1394,177.821 1477.29,241.898 1573.79,336.57 1670.29,450.258 1756.04,564.314 
  1841.8,687.625 1917,800.913 1992.2,916.71 2074.19,1043.17 2156.18,1167 2238.65,1286.01 2321.13,1396.67 2412.32,1506.17 2503.51,1599.16 2590.27,1669.88 
  2677.03,1721.39 2722.14,1740.12 2767.25,1753.16 2812.35,1760.43 2857.46,1761.85 2933.4,1751.07 3009.34,1723.97 3102.05,1669.54 3194.77,1593.22 3281.92,1503.5 
  3369.08,1398.77 3508.71,1206.67 3648.33,996.018 3669.82,962.844 3691.31,929.616 
  "/>
<polyline clip-path="url(#clip922)" style="stroke:#e26f46; stroke-linecap:butt; stroke-linejoin:round; stroke-width:4; stroke-opacity:1; fill:none" points="
  309.782,97.1868 318.038,97.2848 326.294,97.5786 334.549,98.0682 342.805,98.7534 419.142,114.314 495.48,146.25 571.817,193.92 648.154,256.366 694.03,300.491 
  739.905,349.184 785.781,402.092 831.656,458.831 909.23,562.325 986.805,673.437 1155.34,929.888 1310.71,1166.87 1394,1287.03 1477.29,1398.64 1573.79,1513.77 
  1670.29,1610.17 1713.17,1646.16 1756.04,1677.61 1798.92,1704.31 1841.8,1726.09 1917,1752.04 1992.2,1761.95 2074.19,1754.26 2156.18,1727.48 2238.65,1681.89 
  2321.13,1618.68 2412.32,1530.05 2503.51,1424.23 2590.27,1310.35 2677.03,1186.58 2857.46,911.782 3009.34,680.729 3102.05,548.244 3194.77,427.05 3281.92,326.63 
  3369.08,241.99 3438.89,187.078 3508.71,144.644 3578.52,115.401 3648.33,99.8395 3659.08,98.6793 3669.82,97.8503 3680.57,97.3527 3691.31,97.1868 
  "/>
<path clip-path="url(#clip920)" d="
M3236.84 261.586 L3673.28 261.586 L3673.28 106.066 L3236.84 106.066  Z
  " fill="#ffffff" fill-rule="evenodd" fill-opacity="1"/>
<polyline clip-path="url(#clip920)" style="stroke:#000000; stroke-linecap:butt; stroke-linejoin:round; stroke-width:4; stroke-opacity:1; fill:none" points="
  3236.84,261.586 3673.28,261.586 3673.28,106.066 3236.84,106.066 3236.84,261.586 
  "/>
<polyline clip-path="url(#clip920)" style="stroke:#009af9; stroke-linecap:butt; stroke-linejoin:round; stroke-width:4; stroke-opacity:1; fill:none" points="
  3275.24,157.906 3505.64,157.906 
  "/>
<path clip-path="url(#clip920)" d="M3557.89 177.593 Q3556.08 182.223 3554.37 183.635 Q3552.66 185.047 3549.79 185.047 L3546.38 185.047 L3546.38 181.482 L3548.88 181.482 Q3550.64 181.482 3551.61 180.648 Q3552.59 179.815 3553.77 176.713 L3554.53 174.769 L3544.04 149.26 L3548.56 149.26 L3556.66 169.537 L3564.76 149.26 L3569.28 149.26 L3557.89 177.593 Z" fill="#000000" fill-rule="evenodd" fill-opacity="1" /><path clip-path="url(#clip920)" d="M3576.57 171.25 L3584.21 171.25 L3584.21 144.885 L3575.9 146.551 L3575.9 142.292 L3584.16 140.626 L3588.84 140.626 L3588.84 171.25 L3596.48 171.25 L3596.48 175.186 L3576.57 175.186 L3576.57 171.25 Z" fill="#000000" fill-rule="evenodd" fill-opacity="1" /><polyline clip-path="url(#clip920)" style="stroke:#e26f46; stroke-linecap:butt; stroke-linejoin:round; stroke-width:4; stroke-opacity:1; fill:none" points="
  3275.24,209.746 3505.64,209.746 
  "/>
<path clip-path="url(#clip920)" d="M3557.89 229.433 Q3556.08 234.063 3554.37 235.475 Q3552.66 236.887 3549.79 236.887 L3546.38 236.887 L3546.38 233.322 L3548.88 233.322 Q3550.64 233.322 3551.61 232.488 Q3552.59 231.655 3553.77 228.553 L3554.53 226.609 L3544.04 201.1 L3548.56 201.1 L3556.66 221.377 L3564.76 201.1 L3569.28 201.1 L3557.89 229.433 Z" fill="#000000" fill-rule="evenodd" fill-opacity="1" /><path clip-path="url(#clip920)" d="M3579.79 223.09 L3596.1 223.09 L3596.1 227.026 L3574.16 227.026 L3574.16 223.09 Q3576.82 220.336 3581.41 215.706 Q3586.01 211.053 3587.19 209.711 Q3589.44 207.188 3590.32 205.452 Q3591.22 203.692 3591.22 202.003 Q3591.22 199.248 3589.28 197.512 Q3587.35 195.776 3584.25 195.776 Q3582.05 195.776 3579.6 196.54 Q3577.17 197.303 3574.39 198.854 L3574.39 194.132 Q3577.22 192.998 3579.67 192.419 Q3582.12 191.841 3584.16 191.841 Q3589.53 191.841 3592.73 194.526 Q3595.92 197.211 3595.92 201.702 Q3595.92 203.831 3595.11 205.753 Q3594.32 207.651 3592.22 210.243 Q3591.64 210.915 3588.54 214.132 Q3585.43 217.327 3579.79 223.09 Z" fill="#000000" fill-rule="evenodd" fill-opacity="1" /></svg>
