<?xml version="1.0" encoding="utf-8"?>
<svg xmlns="http://www.w3.org/2000/svg" xmlns:xlink="http://www.w3.org/1999/xlink" width="960" height="480" viewBox="0 0 3840 1920">
<defs>
  <clipPath id="clip420">
    <rect x="0" y="0" width="3840" height="1920"/>
  </clipPath>
</defs>
<path clip-path="url(#clip420)" d="
M0 1920 L3840 1920 L3840 0 L0 0  Z
  " fill="#ffffff" fill-rule="evenodd" fill-opacity="1"/>
<defs>
  <clipPath id="clip421">
    <rect x="768" y="0" width="2689" height="1920"/>
  </clipPath>
</defs>
<path clip-path="url(#clip420)" d="
M208.336 1811.89 L3792.76 1811.89 L3792.76 47.2441 L208.336 47.2441  Z
  " fill="#ffffff" fill-rule="evenodd" fill-opacity="1"/>
<defs>
  <clipPath id="clip422">
    <rect x="208" y="47" width="3585" height="1766"/>
  </clipPath>
</defs>
<polyline clip-path="url(#clip422)" style="stroke:#000000; stroke-linecap:butt; stroke-linejoin:round; stroke-width:2; stroke-opacity:0.1; fill:none" points="
  309.729,1811.89 309.729,47.2441 
  "/>
<polyline clip-path="url(#clip422)" style="stroke:#000000; stroke-linecap:butt; stroke-linejoin:round; stroke-width:2; stroke-opacity:0.1; fill:none" points="
  1155.14,1811.89 1155.14,47.2441 
  "/>
<polyline clip-path="url(#clip422)" style="stroke:#000000; stroke-linecap:butt; stroke-linejoin:round; stroke-width:2; stroke-opacity:0.1; fill:none" points="
  2000.55,1811.89 2000.55,47.2441 
  "/>
<polyline clip-path="url(#clip422)" style="stroke:#000000; stroke-linecap:butt; stroke-linejoin:round; stroke-width:2; stroke-opacity:0.1; fill:none" points="
  2845.95,1811.89 2845.95,47.2441 
  "/>
<polyline clip-path="url(#clip422)" style="stroke:#000000; stroke-linecap:butt; stroke-linejoin:round; stroke-width:2; stroke-opacity:0.1; fill:none" points="
  3691.36,1811.89 3691.36,47.2441 
  "/>
<polyline clip-path="url(#clip420)" style="stroke:#000000; stroke-linecap:butt; stroke-linejoin:round; stroke-width:4; stroke-opacity:1; fill:none" points="
  208.336,1811.89 3792.76,1811.89 
  "/>
<polyline clip-path="url(#clip420)" style="stroke:#000000; stroke-linecap:butt; stroke-linejoin:round; stroke-width:4; stroke-opacity:1; fill:none" points="
  309.729,1811.89 309.729,1792.99 
  "/>
<polyline clip-path="url(#clip420)" style="stroke:#000000; stroke-linecap:butt; stroke-linejoin:round; stroke-width:4; stroke-opacity:1; fill:none" points="
  1155.14,1811.89 1155.14,1792.99 
  "/>
<polyline clip-path="url(#clip420)" style="stroke:#000000; stroke-linecap:butt; stroke-linejoin:round; stroke-width:4; stroke-opacity:1; fill:none" points="
  2000.55,1811.89 2000.55,1792.99 
  "/>
<polyline clip-path="url(#clip420)" style="stroke:#000000; stroke-linecap:butt; stroke-linejoin:round; stroke-width:4; stroke-opacity:1; fill:none" points="
  2845.95,1811.89 2845.95,1792.99 
  "/>
<polyline clip-path="url(#clip420)" style="stroke:#000000; stroke-linecap:butt; stroke-linejoin:round; stroke-width:4; stroke-opacity:1; fill:none" points="
  3691.36,1811.89 3691.36,1792.99 
  "/>
<path clip-path="url(#clip420)" d="M256.257 1868.98 L285.933 1868.98 L285.933 1872.91 L256.257 1872.91 L256.257 1868.98 Z" fill="#000000" fill-rule="evenodd" fill-opacity="1" /><path clip-path="url(#clip420)" d="M296.836 1881.87 L304.475 1881.87 L304.475 1855.51 L296.164 1857.17 L296.164 1852.91 L304.428 1851.25 L309.104 1851.25 L309.104 1881.87 L316.743 1881.87 L316.743 1885.81 L296.836 1885.81 L296.836 1881.87 Z" fill="#000000" fill-rule="evenodd" fill-opacity="1" /><path clip-path="url(#clip420)" d="M326.187 1879.93 L331.072 1879.93 L331.072 1885.81 L326.187 1885.81 L326.187 1879.93 Z" fill="#000000" fill-rule="evenodd" fill-opacity="1" /><path clip-path="url(#clip420)" d="M351.257 1854.33 Q347.646 1854.33 345.817 1857.89 Q344.011 1861.43 344.011 1868.56 Q344.011 1875.67 345.817 1879.23 Q347.646 1882.78 351.257 1882.78 Q354.891 1882.78 356.697 1879.23 Q358.525 1875.67 358.525 1868.56 Q358.525 1861.43 356.697 1857.89 Q354.891 1854.33 351.257 1854.33 M351.257 1850.62 Q357.067 1850.62 360.122 1855.23 Q363.201 1859.81 363.201 1868.56 Q363.201 1877.29 360.122 1881.9 Q357.067 1886.48 351.257 1886.48 Q345.447 1886.48 342.368 1881.9 Q339.312 1877.29 339.312 1868.56 Q339.312 1859.81 342.368 1855.23 Q345.447 1850.62 351.257 1850.62 Z" fill="#000000" fill-rule="evenodd" fill-opacity="1" /><path clip-path="url(#clip420)" d="M1102.16 1868.98 L1131.84 1868.98 L1131.84 1872.91 L1102.16 1872.91 L1102.16 1868.98 Z" fill="#000000" fill-rule="evenodd" fill-opacity="1" /><path clip-path="url(#clip420)" d="M1151.93 1854.33 Q1148.32 1854.33 1146.49 1857.89 Q1144.69 1861.43 1144.69 1868.56 Q1144.69 1875.67 1146.49 1879.23 Q1148.32 1882.78 1151.93 1882.78 Q1155.57 1882.78 1157.37 1879.23 Q1159.2 1875.67 1159.2 1868.56 Q1159.2 1861.43 1157.37 1857.89 Q1155.57 1854.33 1151.93 1854.33 M1151.93 1850.62 Q1157.74 1850.62 1160.8 1855.23 Q1163.88 1859.81 1163.88 1868.56 Q1163.88 1877.29 1160.8 1881.9 Q1157.74 1886.48 1151.93 1886.48 Q1146.12 1886.48 1143.04 1881.9 Q1139.99 1877.29 1139.99 1868.56 Q1139.99 1859.81 1143.04 1855.23 Q1146.12 1850.62 1151.93 1850.62 Z" fill="#000000" fill-rule="evenodd" fill-opacity="1" /><path clip-path="url(#clip420)" d="M1172.09 1879.93 L1176.98 1879.93 L1176.98 1885.81 L1172.09 1885.81 L1172.09 1879.93 Z" fill="#000000" fill-rule="evenodd" fill-opacity="1" /><path clip-path="url(#clip420)" d="M1187.21 1851.25 L1205.57 1851.25 L1205.57 1855.18 L1191.49 1855.18 L1191.49 1863.66 Q1192.51 1863.31 1193.53 1863.15 Q1194.55 1862.96 1195.57 1862.96 Q1201.35 1862.96 1204.73 1866.13 Q1208.11 1869.3 1208.11 1874.72 Q1208.11 1880.3 1204.64 1883.4 Q1201.17 1886.48 1194.85 1886.48 Q1192.67 1886.48 1190.4 1886.11 Q1188.16 1885.74 1185.75 1885 L1185.75 1880.3 Q1187.83 1881.43 1190.06 1881.99 Q1192.28 1882.54 1194.76 1882.54 Q1198.76 1882.54 1201.1 1880.44 Q1203.44 1878.33 1203.44 1874.72 Q1203.44 1871.11 1201.1 1869 Q1198.76 1866.9 1194.76 1866.9 Q1192.88 1866.9 1191.01 1867.31 Q1189.15 1867.73 1187.21 1868.61 L1187.21 1851.25 Z" fill="#000000" fill-rule="evenodd" fill-opacity="1" /><path clip-path="url(#clip420)" d="M1977.93 1854.33 Q1974.32 1854.33 1972.49 1857.89 Q1970.69 1861.43 1970.69 1868.56 Q1970.69 1875.67 1972.49 1879.23 Q1974.32 1882.78 1977.93 1882.78 Q1981.56 1882.78 1983.37 1879.23 Q1985.2 1875.67 1985.2 1868.56 Q1985.2 1861.43 1983.37 1857.89 Q1981.56 1854.33 1977.93 1854.33 M1977.93 1850.62 Q1983.74 1850.62 1986.8 1855.23 Q1989.87 1859.81 1989.87 1868.56 Q1989.87 1877.29 1986.8 1881.9 Q1983.74 1886.48 1977.93 1886.48 Q1972.12 1886.48 1969.04 1881.9 Q1965.99 1877.29 1965.99 1868.56 Q1965.99 1859.81 1969.04 1855.23 Q1972.12 1850.62 1977.93 1850.62 Z" fill="#000000" fill-rule="evenodd" fill-opacity="1" /><path clip-path="url(#clip420)" d="M1998.09 1879.93 L2002.98 1879.93 L2002.98 1885.81 L1998.09 1885.81 L1998.09 1879.93 Z" fill="#000000" fill-rule="evenodd" fill-opacity="1" /><path clip-path="url(#clip420)" d="M2023.16 1854.33 Q2019.55 1854.33 2017.72 1857.89 Q2015.92 1861.43 2015.92 1868.56 Q2015.92 1875.67 2017.72 1879.23 Q2019.55 1882.78 2023.16 1882.78 Q2026.8 1882.78 2028.6 1879.23 Q2030.43 1875.67 2030.43 1868.56 Q2030.43 1861.43 2028.6 1857.89 Q2026.8 1854.33 2023.16 1854.33 M2023.16 1850.62 Q2028.97 1850.62 2032.03 1855.23 Q2035.11 1859.81 2035.11 1868.56 Q2035.11 1877.29 2032.03 1881.9 Q2028.97 1886.48 2023.16 1886.48 Q2017.35 1886.48 2014.27 1881.9 Q2011.22 1877.29 2011.22 1868.56 Q2011.22 1859.81 2014.27 1855.23 Q2017.35 1850.62 2023.16 1850.62 Z" fill="#000000" fill-rule="evenodd" fill-opacity="1" /><path clip-path="url(#clip420)" d="M2823.84 1854.33 Q2820.23 1854.33 2818.4 1857.89 Q2816.59 1861.43 2816.59 1868.56 Q2816.59 1875.67 2818.4 1879.23 Q2820.23 1882.78 2823.84 1882.78 Q2827.47 1882.78 2829.28 1879.23 Q2831.1 1875.67 2831.1 1868.56 Q2831.1 1861.43 2829.28 1857.89 Q2827.47 1854.33 2823.84 1854.33 M2823.84 1850.62 Q2829.65 1850.62 2832.7 1855.23 Q2835.78 1859.81 2835.78 1868.56 Q2835.78 1877.29 2832.7 1881.9 Q2829.65 1886.48 2823.84 1886.48 Q2818.03 1886.48 2814.95 1881.9 Q2811.89 1877.29 2811.89 1868.56 Q2811.89 1859.81 2814.95 1855.23 Q2818.03 1850.62 2823.84 1850.62 Z" fill="#000000" fill-rule="evenodd" fill-opacity="1" /><path clip-path="url(#clip420)" d="M2844 1879.93 L2848.88 1879.93 L2848.88 1885.81 L2844 1885.81 L2844 1879.93 Z" fill="#000000" fill-rule="evenodd" fill-opacity="1" /><path clip-path="url(#clip420)" d="M2859.11 1851.25 L2877.47 1851.25 L2877.47 1855.18 L2863.4 1855.18 L2863.4 1863.66 Q2864.41 1863.31 2865.43 1863.15 Q2866.45 1862.96 2867.47 1862.96 Q2873.26 1862.96 2876.64 1866.13 Q2880.02 1869.3 2880.02 1874.72 Q2880.02 1880.3 2876.54 1883.4 Q2873.07 1886.48 2866.75 1886.48 Q2864.58 1886.48 2862.31 1886.11 Q2860.06 1885.74 2857.66 1885 L2857.66 1880.3 Q2859.74 1881.43 2861.96 1881.99 Q2864.18 1882.54 2866.66 1882.54 Q2870.66 1882.54 2873 1880.44 Q2875.34 1878.33 2875.34 1874.72 Q2875.34 1871.11 2873 1869 Q2870.66 1866.9 2866.66 1866.9 Q2864.79 1866.9 2862.91 1867.31 Q2861.06 1867.73 2859.11 1868.61 L2859.11 1851.25 Z" fill="#000000" fill-rule="evenodd" fill-opacity="1" /><path clip-path="url(#clip420)" d="M3658.52 1881.87 L3666.15 1881.87 L3666.15 1855.51 L3657.84 1857.17 L3657.84 1852.91 L3666.11 1851.25 L3670.78 1851.25 L3670.78 1881.87 L3678.42 1881.87 L3678.42 1885.81 L3658.52 1885.81 L3658.52 1881.87 Z" fill="#000000" fill-rule="evenodd" fill-opacity="1" /><path clip-path="url(#clip420)" d="M3687.87 1879.93 L3692.75 1879.93 L3692.75 1885.81 L3687.87 1885.81 L3687.87 1879.93 Z" fill="#000000" fill-rule="evenodd" fill-opacity="1" /><path clip-path="url(#clip420)" d="M3712.94 1854.33 Q3709.33 1854.33 3707.5 1857.89 Q3705.69 1861.43 3705.69 1868.56 Q3705.69 1875.67 3707.5 1879.23 Q3709.33 1882.78 3712.94 1882.78 Q3716.57 1882.78 3718.38 1879.23 Q3720.21 1875.67 3720.21 1868.56 Q3720.21 1861.43 3718.38 1857.89 Q3716.57 1854.33 3712.94 1854.33 M3712.94 1850.62 Q3718.75 1850.62 3721.8 1855.23 Q3724.88 1859.81 3724.88 1868.56 Q3724.88 1877.29 3721.8 1881.9 Q3718.75 1886.48 3712.94 1886.48 Q3707.13 1886.48 3704.05 1881.9 Q3700.99 1877.29 3700.99 1868.56 Q3700.99 1859.81 3704.05 1855.23 Q3707.13 1850.62 3712.94 1850.62 Z" fill="#000000" fill-rule="evenodd" fill-opacity="1" /><polyline clip-path="url(#clip422)" style="stroke:#000000; stroke-linecap:butt; stroke-linejoin:round; stroke-width:2; stroke-opacity:0.1; fill:none" points="
  208.336,1761.97 3792.76,1761.97 
  "/>
<polyline clip-path="url(#clip422)" style="stroke:#000000; stroke-linecap:butt; stroke-linejoin:round; stroke-width:2; stroke-opacity:0.1; fill:none" points="
  208.336,1345.77 3792.76,1345.77 
  "/>
<polyline clip-path="url(#clip422)" style="stroke:#000000; stroke-linecap:butt; stroke-linejoin:round; stroke-width:2; stroke-opacity:0.1; fill:none" points="
  208.336,929.566 3792.76,929.566 
  "/>
<polyline clip-path="url(#clip422)" style="stroke:#000000; stroke-linecap:butt; stroke-linejoin:round; stroke-width:2; stroke-opacity:0.1; fill:none" points="
  208.336,513.363 3792.76,513.363 
  "/>
<polyline clip-path="url(#clip422)" style="stroke:#000000; stroke-linecap:butt; stroke-linejoin:round; stroke-width:2; stroke-opacity:0.1; fill:none" points="
  208.336,97.1609 3792.76,97.1609 
  "/>
<polyline clip-path="url(#clip420)" style="stroke:#000000; stroke-linecap:butt; stroke-linejoin:round; stroke-width:4; stroke-opacity:1; fill:none" points="
  208.336,1811.89 208.336,47.2441 
  "/>
<polyline clip-path="url(#clip420)" style="stroke:#000000; stroke-linecap:butt; stroke-linejoin:round; stroke-width:4; stroke-opacity:1; fill:none" points="
  208.336,1761.97 227.234,1761.97 
  "/>
<polyline clip-path="url(#clip420)" style="stroke:#000000; stroke-linecap:butt; stroke-linejoin:round; stroke-width:4; stroke-opacity:1; fill:none" points="
  208.336,1345.77 227.234,1345.77 
  "/>
<polyline clip-path="url(#clip420)" style="stroke:#000000; stroke-linecap:butt; stroke-linejoin:round; stroke-width:4; stroke-opacity:1; fill:none" points="
  208.336,929.566 227.234,929.566 
  "/>
<polyline clip-path="url(#clip420)" style="stroke:#000000; stroke-linecap:butt; stroke-linejoin:round; stroke-width:4; stroke-opacity:1; fill:none" points="
  208.336,513.363 227.234,513.363 
  "/>
<polyline clip-path="url(#clip420)" style="stroke:#000000; stroke-linecap:butt; stroke-linejoin:round; stroke-width:4; stroke-opacity:1; fill:none" points="
  208.336,97.1609 227.234,97.1609 
  "/>
<path clip-path="url(#clip420)" d="M43.7921 1762.42 L73.4679 1762.42 L73.4679 1766.36 L43.7921 1766.36 L43.7921 1762.42 Z" fill="#000000" fill-rule="evenodd" fill-opacity="1" /><path clip-path="url(#clip420)" d="M84.3706 1775.32 L92.0095 1775.32 L92.0095 1748.95 L83.6993 1750.62 L83.6993 1746.36 L91.9632 1744.69 L96.6391 1744.69 L96.6391 1775.32 L104.278 1775.32 L104.278 1779.25 L84.3706 1779.25 L84.3706 1775.32 Z" fill="#000000" fill-rule="evenodd" fill-opacity="1" /><path clip-path="url(#clip420)" d="M113.722 1773.37 L118.607 1773.37 L118.607 1779.25 L113.722 1779.25 L113.722 1773.37 Z" fill="#000000" fill-rule="evenodd" fill-opacity="1" /><path clip-path="url(#clip420)" d="M138.792 1747.77 Q135.181 1747.77 133.352 1751.33 Q131.546 1754.88 131.546 1762.01 Q131.546 1769.11 133.352 1772.68 Q135.181 1776.22 138.792 1776.22 Q142.426 1776.22 144.231 1772.68 Q146.06 1769.11 146.06 1762.01 Q146.06 1754.88 144.231 1751.33 Q142.426 1747.77 138.792 1747.77 M138.792 1744.07 Q144.602 1744.07 147.657 1748.67 Q150.736 1753.26 150.736 1762.01 Q150.736 1770.73 147.657 1775.34 Q144.602 1779.92 138.792 1779.92 Q132.981 1779.92 129.903 1775.34 Q126.847 1770.73 126.847 1762.01 Q126.847 1753.26 129.903 1748.67 Q132.981 1744.07 138.792 1744.07 Z" fill="#000000" fill-rule="evenodd" fill-opacity="1" /><path clip-path="url(#clip420)" d="M44.7875 1346.22 L74.4633 1346.22 L74.4633 1350.16 L44.7875 1350.16 L44.7875 1346.22 Z" fill="#000000" fill-rule="evenodd" fill-opacity="1" /><path clip-path="url(#clip420)" d="M94.5557 1331.57 Q90.9447 1331.57 89.116 1335.13 Q87.3104 1338.67 87.3104 1345.8 Q87.3104 1352.91 89.116 1356.47 Q90.9447 1360.02 94.5557 1360.02 Q98.19 1360.02 99.9955 1356.47 Q101.824 1352.91 101.824 1345.8 Q101.824 1338.67 99.9955 1335.13 Q98.19 1331.57 94.5557 1331.57 M94.5557 1327.86 Q100.366 1327.86 103.421 1332.47 Q106.5 1337.05 106.5 1345.8 Q106.5 1354.53 103.421 1359.14 Q100.366 1363.72 94.5557 1363.72 Q88.7456 1363.72 85.6669 1359.14 Q82.6114 1354.53 82.6114 1345.8 Q82.6114 1337.05 85.6669 1332.47 Q88.7456 1327.86 94.5557 1327.86 Z" fill="#000000" fill-rule="evenodd" fill-opacity="1" /><path clip-path="url(#clip420)" d="M114.718 1357.17 L119.602 1357.17 L119.602 1363.05 L114.718 1363.05 L114.718 1357.17 Z" fill="#000000" fill-rule="evenodd" fill-opacity="1" /><path clip-path="url(#clip420)" d="M129.833 1328.49 L148.19 1328.49 L148.19 1332.42 L134.116 1332.42 L134.116 1340.9 Q135.134 1340.55 136.153 1340.39 Q137.171 1340.2 138.19 1340.2 Q143.977 1340.2 147.356 1343.37 Q150.736 1346.54 150.736 1351.96 Q150.736 1357.54 147.264 1360.64 Q143.792 1363.72 137.472 1363.72 Q135.296 1363.72 133.028 1363.35 Q130.782 1362.98 128.375 1362.24 L128.375 1357.54 Q130.458 1358.67 132.681 1359.23 Q134.903 1359.78 137.38 1359.78 Q141.384 1359.78 143.722 1357.68 Q146.06 1355.57 146.06 1351.96 Q146.06 1348.35 143.722 1346.24 Q141.384 1344.14 137.38 1344.14 Q135.505 1344.14 133.63 1344.55 Q131.778 1344.97 129.833 1345.85 L129.833 1328.49 Z" fill="#000000" fill-rule="evenodd" fill-opacity="1" /><path clip-path="url(#clip420)" d="M93.5604 915.365 Q89.9493 915.365 88.1206 918.929 Q86.315 922.471 86.315 929.601 Q86.315 936.707 88.1206 940.272 Q89.9493 943.814 93.5604 943.814 Q97.1946 943.814 99.0002 940.272 Q100.829 936.707 100.829 929.601 Q100.829 922.471 99.0002 918.929 Q97.1946 915.365 93.5604 915.365 M93.5604 911.661 Q99.3705 911.661 102.426 916.267 Q105.505 920.851 105.505 929.601 Q105.505 938.328 102.426 942.934 Q99.3705 947.517 93.5604 947.517 Q87.7502 947.517 84.6715 942.934 Q81.616 938.328 81.616 929.601 Q81.616 920.851 84.6715 916.267 Q87.7502 911.661 93.5604 911.661 Z" fill="#000000" fill-rule="evenodd" fill-opacity="1" /><path clip-path="url(#clip420)" d="M113.722 940.966 L118.607 940.966 L118.607 946.846 L113.722 946.846 L113.722 940.966 Z" fill="#000000" fill-rule="evenodd" fill-opacity="1" /><path clip-path="url(#clip420)" d="M138.792 915.365 Q135.181 915.365 133.352 918.929 Q131.546 922.471 131.546 929.601 Q131.546 936.707 133.352 940.272 Q135.181 943.814 138.792 943.814 Q142.426 943.814 144.231 940.272 Q146.06 936.707 146.06 929.601 Q146.06 922.471 144.231 918.929 Q142.426 915.365 138.792 915.365 M138.792 911.661 Q144.602 911.661 147.657 916.267 Q150.736 920.851 150.736 929.601 Q150.736 938.328 147.657 942.934 Q144.602 947.517 138.792 947.517 Q132.981 947.517 129.903 942.934 Q126.847 938.328 126.847 929.601 Q126.847 920.851 129.903 916.267 Q132.981 911.661 138.792 911.661 Z" fill="#000000" fill-rule="evenodd" fill-opacity="1" /><path clip-path="url(#clip420)" d="M94.5557 499.162 Q90.9447 499.162 89.116 502.727 Q87.3104 506.269 87.3104 513.398 Q87.3104 520.505 89.116 524.069 Q90.9447 527.611 94.5557 527.611 Q98.19 527.611 99.9955 524.069 Q101.824 520.505 101.824 513.398 Q101.824 506.269 99.9955 502.727 Q98.19 499.162 94.5557 499.162 M94.5557 495.458 Q100.366 495.458 103.421 500.065 Q106.5 504.648 106.5 513.398 Q106.5 522.125 103.421 526.731 Q100.366 531.315 94.5557 531.315 Q88.7456 531.315 85.6669 526.731 Q82.6114 522.125 82.6114 513.398 Q82.6114 504.648 85.6669 500.065 Q88.7456 495.458 94.5557 495.458 Z" fill="#000000" fill-rule="evenodd" fill-opacity="1" /><path clip-path="url(#clip420)" d="M114.718 524.764 L119.602 524.764 L119.602 530.643 L114.718 530.643 L114.718 524.764 Z" fill="#000000" fill-rule="evenodd" fill-opacity="1" /><path clip-path="url(#clip420)" d="M129.833 496.083 L148.19 496.083 L148.19 500.019 L134.116 500.019 L134.116 508.491 Q135.134 508.144 136.153 507.982 Q137.171 507.796 138.19 507.796 Q143.977 507.796 147.356 510.968 Q150.736 514.139 150.736 519.556 Q150.736 525.134 147.264 528.236 Q143.792 531.315 137.472 531.315 Q135.296 531.315 133.028 530.944 Q130.782 530.574 128.375 529.833 L128.375 525.134 Q130.458 526.268 132.681 526.824 Q134.903 527.38 137.38 527.38 Q141.384 527.38 143.722 525.273 Q146.06 523.167 146.06 519.556 Q146.06 515.944 143.722 513.838 Q141.384 511.732 137.38 511.732 Q135.505 511.732 133.63 512.148 Q131.778 512.565 129.833 513.444 L129.833 496.083 Z" fill="#000000" fill-rule="evenodd" fill-opacity="1" /><path clip-path="url(#clip420)" d="M84.3706 110.506 L92.0095 110.506 L92.0095 84.1401 L83.6993 85.8068 L83.6993 81.5476 L91.9632 79.8809 L96.6391 79.8809 L96.6391 110.506 L104.278 110.506 L104.278 114.441 L84.3706 114.441 L84.3706 110.506 Z" fill="#000000" fill-rule="evenodd" fill-opacity="1" /><path clip-path="url(#clip420)" d="M113.722 108.561 L118.607 108.561 L118.607 114.441 L113.722 114.441 L113.722 108.561 Z" fill="#000000" fill-rule="evenodd" fill-opacity="1" /><path clip-path="url(#clip420)" d="M138.792 82.9596 Q135.181 82.9596 133.352 86.5244 Q131.546 90.066 131.546 97.1956 Q131.546 104.302 133.352 107.867 Q135.181 111.409 138.792 111.409 Q142.426 111.409 144.231 107.867 Q146.06 104.302 146.06 97.1956 Q146.06 90.066 144.231 86.5244 Q142.426 82.9596 138.792 82.9596 M138.792 79.2559 Q144.602 79.2559 147.657 83.8624 Q150.736 88.4457 150.736 97.1956 Q150.736 105.922 147.657 110.529 Q144.602 115.112 138.792 115.112 Q132.981 115.112 129.903 110.529 Q126.847 105.922 126.847 97.1956 Q126.847 88.4457 129.903 83.8624 Q132.981 79.2559 138.792 79.2559 Z" fill="#000000" fill-rule="evenodd" fill-opacity="1" /><polyline clip-path="url(#clip422)" style="stroke:#009af9; stroke-linecap:butt; stroke-linejoin:round; stroke-width:4; stroke-opacity:1; fill:none" points="
  2000.55,929.566 2053.92,877.037 2107.25,824.716 2160.46,772.814 2213.52,721.537 2266.37,671.089 2318.95,621.672 2371.21,573.481 2423.1,526.711 2474.58,481.546 
  2525.58,438.167 2576.05,396.747 2625.95,357.451 2675.23,320.435 2723.84,285.848 2771.73,253.826 2818.84,224.499 2865.14,197.982 2910.58,174.381 2955.12,153.791 
  2998.7,136.293 3041.28,121.958 3082.83,110.841 3123.3,102.989 3162.65,98.4313 3200.84,97.1868 3237.84,99.2605 3273.6,104.644 3308.09,113.316 3341.28,125.242 
  3373.14,140.374 3403.62,158.652 3432.71,180.003 3460.37,204.342 3486.57,231.572 3511.29,261.584 3534.51,294.259 3556.2,329.467 3576.33,367.067 3594.9,406.909 
  3611.88,448.834 3627.25,492.676 3640.99,538.26 3653.11,585.403 3663.57,633.919 3672.38,683.612 3679.52,734.287 3684.99,785.739 3688.78,837.765 3690.89,890.157 
  3691.31,942.707 3690.05,995.203 3687.1,1047.44 3682.47,1099.2 3676.16,1150.29 3668.19,1200.5 3658.55,1249.63 3647.26,1297.48 3634.32,1343.87 3619.76,1388.61 
  3603.59,1431.51 3585.81,1472.41 3566.46,1511.16 3545.55,1547.58 3523.09,1581.54 3499.12,1612.89 3473.65,1641.53 3446.72,1667.33 3418.34,1690.18 3388.55,1710.01 
  3357.38,1726.72 3324.85,1740.26 3291.01,1750.56 3255.88,1757.59 3219.49,1761.32 3181.89,1761.74 3143.12,1758.84 3103.2,1752.63 3062.19,1743.14 3020.12,1730.41 
  2977.03,1714.48 2932.97,1695.43 2887.97,1673.32 2842.1,1648.25 2795.38,1620.31 2747.88,1589.62 2699.62,1556.3 2650.67,1520.48 2601.08,1482.31 2550.88,1441.93 
  2500.14,1399.51 2448.89,1355.22 2397.21,1309.23 2345.12,1261.72 2292.69,1212.89 2239.97,1162.94 2187.02,1112.05 2133.87,1060.43 2080.59,1008.29 2027.24,955.844 
  1973.85,903.288 1920.5,850.837 1867.22,798.7 1814.08,747.085 1761.12,696.197 1708.4,646.239 1655.97,597.411 1603.89,549.907 1552.2,503.916 1500.95,459.622 
  1450.21,417.201 1400.01,376.823 1350.42,338.648 1301.47,302.829 1253.22,269.508 1205.71,238.818 1158.99,210.882 1113.12,185.811 1068.13,163.704 1024.06,144.651 
  980.975,128.726 938.902,115.994 897.888,106.505 857.973,100.297 819.197,97.3943 781.599,97.8091 745.216,101.54 710.084,108.571 676.238,118.875 643.712,132.41 
  612.539,149.124 582.75,168.948 554.374,191.804 527.439,217.602 501.973,246.237 478.001,277.597 455.546,311.555 434.632,347.977 415.278,386.717 397.505,427.621 
  381.329,470.527 366.768,515.262 353.835,561.648 342.544,609.501 332.905,658.63 324.929,708.84 318.623,759.928 313.994,811.694 311.046,863.929 309.782,916.425 
  310.203,968.975 312.31,1021.37 316.099,1073.39 321.567,1124.85 328.709,1175.52 337.518,1225.21 347.984,1273.73 360.097,1320.87 373.846,1366.46 389.216,1410.3 
  406.193,1452.22 424.759,1492.07 444.895,1529.67 466.582,1564.87 489.799,1597.55 514.521,1627.56 540.725,1654.79 568.384,1679.13 597.47,1700.48 627.955,1718.76 
  659.808,1733.89 692.998,1745.82 727.491,1754.49 763.253,1759.87 800.249,1761.95 838.441,1760.7 877.791,1756.14 918.261,1748.29 959.809,1737.17 1002.39,1722.84 
  1045.98,1705.34 1090.51,1684.75 1135.95,1661.15 1182.25,1634.63 1229.37,1605.31 1277.25,1573.28 1325.86,1538.7 1375.14,1501.68 1425.04,1462.39 1475.52,1420.97 
  1526.52,1377.59 1577.99,1332.42 1629.88,1285.65 1682.15,1237.46 1734.73,1188.04 1787.57,1137.59 1840.63,1086.32 1893.85,1034.42 1947.17,982.095 2000.55,929.566 
  
  "/>
<path clip-path="url(#clip420)" d="
M3236.84 209.746 L3673.28 209.746 L3673.28 106.066 L3236.84 106.066  Z
  " fill="#ffffff" fill-rule="evenodd" fill-opacity="1"/>
<polyline clip-path="url(#clip420)" style="stroke:#000000; stroke-linecap:butt; stroke-linejoin:round; stroke-width:4; stroke-opacity:1; fill:none" points="
  3236.84,209.746 3673.28,209.746 3673.28,106.066 3236.84,106.066 3236.84,209.746 
  "/>
<polyline clip-path="url(#clip420)" style="stroke:#009af9; stroke-linecap:butt; stroke-linejoin:round; stroke-width:4; stroke-opacity:1; fill:none" points="
  3275.24,157.906 3505.64,157.906 
  "/>
<path clip-path="url(#clip420)" d="M3557.89 177.593 Q3556.08 182.223 3554.37 183.635 Q3552.66 185.047 3549.79 185.047 L3546.38 185.047 L3546.38 181.482 L3548.88 181.482 Q3550.64 181.482 3551.61 180.648 Q3552.59 179.815 3553.77 176.713 L3554.53 174.769 L3544.04 149.26 L3548.56 149.26 L3556.66 169.537 L3564.76 149.26 L3569.28 149.26 L3557.89 177.593 Z" fill="#000000" fill-rule="evenodd" fill-opacity="1" /><path clip-path="url(#clip420)" d="M3576.57 171.25 L3584.21 171.25 L3584.21 144.885 L3575.9 146.551 L3575.9 142.292 L3584.16 140.626 L3588.84 140.626 L3588.84 171.25 L3596.48 171.25 L3596.48 175.186 L3576.57 175.186 L3576.57 171.25 Z" fill="#000000" fill-rule="evenodd" fill-opacity="1" /></svg>
